<?xml version="1.0" encoding="us-ascii" standalone="no"?><svg xmlns="http://www.w3.org/2000/svg" xmlns:xlink="http://www.w3.org/1999/xlink" contentStyleType="text/css" height="914px" preserveAspectRatio="none" style="width:2633px;height:914px;background:#FFFFFF;" version="1.1" viewBox="0 0 2633 914" width="2633px" zoomAndPan="magnify"><defs/><g><!--cluster pokemons--><g id="cluster_pokemons"><path d="M445,6 L519,6 A3.75,3.75 0 0 1 521.5,8.5 L528.5,29.6094 L838,29.6094 A2.5,2.5 0 0 1 840.5,32.1094 L840.5,478.5 A2.5,2.5 0 0 1 838,481 L445,481 A2.5,2.5 0 0 1 442.5,478.5 L442.5,8.5 A2.5,2.5 0 0 1 445,6 " fill="none" style="stroke:#000000;stroke-width:1.5;"/><line style="stroke:#000000;stroke-width:1.5;" x1="442.5" x2="528.5" y1="29.6094" y2="29.6094"/><text fill="#000000" font-family="sans-serif" font-size="14" font-weight="bold" lengthAdjust="spacing" textLength="73" x="446.5" y="22.5332">pokemons</text></g><!--cluster moves--><g id="cluster_moves"><path d="M202,505 L250,505 A3.75,3.75 0 0 1 252.5,507.5 L259.5,528.6094 L2624,528.6094 A2.5,2.5 0 0 1 2626.5,531.1094 L2626.5,813.5 A2.5,2.5 0 0 1 2624,816 L202,816 A2.5,2.5 0 0 1 199.5,813.5 L199.5,507.5 A2.5,2.5 0 0 1 202,505 " fill="none" style="stroke:#000000;stroke-width:1.5;"/><line style="stroke:#000000;stroke-width:1.5;" x1="199.5" x2="259.5" y1="528.6094" y2="528.6094"/><text fill="#000000" font-family="sans-serif" font-size="14" font-weight="bold" lengthAdjust="spacing" textLength="47" x="203.5" y="521.5332">moves</text></g><!--class Latios--><g id="elem_Latios"><rect codeLine="7" fill="#F1F1F1" height="100.8281" id="Latios" rx="2.5" ry="2.5" style="stroke:#181818;stroke-width:0.5;" width="92" x="599.5" y="42"/><ellipse cx="624.4" cy="58" fill="#ADD1B2" rx="11" ry="11" style="stroke:#181818;stroke-width:1.0;"/><path d="M627.1656,53.875 Q627.3219,53.6563 627.5094,53.5469 Q627.6969,53.4375 627.9156,53.4375 Q628.2906,53.4375 628.525,53.7031 Q628.7594,53.9531 628.7594,54.5625 L628.7594,56.0156 Q628.7594,56.625 628.525,56.8906 Q628.2906,57.1563 627.9156,57.1563 Q627.5719,57.1563 627.3688,56.9531 Q627.1656,56.7656 627.0563,56.25 Q627.0094,55.8906 626.8219,55.7031 Q626.4938,55.3281 625.8844,55.1094 Q625.275,54.8906 624.65,54.8906 Q623.8844,54.8906 623.2438,55.2188 Q622.6188,55.5469 622.1188,56.2969 Q621.6344,57.0469 621.6344,58.0781 L621.6344,59.1719 Q621.6344,60.4063 622.525,61.2344 Q623.4156,62.0469 625.0094,62.0469 Q625.9469,62.0469 626.6031,61.7969 Q626.9938,61.6406 627.4156,61.2031 Q627.6813,60.9375 627.8219,60.8594 Q627.9781,60.7813 628.1813,60.7813 Q628.5094,60.7813 628.7594,61.0469 Q629.025,61.2969 629.025,61.6406 Q629.025,61.9844 628.6813,62.3906 Q628.1813,62.9688 627.3844,63.2969 Q626.3063,63.75 625.0094,63.75 Q623.4938,63.75 622.2906,63.125 Q621.3063,62.625 620.6188,61.5625 Q619.9313,60.4844 619.9313,59.2031 L619.9313,58.0469 Q619.9313,56.7188 620.5406,55.5781 Q621.1656,54.4219 622.2594,53.8125 Q623.3531,53.1875 624.5875,53.1875 Q625.3219,53.1875 625.9625,53.3594 Q626.6188,53.5156 627.1656,53.875 Z " fill="#000000"/><text fill="#000000" font-family="sans-serif" font-size="14" lengthAdjust="spacing" textLength="38" x="640.6" y="63.7285">Latios</text><line style="stroke:#181818;stroke-width:0.5;" x1="600.5" x2="690.5" y1="74" y2="74"/><text fill="#000000" font-family="sans-serif" font-size="14" lengthAdjust="spacing" textLength="80" x="605.5" y="92.5332">name: String</text><text fill="#000000" font-family="sans-serif" font-size="14" lengthAdjust="spacing" textLength="52" x="605.5" y="110.1426">level: int</text><line style="stroke:#181818;stroke-width:0.5;" x1="600.5" x2="690.5" y1="117.2188" y2="117.2188"/><ellipse cx="610.5" cy="131.5234" fill="#84BE84" rx="3" ry="3" style="stroke:#038048;stroke-width:1.0;"/><text fill="#000000" font-family="sans-serif" font-size="14" lengthAdjust="spacing" textLength="48" x="619.5" y="135.752">Latios()</text></g><!--class Tirtouga--><g id="elem_Tirtouga"><rect codeLine="13" fill="#F1F1F1" height="100.8281" id="Tirtouga" rx="2.5" ry="2.5" style="stroke:#181818;stroke-width:0.5;" width="92" x="473.5" y="203"/><ellipse cx="491.65" cy="219" fill="#ADD1B2" rx="11" ry="11" style="stroke:#181818;stroke-width:1.0;"/><path d="M494.4156,214.875 Q494.5719,214.6563 494.7594,214.5469 Q494.9469,214.4375 495.1656,214.4375 Q495.5406,214.4375 495.775,214.7031 Q496.0094,214.9531 496.0094,215.5625 L496.0094,217.0156 Q496.0094,217.625 495.775,217.8906 Q495.5406,218.1563 495.1656,218.1563 Q494.8219,218.1563 494.6188,217.9531 Q494.4156,217.7656 494.3063,217.25 Q494.2594,216.8906 494.0719,216.7031 Q493.7438,216.3281 493.1344,216.1094 Q492.525,215.8906 491.9,215.8906 Q491.1344,215.8906 490.4938,216.2188 Q489.8688,216.5469 489.3688,217.2969 Q488.8844,218.0469 488.8844,219.0781 L488.8844,220.1719 Q488.8844,221.4063 489.775,222.2344 Q490.6656,223.0469 492.2594,223.0469 Q493.1969,223.0469 493.8531,222.7969 Q494.2438,222.6406 494.6656,222.2031 Q494.9313,221.9375 495.0719,221.8594 Q495.2281,221.7813 495.4313,221.7813 Q495.7594,221.7813 496.0094,222.0469 Q496.275,222.2969 496.275,222.6406 Q496.275,222.9844 495.9313,223.3906 Q495.4313,223.9688 494.6344,224.2969 Q493.5563,224.75 492.2594,224.75 Q490.7438,224.75 489.5406,224.125 Q488.5563,223.625 487.8688,222.5625 Q487.1813,221.4844 487.1813,220.2031 L487.1813,219.0469 Q487.1813,217.7188 487.7906,216.5781 Q488.4156,215.4219 489.5094,214.8125 Q490.6031,214.1875 491.8375,214.1875 Q492.5719,214.1875 493.2125,214.3594 Q493.8688,214.5156 494.4156,214.875 Z " fill="#000000"/><text fill="#000000" font-family="sans-serif" font-size="14" lengthAdjust="spacing" textLength="53" x="506.35" y="224.7285">Tirtouga</text><line style="stroke:#181818;stroke-width:0.5;" x1="474.5" x2="564.5" y1="235" y2="235"/><text fill="#000000" font-family="sans-serif" font-size="14" lengthAdjust="spacing" textLength="80" x="479.5" y="253.5332">name: String</text><text fill="#000000" font-family="sans-serif" font-size="14" lengthAdjust="spacing" textLength="52" x="479.5" y="271.1426">level: int</text><line style="stroke:#181818;stroke-width:0.5;" x1="474.5" x2="564.5" y1="278.2188" y2="278.2188"/><ellipse cx="484.5" cy="292.5234" fill="#84BE84" rx="3" ry="3" style="stroke:#038048;stroke-width:1.0;"/><text fill="#000000" font-family="sans-serif" font-size="14" lengthAdjust="spacing" textLength="63" x="493.5" y="296.752">Tirtouga()</text></g><!--class Carracosta--><g id="elem_Carracosta"><rect codeLine="19" fill="#F1F1F1" height="100.8281" id="Carracosta" rx="2.5" ry="2.5" style="stroke:#181818;stroke-width:0.5;" width="106" x="458.5" y="42"/><ellipse cx="475.3" cy="58" fill="#ADD1B2" rx="11" ry="11" style="stroke:#181818;stroke-width:1.0;"/><path d="M478.0656,53.875 Q478.2219,53.6563 478.4094,53.5469 Q478.5969,53.4375 478.8156,53.4375 Q479.1906,53.4375 479.425,53.7031 Q479.6594,53.9531 479.6594,54.5625 L479.6594,56.0156 Q479.6594,56.625 479.425,56.8906 Q479.1906,57.1563 478.8156,57.1563 Q478.4719,57.1563 478.2688,56.9531 Q478.0656,56.7656 477.9563,56.25 Q477.9094,55.8906 477.7219,55.7031 Q477.3938,55.3281 476.7844,55.1094 Q476.175,54.8906 475.55,54.8906 Q474.7844,54.8906 474.1438,55.2188 Q473.5188,55.5469 473.0188,56.2969 Q472.5344,57.0469 472.5344,58.0781 L472.5344,59.1719 Q472.5344,60.4063 473.425,61.2344 Q474.3156,62.0469 475.9094,62.0469 Q476.8469,62.0469 477.5031,61.7969 Q477.8938,61.6406 478.3156,61.2031 Q478.5813,60.9375 478.7219,60.8594 Q478.8781,60.7813 479.0813,60.7813 Q479.4094,60.7813 479.6594,61.0469 Q479.925,61.2969 479.925,61.6406 Q479.925,61.9844 479.5813,62.3906 Q479.0813,62.9688 478.2844,63.2969 Q477.2063,63.75 475.9094,63.75 Q474.3938,63.75 473.1906,63.125 Q472.2063,62.625 471.5188,61.5625 Q470.8313,60.4844 470.8313,59.2031 L470.8313,58.0469 Q470.8313,56.7188 471.4406,55.5781 Q472.0656,54.4219 473.1594,53.8125 Q474.2531,53.1875 475.4875,53.1875 Q476.2219,53.1875 476.8625,53.3594 Q477.5188,53.5156 478.0656,53.875 Z " fill="#000000"/><text fill="#000000" font-family="sans-serif" font-size="14" lengthAdjust="spacing" textLength="70" x="489.7" y="63.7285">Carracosta</text><line style="stroke:#181818;stroke-width:0.5;" x1="459.5" x2="563.5" y1="74" y2="74"/><text fill="#000000" font-family="sans-serif" font-size="14" lengthAdjust="spacing" textLength="80" x="464.5" y="92.5332">name: String</text><text fill="#000000" font-family="sans-serif" font-size="14" lengthAdjust="spacing" textLength="52" x="464.5" y="110.1426">level: int</text><line style="stroke:#181818;stroke-width:0.5;" x1="459.5" x2="563.5" y1="117.2188" y2="117.2188"/><ellipse cx="469.5" cy="131.5234" fill="#84BE84" rx="3" ry="3" style="stroke:#038048;stroke-width:1.0;"/><text fill="#000000" font-family="sans-serif" font-size="14" lengthAdjust="spacing" textLength="80" x="478.5" y="135.752">Carracosta()</text></g><!--class Budew--><g id="elem_Budew"><rect codeLine="25" fill="#F1F1F1" height="100.8281" id="Budew" rx="2.5" ry="2.5" style="stroke:#181818;stroke-width:0.5;" width="92" x="458.5" y="364"/><ellipse cx="481.6" cy="380" fill="#ADD1B2" rx="11" ry="11" style="stroke:#181818;stroke-width:1.0;"/><path d="M484.3656,375.875 Q484.5219,375.6563 484.7094,375.5469 Q484.8969,375.4375 485.1156,375.4375 Q485.4906,375.4375 485.725,375.7031 Q485.9594,375.9531 485.9594,376.5625 L485.9594,378.0156 Q485.9594,378.625 485.725,378.8906 Q485.4906,379.1563 485.1156,379.1563 Q484.7719,379.1563 484.5688,378.9531 Q484.3656,378.7656 484.2563,378.25 Q484.2094,377.8906 484.0219,377.7031 Q483.6938,377.3281 483.0844,377.1094 Q482.475,376.8906 481.85,376.8906 Q481.0844,376.8906 480.4438,377.2188 Q479.8188,377.5469 479.3188,378.2969 Q478.8344,379.0469 478.8344,380.0781 L478.8344,381.1719 Q478.8344,382.4063 479.725,383.2344 Q480.6156,384.0469 482.2094,384.0469 Q483.1469,384.0469 483.8031,383.7969 Q484.1938,383.6406 484.6156,383.2031 Q484.8813,382.9375 485.0219,382.8594 Q485.1781,382.7813 485.3813,382.7813 Q485.7094,382.7813 485.9594,383.0469 Q486.225,383.2969 486.225,383.6406 Q486.225,383.9844 485.8813,384.3906 Q485.3813,384.9688 484.5844,385.2969 Q483.5063,385.75 482.2094,385.75 Q480.6938,385.75 479.4906,385.125 Q478.5063,384.625 477.8188,383.5625 Q477.1313,382.4844 477.1313,381.2031 L477.1313,380.0469 Q477.1313,378.7188 477.7406,377.5781 Q478.3656,376.4219 479.4594,375.8125 Q480.5531,375.1875 481.7875,375.1875 Q482.5219,375.1875 483.1625,375.3594 Q483.8188,375.5156 484.3656,375.875 Z " fill="#000000"/><text fill="#000000" font-family="sans-serif" font-size="14" lengthAdjust="spacing" textLength="42" x="497.4" y="385.7285">Budew</text><line style="stroke:#181818;stroke-width:0.5;" x1="459.5" x2="549.5" y1="396" y2="396"/><text fill="#000000" font-family="sans-serif" font-size="14" lengthAdjust="spacing" textLength="80" x="464.5" y="414.5332">name: String</text><text fill="#000000" font-family="sans-serif" font-size="14" lengthAdjust="spacing" textLength="52" x="464.5" y="432.1426">level: int</text><line style="stroke:#181818;stroke-width:0.5;" x1="459.5" x2="549.5" y1="439.2188" y2="439.2188"/><ellipse cx="469.5" cy="453.5234" fill="#84BE84" rx="3" ry="3" style="stroke:#038048;stroke-width:1.0;"/><text fill="#000000" font-family="sans-serif" font-size="14" lengthAdjust="spacing" textLength="52" x="478.5" y="457.752">Budew()</text></g><!--class Roselia--><g id="elem_Roselia"><rect codeLine="31" fill="#F1F1F1" height="100.8281" id="Roselia" rx="2.5" ry="2.5" style="stroke:#181818;stroke-width:0.5;" width="92" x="600.5" y="203"/><ellipse cx="621.35" cy="219" fill="#ADD1B2" rx="11" ry="11" style="stroke:#181818;stroke-width:1.0;"/><path d="M624.1156,214.875 Q624.2719,214.6563 624.4594,214.5469 Q624.6469,214.4375 624.8656,214.4375 Q625.2406,214.4375 625.475,214.7031 Q625.7094,214.9531 625.7094,215.5625 L625.7094,217.0156 Q625.7094,217.625 625.475,217.8906 Q625.2406,218.1563 624.8656,218.1563 Q624.5219,218.1563 624.3188,217.9531 Q624.1156,217.7656 624.0063,217.25 Q623.9594,216.8906 623.7719,216.7031 Q623.4438,216.3281 622.8344,216.1094 Q622.225,215.8906 621.6,215.8906 Q620.8344,215.8906 620.1938,216.2188 Q619.5688,216.5469 619.0688,217.2969 Q618.5844,218.0469 618.5844,219.0781 L618.5844,220.1719 Q618.5844,221.4063 619.475,222.2344 Q620.3656,223.0469 621.9594,223.0469 Q622.8969,223.0469 623.5531,222.7969 Q623.9438,222.6406 624.3656,222.2031 Q624.6313,221.9375 624.7719,221.8594 Q624.9281,221.7813 625.1313,221.7813 Q625.4594,221.7813 625.7094,222.0469 Q625.975,222.2969 625.975,222.6406 Q625.975,222.9844 625.6313,223.3906 Q625.1313,223.9688 624.3344,224.2969 Q623.2563,224.75 621.9594,224.75 Q620.4438,224.75 619.2406,224.125 Q618.2563,223.625 617.5688,222.5625 Q616.8813,221.4844 616.8813,220.2031 L616.8813,219.0469 Q616.8813,217.7188 617.4906,216.5781 Q618.1156,215.4219 619.2094,214.8125 Q620.3031,214.1875 621.5375,214.1875 Q622.2719,214.1875 622.9125,214.3594 Q623.5688,214.5156 624.1156,214.875 Z " fill="#000000"/><text fill="#000000" font-family="sans-serif" font-size="14" lengthAdjust="spacing" textLength="47" x="636.65" y="224.7285">Roselia</text><line style="stroke:#181818;stroke-width:0.5;" x1="601.5" x2="691.5" y1="235" y2="235"/><text fill="#000000" font-family="sans-serif" font-size="14" lengthAdjust="spacing" textLength="80" x="606.5" y="253.5332">name: String</text><text fill="#000000" font-family="sans-serif" font-size="14" lengthAdjust="spacing" textLength="52" x="606.5" y="271.1426">level: int</text><line style="stroke:#181818;stroke-width:0.5;" x1="601.5" x2="691.5" y1="278.2188" y2="278.2188"/><ellipse cx="611.5" cy="292.5234" fill="#84BE84" rx="3" ry="3" style="stroke:#038048;stroke-width:1.0;"/><text fill="#000000" font-family="sans-serif" font-size="14" lengthAdjust="spacing" textLength="57" x="620.5" y="296.752">Roselia()</text></g><!--class Roserade--><g id="elem_Roserade"><rect codeLine="37" fill="#F1F1F1" height="100.8281" id="Roserade" rx="2.5" ry="2.5" style="stroke:#181818;stroke-width:0.5;" width="98" x="726.5" y="42"/><ellipse cx="743.3" cy="58" fill="#ADD1B2" rx="11" ry="11" style="stroke:#181818;stroke-width:1.0;"/><path d="M746.0656,53.875 Q746.2219,53.6563 746.4094,53.5469 Q746.5969,53.4375 746.8156,53.4375 Q747.1906,53.4375 747.425,53.7031 Q747.6594,53.9531 747.6594,54.5625 L747.6594,56.0156 Q747.6594,56.625 747.425,56.8906 Q747.1906,57.1563 746.8156,57.1563 Q746.4719,57.1563 746.2688,56.9531 Q746.0656,56.7656 745.9563,56.25 Q745.9094,55.8906 745.7219,55.7031 Q745.3938,55.3281 744.7844,55.1094 Q744.175,54.8906 743.55,54.8906 Q742.7844,54.8906 742.1438,55.2188 Q741.5188,55.5469 741.0188,56.2969 Q740.5344,57.0469 740.5344,58.0781 L740.5344,59.1719 Q740.5344,60.4063 741.425,61.2344 Q742.3156,62.0469 743.9094,62.0469 Q744.8469,62.0469 745.5031,61.7969 Q745.8938,61.6406 746.3156,61.2031 Q746.5813,60.9375 746.7219,60.8594 Q746.8781,60.7813 747.0813,60.7813 Q747.4094,60.7813 747.6594,61.0469 Q747.925,61.2969 747.925,61.6406 Q747.925,61.9844 747.5813,62.3906 Q747.0813,62.9688 746.2844,63.2969 Q745.2063,63.75 743.9094,63.75 Q742.3938,63.75 741.1906,63.125 Q740.2063,62.625 739.5188,61.5625 Q738.8313,60.4844 738.8313,59.2031 L738.8313,58.0469 Q738.8313,56.7188 739.4406,55.5781 Q740.0656,54.4219 741.1594,53.8125 Q742.2531,53.1875 743.4875,53.1875 Q744.2219,53.1875 744.8625,53.3594 Q745.5188,53.5156 746.0656,53.875 Z " fill="#000000"/><text fill="#000000" font-family="sans-serif" font-size="14" lengthAdjust="spacing" textLength="62" x="757.7" y="63.7285">Roserade</text><line style="stroke:#181818;stroke-width:0.5;" x1="727.5" x2="823.5" y1="74" y2="74"/><text fill="#000000" font-family="sans-serif" font-size="14" lengthAdjust="spacing" textLength="80" x="732.5" y="92.5332">name: String</text><text fill="#000000" font-family="sans-serif" font-size="14" lengthAdjust="spacing" textLength="52" x="732.5" y="110.1426">level: int</text><line style="stroke:#181818;stroke-width:0.5;" x1="727.5" x2="823.5" y1="117.2188" y2="117.2188"/><ellipse cx="737.5" cy="131.5234" fill="#84BE84" rx="3" ry="3" style="stroke:#038048;stroke-width:1.0;"/><text fill="#000000" font-family="sans-serif" font-size="14" lengthAdjust="spacing" textLength="72" x="746.5" y="135.752">Roserade()</text></g><!--class DragonPulse--><g id="elem_DragonPulse"><rect codeLine="52" fill="#F1F1F1" height="136.0469" id="DragonPulse" rx="2.5" ry="2.5" style="stroke:#181818;stroke-width:0.5;" width="135" x="1854" y="602.5"/><ellipse cx="1878.45" cy="618.5" fill="#ADD1B2" rx="11" ry="11" style="stroke:#181818;stroke-width:1.0;"/><path d="M1881.2156,614.375 Q1881.3719,614.1563 1881.5594,614.0469 Q1881.7469,613.9375 1881.9656,613.9375 Q1882.3406,613.9375 1882.575,614.2031 Q1882.8094,614.4531 1882.8094,615.0625 L1882.8094,616.5156 Q1882.8094,617.125 1882.575,617.3906 Q1882.3406,617.6563 1881.9656,617.6563 Q1881.6219,617.6563 1881.4188,617.4531 Q1881.2156,617.2656 1881.1063,616.75 Q1881.0594,616.3906 1880.8719,616.2031 Q1880.5438,615.8281 1879.9344,615.6094 Q1879.325,615.3906 1878.7,615.3906 Q1877.9344,615.3906 1877.2938,615.7188 Q1876.6688,616.0469 1876.1688,616.7969 Q1875.6844,617.5469 1875.6844,618.5781 L1875.6844,619.6719 Q1875.6844,620.9063 1876.575,621.7344 Q1877.4656,622.5469 1879.0594,622.5469 Q1879.9969,622.5469 1880.6531,622.2969 Q1881.0438,622.1406 1881.4656,621.7031 Q1881.7313,621.4375 1881.8719,621.3594 Q1882.0281,621.2813 1882.2313,621.2813 Q1882.5594,621.2813 1882.8094,621.5469 Q1883.075,621.7969 1883.075,622.1406 Q1883.075,622.4844 1882.7313,622.8906 Q1882.2313,623.4688 1881.4344,623.7969 Q1880.3563,624.25 1879.0594,624.25 Q1877.5438,624.25 1876.3406,623.625 Q1875.3563,623.125 1874.6688,622.0625 Q1873.9813,620.9844 1873.9813,619.7031 L1873.9813,618.5469 Q1873.9813,617.2188 1874.5906,616.0781 Q1875.2156,614.9219 1876.3094,614.3125 Q1877.4031,613.6875 1878.6375,613.6875 Q1879.3719,613.6875 1880.0125,613.8594 Q1880.6688,614.0156 1881.2156,614.375 Z " fill="#000000"/><text fill="#000000" font-family="sans-serif" font-size="14" lengthAdjust="spacing" textLength="82" x="1894.55" y="624.2285">DragonPulse</text><line style="stroke:#181818;stroke-width:0.5;" x1="1855" x2="1988" y1="634.5" y2="634.5"/><text fill="#000000" font-family="sans-serif" font-size="14" lengthAdjust="spacing" textLength="67" x="1860" y="653.0332">type: Type</text><text fill="#000000" font-family="sans-serif" font-size="14" lengthAdjust="spacing" textLength="76" x="1860" y="670.6426">pow: double</text><text fill="#000000" font-family="sans-serif" font-size="14" lengthAdjust="spacing" textLength="73" x="1860" y="688.252">acc: double</text><line style="stroke:#181818;stroke-width:0.5;" x1="1855" x2="1988" y1="695.3281" y2="695.3281"/><ellipse cx="1865" cy="709.6328" fill="#84BE84" rx="3" ry="3" style="stroke:#038048;stroke-width:1.0;"/><text fill="#000000" font-family="sans-serif" font-size="14" lengthAdjust="spacing" textLength="92" x="1874" y="713.8613">DragonPulse()</text><polygon fill="#FFFF44" points="1865,722.2422,1869,726.2422,1865,730.2422,1861,726.2422" style="stroke:#B38D22;stroke-width:1.0;"/><text fill="#000000" font-family="sans-serif" font-size="14" lengthAdjust="spacing" textLength="109" x="1874" y="731.4707">describe(): String</text></g><!--class DracoMeteor--><g id="elem_DracoMeteor"><rect codeLine="59" fill="#F1F1F1" height="153.6563" id="DracoMeteor" rx="2.5" ry="2.5" style="stroke:#181818;stroke-width:0.5;" width="171" x="2024" y="593.5"/><ellipse cx="2064.65" cy="609.5" fill="#ADD1B2" rx="11" ry="11" style="stroke:#181818;stroke-width:1.0;"/><path d="M2067.4156,605.375 Q2067.5719,605.1563 2067.7594,605.0469 Q2067.9469,604.9375 2068.1656,604.9375 Q2068.5406,604.9375 2068.775,605.2031 Q2069.0094,605.4531 2069.0094,606.0625 L2069.0094,607.5156 Q2069.0094,608.125 2068.775,608.3906 Q2068.5406,608.6563 2068.1656,608.6563 Q2067.8219,608.6563 2067.6188,608.4531 Q2067.4156,608.2656 2067.3063,607.75 Q2067.2594,607.3906 2067.0719,607.2031 Q2066.7438,606.8281 2066.1344,606.6094 Q2065.525,606.3906 2064.9,606.3906 Q2064.1344,606.3906 2063.4938,606.7188 Q2062.8688,607.0469 2062.3688,607.7969 Q2061.8844,608.5469 2061.8844,609.5781 L2061.8844,610.6719 Q2061.8844,611.9063 2062.775,612.7344 Q2063.6656,613.5469 2065.2594,613.5469 Q2066.1969,613.5469 2066.8531,613.2969 Q2067.2438,613.1406 2067.6656,612.7031 Q2067.9313,612.4375 2068.0719,612.3594 Q2068.2281,612.2813 2068.4313,612.2813 Q2068.7594,612.2813 2069.0094,612.5469 Q2069.275,612.7969 2069.275,613.1406 Q2069.275,613.4844 2068.9313,613.8906 Q2068.4313,614.4688 2067.6344,614.7969 Q2066.5563,615.25 2065.2594,615.25 Q2063.7438,615.25 2062.5406,614.625 Q2061.5563,614.125 2060.8688,613.0625 Q2060.1813,611.9844 2060.1813,610.7031 L2060.1813,609.5469 Q2060.1813,608.2188 2060.7906,607.0781 Q2061.4156,605.9219 2062.5094,605.3125 Q2063.6031,604.6875 2064.8375,604.6875 Q2065.5719,604.6875 2066.2125,604.8594 Q2066.8688,605.0156 2067.4156,605.375 Z " fill="#000000"/><text fill="#000000" font-family="sans-serif" font-size="14" lengthAdjust="spacing" textLength="82" x="2084.35" y="615.2285">DracoMeteor</text><line style="stroke:#181818;stroke-width:0.5;" x1="2025" x2="2194" y1="625.5" y2="625.5"/><text fill="#000000" font-family="sans-serif" font-size="14" lengthAdjust="spacing" textLength="67" x="2030" y="644.0332">type: Type</text><text fill="#000000" font-family="sans-serif" font-size="14" lengthAdjust="spacing" textLength="76" x="2030" y="661.6426">pow: double</text><text fill="#000000" font-family="sans-serif" font-size="14" lengthAdjust="spacing" textLength="73" x="2030" y="679.252">acc: double</text><line style="stroke:#181818;stroke-width:0.5;" x1="2025" x2="2194" y1="686.3281" y2="686.3281"/><ellipse cx="2035" cy="700.6328" fill="#84BE84" rx="3" ry="3" style="stroke:#038048;stroke-width:1.0;"/><text fill="#000000" font-family="sans-serif" font-size="14" lengthAdjust="spacing" textLength="92" x="2044" y="704.8613">DracoMeteor()</text><polygon fill="#FFFF44" points="2035,713.2422,2039,717.2422,2035,721.2422,2031,717.2422" style="stroke:#B38D22;stroke-width:1.0;"/><text fill="#000000" font-family="sans-serif" font-size="14" lengthAdjust="spacing" textLength="145" x="2044" y="722.4707">applySelfEffects(): void</text><polygon fill="#FFFF44" points="2035,730.8516,2039,734.8516,2035,738.8516,2031,734.8516" style="stroke:#B38D22;stroke-width:1.0;"/><text fill="#000000" font-family="sans-serif" font-size="14" lengthAdjust="spacing" textLength="109" x="2044" y="740.0801">describe(): String</text></g><!--class Bulldoze--><g id="elem_Bulldoze"><rect codeLine="67" fill="#F1F1F1" height="153.6563" id="Bulldoze" rx="2.5" ry="2.5" style="stroke:#181818;stroke-width:0.5;" width="174" x="1013.5" y="593.5"/><ellipse cx="1069.75" cy="609.5" fill="#ADD1B2" rx="11" ry="11" style="stroke:#181818;stroke-width:1.0;"/><path d="M1072.5156,605.375 Q1072.6719,605.1563 1072.8594,605.0469 Q1073.0469,604.9375 1073.2656,604.9375 Q1073.6406,604.9375 1073.875,605.2031 Q1074.1094,605.4531 1074.1094,606.0625 L1074.1094,607.5156 Q1074.1094,608.125 1073.875,608.3906 Q1073.6406,608.6563 1073.2656,608.6563 Q1072.9219,608.6563 1072.7188,608.4531 Q1072.5156,608.2656 1072.4063,607.75 Q1072.3594,607.3906 1072.1719,607.2031 Q1071.8438,606.8281 1071.2344,606.6094 Q1070.625,606.3906 1070,606.3906 Q1069.2344,606.3906 1068.5938,606.7188 Q1067.9688,607.0469 1067.4688,607.7969 Q1066.9844,608.5469 1066.9844,609.5781 L1066.9844,610.6719 Q1066.9844,611.9063 1067.875,612.7344 Q1068.7656,613.5469 1070.3594,613.5469 Q1071.2969,613.5469 1071.9531,613.2969 Q1072.3438,613.1406 1072.7656,612.7031 Q1073.0313,612.4375 1073.1719,612.3594 Q1073.3281,612.2813 1073.5313,612.2813 Q1073.8594,612.2813 1074.1094,612.5469 Q1074.375,612.7969 1074.375,613.1406 Q1074.375,613.4844 1074.0313,613.8906 Q1073.5313,614.4688 1072.7344,614.7969 Q1071.6563,615.25 1070.3594,615.25 Q1068.8438,615.25 1067.6406,614.625 Q1066.6563,614.125 1065.9688,613.0625 Q1065.2813,611.9844 1065.2813,610.7031 L1065.2813,609.5469 Q1065.2813,608.2188 1065.8906,607.0781 Q1066.5156,605.9219 1067.6094,605.3125 Q1068.7031,604.6875 1069.9375,604.6875 Q1070.6719,604.6875 1071.3125,604.8594 Q1071.9688,605.0156 1072.5156,605.375 Z " fill="#000000"/><text fill="#000000" font-family="sans-serif" font-size="14" lengthAdjust="spacing" textLength="53" x="1090.25" y="615.2285">Bulldoze</text><line style="stroke:#181818;stroke-width:0.5;" x1="1014.5" x2="1186.5" y1="625.5" y2="625.5"/><text fill="#000000" font-family="sans-serif" font-size="14" lengthAdjust="spacing" textLength="67" x="1019.5" y="644.0332">type: Type</text><text fill="#000000" font-family="sans-serif" font-size="14" lengthAdjust="spacing" textLength="76" x="1019.5" y="661.6426">pow: double</text><text fill="#000000" font-family="sans-serif" font-size="14" lengthAdjust="spacing" textLength="73" x="1019.5" y="679.252">acc: double</text><line style="stroke:#181818;stroke-width:0.5;" x1="1014.5" x2="1186.5" y1="686.3281" y2="686.3281"/><ellipse cx="1024.5" cy="700.6328" fill="#84BE84" rx="3" ry="3" style="stroke:#038048;stroke-width:1.0;"/><text fill="#000000" font-family="sans-serif" font-size="14" lengthAdjust="spacing" textLength="63" x="1033.5" y="704.8613">Bulldoze()</text><polygon fill="#FFFF44" points="1024.5,713.2422,1028.5,717.2422,1024.5,721.2422,1020.5,717.2422" style="stroke:#B38D22;stroke-width:1.0;"/><text fill="#000000" font-family="sans-serif" font-size="14" lengthAdjust="spacing" textLength="148" x="1033.5" y="722.4707">applyOppEffects(): void</text><polygon fill="#FFFF44" points="1024.5,730.8516,1028.5,734.8516,1024.5,738.8516,1020.5,734.8516" style="stroke:#B38D22;stroke-width:1.0;"/><text fill="#000000" font-family="sans-serif" font-size="14" lengthAdjust="spacing" textLength="109" x="1033.5" y="740.0801">describe(): String</text></g><!--class CalmMind--><g id="elem_CalmMind"><rect codeLine="75" fill="#F1F1F1" height="153.6563" id="CalmMind" rx="2.5" ry="2.5" style="stroke:#181818;stroke-width:0.5;" width="171" x="1432" y="593.5"/><ellipse cx="1482.25" cy="609.5" fill="#ADD1B2" rx="11" ry="11" style="stroke:#181818;stroke-width:1.0;"/><path d="M1485.0156,605.375 Q1485.1719,605.1563 1485.3594,605.0469 Q1485.5469,604.9375 1485.7656,604.9375 Q1486.1406,604.9375 1486.375,605.2031 Q1486.6094,605.4531 1486.6094,606.0625 L1486.6094,607.5156 Q1486.6094,608.125 1486.375,608.3906 Q1486.1406,608.6563 1485.7656,608.6563 Q1485.4219,608.6563 1485.2188,608.4531 Q1485.0156,608.2656 1484.9063,607.75 Q1484.8594,607.3906 1484.6719,607.2031 Q1484.3438,606.8281 1483.7344,606.6094 Q1483.125,606.3906 1482.5,606.3906 Q1481.7344,606.3906 1481.0938,606.7188 Q1480.4688,607.0469 1479.9688,607.7969 Q1479.4844,608.5469 1479.4844,609.5781 L1479.4844,610.6719 Q1479.4844,611.9063 1480.375,612.7344 Q1481.2656,613.5469 1482.8594,613.5469 Q1483.7969,613.5469 1484.4531,613.2969 Q1484.8438,613.1406 1485.2656,612.7031 Q1485.5313,612.4375 1485.6719,612.3594 Q1485.8281,612.2813 1486.0313,612.2813 Q1486.3594,612.2813 1486.6094,612.5469 Q1486.875,612.7969 1486.875,613.1406 Q1486.875,613.4844 1486.5313,613.8906 Q1486.0313,614.4688 1485.2344,614.7969 Q1484.1563,615.25 1482.8594,615.25 Q1481.3438,615.25 1480.1406,614.625 Q1479.1563,614.125 1478.4688,613.0625 Q1477.7813,611.9844 1477.7813,610.7031 L1477.7813,609.5469 Q1477.7813,608.2188 1478.3906,607.0781 Q1479.0156,605.9219 1480.1094,605.3125 Q1481.2031,604.6875 1482.4375,604.6875 Q1483.1719,604.6875 1483.8125,604.8594 Q1484.4688,605.0156 1485.0156,605.375 Z " fill="#000000"/><text fill="#000000" font-family="sans-serif" font-size="14" lengthAdjust="spacing" textLength="62" x="1502.75" y="615.2285">CalmMind</text><line style="stroke:#181818;stroke-width:0.5;" x1="1433" x2="1602" y1="625.5" y2="625.5"/><text fill="#000000" font-family="sans-serif" font-size="14" lengthAdjust="spacing" textLength="67" x="1438" y="644.0332">type: Type</text><text fill="#000000" font-family="sans-serif" font-size="14" lengthAdjust="spacing" textLength="76" x="1438" y="661.6426">pow: double</text><text fill="#000000" font-family="sans-serif" font-size="14" lengthAdjust="spacing" textLength="73" x="1438" y="679.252">acc: double</text><line style="stroke:#181818;stroke-width:0.5;" x1="1433" x2="1602" y1="686.3281" y2="686.3281"/><ellipse cx="1443" cy="700.6328" fill="#84BE84" rx="3" ry="3" style="stroke:#038048;stroke-width:1.0;"/><text fill="#000000" font-family="sans-serif" font-size="14" lengthAdjust="spacing" textLength="72" x="1452" y="704.8613">CalmMind()</text><polygon fill="#FFFF44" points="1443,713.2422,1447,717.2422,1443,721.2422,1439,717.2422" style="stroke:#B38D22;stroke-width:1.0;"/><text fill="#000000" font-family="sans-serif" font-size="14" lengthAdjust="spacing" textLength="145" x="1452" y="722.4707">applySelfEffects(): void</text><polygon fill="#FFFF44" points="1443,730.8516,1447,734.8516,1443,738.8516,1439,734.8516" style="stroke:#B38D22;stroke-width:1.0;"/><text fill="#000000" font-family="sans-serif" font-size="14" lengthAdjust="spacing" textLength="109" x="1452" y="740.0801">describe(): String</text></g><!--class AquaJet--><g id="elem_AquaJet"><rect codeLine="83" fill="#F1F1F1" height="136.0469" id="AquaJet" rx="2.5" ry="2.5" style="stroke:#181818;stroke-width:0.5;" width="135" x="634" y="602.5"/><ellipse cx="672.4" cy="618.5" fill="#ADD1B2" rx="11" ry="11" style="stroke:#181818;stroke-width:1.0;"/><path d="M675.1656,614.375 Q675.3219,614.1563 675.5094,614.0469 Q675.6969,613.9375 675.9156,613.9375 Q676.2906,613.9375 676.525,614.2031 Q676.7594,614.4531 676.7594,615.0625 L676.7594,616.5156 Q676.7594,617.125 676.525,617.3906 Q676.2906,617.6563 675.9156,617.6563 Q675.5719,617.6563 675.3688,617.4531 Q675.1656,617.2656 675.0563,616.75 Q675.0094,616.3906 674.8219,616.2031 Q674.4938,615.8281 673.8844,615.6094 Q673.275,615.3906 672.65,615.3906 Q671.8844,615.3906 671.2438,615.7188 Q670.6188,616.0469 670.1188,616.7969 Q669.6344,617.5469 669.6344,618.5781 L669.6344,619.6719 Q669.6344,620.9063 670.525,621.7344 Q671.4156,622.5469 673.0094,622.5469 Q673.9469,622.5469 674.6031,622.2969 Q674.9938,622.1406 675.4156,621.7031 Q675.6813,621.4375 675.8219,621.3594 Q675.9781,621.2813 676.1813,621.2813 Q676.5094,621.2813 676.7594,621.5469 Q677.025,621.7969 677.025,622.1406 Q677.025,622.4844 676.6813,622.8906 Q676.1813,623.4688 675.3844,623.7969 Q674.3063,624.25 673.0094,624.25 Q671.4938,624.25 670.2906,623.625 Q669.3063,623.125 668.6188,622.0625 Q667.9313,620.9844 667.9313,619.7031 L667.9313,618.5469 Q667.9313,617.2188 668.5406,616.0781 Q669.1656,614.9219 670.2594,614.3125 Q671.3531,613.6875 672.5875,613.6875 Q673.3219,613.6875 673.9625,613.8594 Q674.6188,614.0156 675.1656,614.375 Z " fill="#000000"/><text fill="#000000" font-family="sans-serif" font-size="14" lengthAdjust="spacing" textLength="51" x="691.6" y="624.2285">AquaJet</text><line style="stroke:#181818;stroke-width:0.5;" x1="635" x2="768" y1="634.5" y2="634.5"/><text fill="#000000" font-family="sans-serif" font-size="14" lengthAdjust="spacing" textLength="67" x="640" y="653.0332">type: Type</text><text fill="#000000" font-family="sans-serif" font-size="14" lengthAdjust="spacing" textLength="76" x="640" y="670.6426">pow: double</text><text fill="#000000" font-family="sans-serif" font-size="14" lengthAdjust="spacing" textLength="73" x="640" y="688.252">acc: double</text><line style="stroke:#181818;stroke-width:0.5;" x1="635" x2="768" y1="695.3281" y2="695.3281"/><ellipse cx="645" cy="709.6328" fill="#84BE84" rx="3" ry="3" style="stroke:#038048;stroke-width:1.0;"/><text fill="#000000" font-family="sans-serif" font-size="14" lengthAdjust="spacing" textLength="61" x="654" y="713.8613">AquaJet()</text><polygon fill="#FFFF44" points="645,722.2422,649,726.2422,645,730.2422,641,726.2422" style="stroke:#B38D22;stroke-width:1.0;"/><text fill="#000000" font-family="sans-serif" font-size="14" lengthAdjust="spacing" textLength="109" x="654" y="731.4707">describe(): String</text></g><!--class RockTomb--><g id="elem_RockTomb"><rect codeLine="90" fill="#F1F1F1" height="153.6563" id="RockTomb" rx="2.5" ry="2.5" style="stroke:#181818;stroke-width:0.5;" width="174" x="215.5" y="593.5"/><ellipse cx="264.25" cy="609.5" fill="#ADD1B2" rx="11" ry="11" style="stroke:#181818;stroke-width:1.0;"/><path d="M267.0156,605.375 Q267.1719,605.1563 267.3594,605.0469 Q267.5469,604.9375 267.7656,604.9375 Q268.1406,604.9375 268.375,605.2031 Q268.6094,605.4531 268.6094,606.0625 L268.6094,607.5156 Q268.6094,608.125 268.375,608.3906 Q268.1406,608.6563 267.7656,608.6563 Q267.4219,608.6563 267.2188,608.4531 Q267.0156,608.2656 266.9063,607.75 Q266.8594,607.3906 266.6719,607.2031 Q266.3438,606.8281 265.7344,606.6094 Q265.125,606.3906 264.5,606.3906 Q263.7344,606.3906 263.0938,606.7188 Q262.4688,607.0469 261.9688,607.7969 Q261.4844,608.5469 261.4844,609.5781 L261.4844,610.6719 Q261.4844,611.9063 262.375,612.7344 Q263.2656,613.5469 264.8594,613.5469 Q265.7969,613.5469 266.4531,613.2969 Q266.8438,613.1406 267.2656,612.7031 Q267.5313,612.4375 267.6719,612.3594 Q267.8281,612.2813 268.0313,612.2813 Q268.3594,612.2813 268.6094,612.5469 Q268.875,612.7969 268.875,613.1406 Q268.875,613.4844 268.5313,613.8906 Q268.0313,614.4688 267.2344,614.7969 Q266.1563,615.25 264.8594,615.25 Q263.3438,615.25 262.1406,614.625 Q261.1563,614.125 260.4688,613.0625 Q259.7813,611.9844 259.7813,610.7031 L259.7813,609.5469 Q259.7813,608.2188 260.3906,607.0781 Q261.0156,605.9219 262.1094,605.3125 Q263.2031,604.6875 264.4375,604.6875 Q265.1719,604.6875 265.8125,604.8594 Q266.4688,605.0156 267.0156,605.375 Z " fill="#000000"/><text fill="#000000" font-family="sans-serif" font-size="14" lengthAdjust="spacing" textLength="68" x="284.75" y="615.2285">RockTomb</text><line style="stroke:#181818;stroke-width:0.5;" x1="216.5" x2="388.5" y1="625.5" y2="625.5"/><text fill="#000000" font-family="sans-serif" font-size="14" lengthAdjust="spacing" textLength="67" x="221.5" y="644.0332">type: Type</text><text fill="#000000" font-family="sans-serif" font-size="14" lengthAdjust="spacing" textLength="76" x="221.5" y="661.6426">pow: double</text><text fill="#000000" font-family="sans-serif" font-size="14" lengthAdjust="spacing" textLength="73" x="221.5" y="679.252">acc: double</text><line style="stroke:#181818;stroke-width:0.5;" x1="216.5" x2="388.5" y1="686.3281" y2="686.3281"/><ellipse cx="226.5" cy="700.6328" fill="#84BE84" rx="3" ry="3" style="stroke:#038048;stroke-width:1.0;"/><text fill="#000000" font-family="sans-serif" font-size="14" lengthAdjust="spacing" textLength="78" x="235.5" y="704.8613">RockTomb()</text><polygon fill="#FFFF44" points="226.5,713.2422,230.5,717.2422,226.5,721.2422,222.5,717.2422" style="stroke:#B38D22;stroke-width:1.0;"/><text fill="#000000" font-family="sans-serif" font-size="14" lengthAdjust="spacing" textLength="148" x="235.5" y="722.4707">applyOppEffects(): void</text><polygon fill="#FFFF44" points="226.5,730.8516,230.5,734.8516,226.5,738.8516,222.5,734.8516" style="stroke:#B38D22;stroke-width:1.0;"/><text fill="#000000" font-family="sans-serif" font-size="14" lengthAdjust="spacing" textLength="109" x="235.5" y="740.0801">describe(): String</text></g><!--class RockSlide--><g id="elem_RockSlide"><rect codeLine="98" fill="#F1F1F1" height="153.6563" id="RockSlide" rx="2.5" ry="2.5" style="stroke:#181818;stroke-width:0.5;" width="174" x="424.5" y="593.5"/><ellipse cx="475.75" cy="609.5" fill="#ADD1B2" rx="11" ry="11" style="stroke:#181818;stroke-width:1.0;"/><path d="M478.5156,605.375 Q478.6719,605.1563 478.8594,605.0469 Q479.0469,604.9375 479.2656,604.9375 Q479.6406,604.9375 479.875,605.2031 Q480.1094,605.4531 480.1094,606.0625 L480.1094,607.5156 Q480.1094,608.125 479.875,608.3906 Q479.6406,608.6563 479.2656,608.6563 Q478.9219,608.6563 478.7188,608.4531 Q478.5156,608.2656 478.4063,607.75 Q478.3594,607.3906 478.1719,607.2031 Q477.8438,606.8281 477.2344,606.6094 Q476.625,606.3906 476,606.3906 Q475.2344,606.3906 474.5938,606.7188 Q473.9688,607.0469 473.4688,607.7969 Q472.9844,608.5469 472.9844,609.5781 L472.9844,610.6719 Q472.9844,611.9063 473.875,612.7344 Q474.7656,613.5469 476.3594,613.5469 Q477.2969,613.5469 477.9531,613.2969 Q478.3438,613.1406 478.7656,612.7031 Q479.0313,612.4375 479.1719,612.3594 Q479.3281,612.2813 479.5313,612.2813 Q479.8594,612.2813 480.1094,612.5469 Q480.375,612.7969 480.375,613.1406 Q480.375,613.4844 480.0313,613.8906 Q479.5313,614.4688 478.7344,614.7969 Q477.6563,615.25 476.3594,615.25 Q474.8438,615.25 473.6406,614.625 Q472.6563,614.125 471.9688,613.0625 Q471.2813,611.9844 471.2813,610.7031 L471.2813,609.5469 Q471.2813,608.2188 471.8906,607.0781 Q472.5156,605.9219 473.6094,605.3125 Q474.7031,604.6875 475.9375,604.6875 Q476.6719,604.6875 477.3125,604.8594 Q477.9688,605.0156 478.5156,605.375 Z " fill="#000000"/><text fill="#000000" font-family="sans-serif" font-size="14" lengthAdjust="spacing" textLength="63" x="496.25" y="615.2285">RockSlide</text><line style="stroke:#181818;stroke-width:0.5;" x1="425.5" x2="597.5" y1="625.5" y2="625.5"/><text fill="#000000" font-family="sans-serif" font-size="14" lengthAdjust="spacing" textLength="67" x="430.5" y="644.0332">type: Type</text><text fill="#000000" font-family="sans-serif" font-size="14" lengthAdjust="spacing" textLength="76" x="430.5" y="661.6426">pow: double</text><text fill="#000000" font-family="sans-serif" font-size="14" lengthAdjust="spacing" textLength="73" x="430.5" y="679.252">acc: double</text><line style="stroke:#181818;stroke-width:0.5;" x1="425.5" x2="597.5" y1="686.3281" y2="686.3281"/><ellipse cx="435.5" cy="700.6328" fill="#84BE84" rx="3" ry="3" style="stroke:#038048;stroke-width:1.0;"/><text fill="#000000" font-family="sans-serif" font-size="14" lengthAdjust="spacing" textLength="73" x="444.5" y="704.8613">RockSlide()</text><polygon fill="#FFFF44" points="435.5,713.2422,439.5,717.2422,435.5,721.2422,431.5,717.2422" style="stroke:#B38D22;stroke-width:1.0;"/><text fill="#000000" font-family="sans-serif" font-size="14" lengthAdjust="spacing" textLength="148" x="444.5" y="722.4707">applyOppEffects(): void</text><polygon fill="#FFFF44" points="435.5,730.8516,439.5,734.8516,435.5,738.8516,431.5,734.8516" style="stroke:#B38D22;stroke-width:1.0;"/><text fill="#000000" font-family="sans-serif" font-size="14" lengthAdjust="spacing" textLength="109" x="444.5" y="740.0801">describe(): String</text></g><!--class FocusBlast--><g id="elem_FocusBlast"><rect codeLine="114" fill="#F1F1F1" height="259.3125" id="FocusBlast" rx="2.5" ry="2.5" style="stroke:#181818;stroke-width:0.5;" width="174" x="804.5" y="541"/><ellipse cx="852.25" cy="557" fill="#ADD1B2" rx="11" ry="11" style="stroke:#181818;stroke-width:1.0;"/><path d="M855.0156,552.875 Q855.1719,552.6563 855.3594,552.5469 Q855.5469,552.4375 855.7656,552.4375 Q856.1406,552.4375 856.375,552.7031 Q856.6094,552.9531 856.6094,553.5625 L856.6094,555.0156 Q856.6094,555.625 856.375,555.8906 Q856.1406,556.1563 855.7656,556.1563 Q855.4219,556.1563 855.2188,555.9531 Q855.0156,555.7656 854.9063,555.25 Q854.8594,554.8906 854.6719,554.7031 Q854.3438,554.3281 853.7344,554.1094 Q853.125,553.8906 852.5,553.8906 Q851.7344,553.8906 851.0938,554.2188 Q850.4688,554.5469 849.9688,555.2969 Q849.4844,556.0469 849.4844,557.0781 L849.4844,558.1719 Q849.4844,559.4063 850.375,560.2344 Q851.2656,561.0469 852.8594,561.0469 Q853.7969,561.0469 854.4531,560.7969 Q854.8438,560.6406 855.2656,560.2031 Q855.5313,559.9375 855.6719,559.8594 Q855.8281,559.7813 856.0313,559.7813 Q856.3594,559.7813 856.6094,560.0469 Q856.875,560.2969 856.875,560.6406 Q856.875,560.9844 856.5313,561.3906 Q856.0313,561.9688 855.2344,562.2969 Q854.1563,562.75 852.8594,562.75 Q851.3438,562.75 850.1406,562.125 Q849.1563,561.625 848.4688,560.5625 Q847.7813,559.4844 847.7813,558.2031 L847.7813,557.0469 Q847.7813,555.7188 848.3906,554.5781 Q849.0156,553.4219 850.1094,552.8125 Q851.2031,552.1875 852.4375,552.1875 Q853.1719,552.1875 853.8125,552.3594 Q854.4688,552.5156 855.0156,552.875 Z " fill="#000000"/><text fill="#000000" font-family="sans-serif" font-size="14" lengthAdjust="spacing" textLength="70" x="872.75" y="562.7285">FocusBlast</text><line style="stroke:#181818;stroke-width:0.5;" x1="805.5" x2="977.5" y1="573" y2="573"/><text fill="#000000" font-family="sans-serif" font-size="14" lengthAdjust="spacing" textLength="67" x="810.5" y="591.5332">type: Type</text><text fill="#000000" font-family="sans-serif" font-size="14" lengthAdjust="spacing" textLength="76" x="810.5" y="609.1426">pow: double</text><text fill="#000000" font-family="sans-serif" font-size="14" lengthAdjust="spacing" textLength="73" x="810.5" y="626.752">acc: double</text><text fill="#000000" font-family="sans-serif" font-size="14" lengthAdjust="spacing" textLength="67" x="810.5" y="644.3613">type: Type</text><text fill="#000000" font-family="sans-serif" font-size="14" lengthAdjust="spacing" textLength="76" x="810.5" y="661.9707">pow: double</text><text fill="#000000" font-family="sans-serif" font-size="14" lengthAdjust="spacing" textLength="73" x="810.5" y="679.5801">acc: double</text><line style="stroke:#181818;stroke-width:0.5;" x1="805.5" x2="977.5" y1="686.6563" y2="686.6563"/><ellipse cx="815.5" cy="700.9609" fill="#84BE84" rx="3" ry="3" style="stroke:#038048;stroke-width:1.0;"/><text fill="#000000" font-family="sans-serif" font-size="14" lengthAdjust="spacing" textLength="80" x="824.5" y="705.1895">FocusBlast()</text><polygon fill="#FFFF44" points="815.5,713.5703,819.5,717.5703,815.5,721.5703,811.5,717.5703" style="stroke:#B38D22;stroke-width:1.0;"/><text fill="#000000" font-family="sans-serif" font-size="14" lengthAdjust="spacing" textLength="148" x="824.5" y="722.7988">applyOppEffects(): void</text><polygon fill="#FFFF44" points="815.5,731.1797,819.5,735.1797,815.5,739.1797,811.5,735.1797" style="stroke:#B38D22;stroke-width:1.0;"/><text fill="#000000" font-family="sans-serif" font-size="14" lengthAdjust="spacing" textLength="109" x="824.5" y="740.4082">describe(): String</text><ellipse cx="815.5" cy="753.7891" fill="#84BE84" rx="3" ry="3" style="stroke:#038048;stroke-width:1.0;"/><text fill="#000000" font-family="sans-serif" font-size="14" lengthAdjust="spacing" textLength="80" x="824.5" y="758.0176">FocusBlast()</text><polygon fill="#FFFF44" points="815.5,766.3984,819.5,770.3984,815.5,774.3984,811.5,770.3984" style="stroke:#B38D22;stroke-width:1.0;"/><text fill="#000000" font-family="sans-serif" font-size="14" lengthAdjust="spacing" textLength="148" x="824.5" y="775.627">applyOppEffects(): void</text><polygon fill="#FFFF44" points="815.5,784.0078,819.5,788.0078,815.5,792.0078,811.5,788.0078" style="stroke:#B38D22;stroke-width:1.0;"/><text fill="#000000" font-family="sans-serif" font-size="14" lengthAdjust="spacing" textLength="109" x="824.5" y="793.2363">describe(): String</text></g><!--class MegaDrain--><g id="elem_MegaDrain"><rect codeLine="123" fill="#F1F1F1" height="153.6563" id="MegaDrain" rx="2.5" ry="2.5" style="stroke:#181818;stroke-width:0.5;" width="181" x="1638" y="593.5"/><ellipse cx="1689.75" cy="609.5" fill="#ADD1B2" rx="11" ry="11" style="stroke:#181818;stroke-width:1.0;"/><path d="M1692.5156,605.375 Q1692.6719,605.1563 1692.8594,605.0469 Q1693.0469,604.9375 1693.2656,604.9375 Q1693.6406,604.9375 1693.875,605.2031 Q1694.1094,605.4531 1694.1094,606.0625 L1694.1094,607.5156 Q1694.1094,608.125 1693.875,608.3906 Q1693.6406,608.6563 1693.2656,608.6563 Q1692.9219,608.6563 1692.7188,608.4531 Q1692.5156,608.2656 1692.4063,607.75 Q1692.3594,607.3906 1692.1719,607.2031 Q1691.8438,606.8281 1691.2344,606.6094 Q1690.625,606.3906 1690,606.3906 Q1689.2344,606.3906 1688.5938,606.7188 Q1687.9688,607.0469 1687.4688,607.7969 Q1686.9844,608.5469 1686.9844,609.5781 L1686.9844,610.6719 Q1686.9844,611.9063 1687.875,612.7344 Q1688.7656,613.5469 1690.3594,613.5469 Q1691.2969,613.5469 1691.9531,613.2969 Q1692.3438,613.1406 1692.7656,612.7031 Q1693.0313,612.4375 1693.1719,612.3594 Q1693.3281,612.2813 1693.5313,612.2813 Q1693.8594,612.2813 1694.1094,612.5469 Q1694.375,612.7969 1694.375,613.1406 Q1694.375,613.4844 1694.0313,613.8906 Q1693.5313,614.4688 1692.7344,614.7969 Q1691.6563,615.25 1690.3594,615.25 Q1688.8438,615.25 1687.6406,614.625 Q1686.6563,614.125 1685.9688,613.0625 Q1685.2813,611.9844 1685.2813,610.7031 L1685.2813,609.5469 Q1685.2813,608.2188 1685.8906,607.0781 Q1686.5156,605.9219 1687.6094,605.3125 Q1688.7031,604.6875 1689.9375,604.6875 Q1690.6719,604.6875 1691.3125,604.8594 Q1691.9688,605.0156 1692.5156,605.375 Z " fill="#000000"/><text fill="#000000" font-family="sans-serif" font-size="14" lengthAdjust="spacing" textLength="69" x="1710.25" y="615.2285">MegaDrain</text><line style="stroke:#181818;stroke-width:0.5;" x1="1639" x2="1818" y1="625.5" y2="625.5"/><text fill="#000000" font-family="sans-serif" font-size="14" lengthAdjust="spacing" textLength="67" x="1644" y="644.0332">type: Type</text><text fill="#000000" font-family="sans-serif" font-size="14" lengthAdjust="spacing" textLength="76" x="1644" y="661.6426">pow: double</text><text fill="#000000" font-family="sans-serif" font-size="14" lengthAdjust="spacing" textLength="73" x="1644" y="679.252">acc: double</text><line style="stroke:#181818;stroke-width:0.5;" x1="1639" x2="1818" y1="686.3281" y2="686.3281"/><ellipse cx="1649" cy="700.6328" fill="#84BE84" rx="3" ry="3" style="stroke:#038048;stroke-width:1.0;"/><text fill="#000000" font-family="sans-serif" font-size="14" lengthAdjust="spacing" textLength="79" x="1658" y="704.8613">MegaDrain()</text><polygon fill="#FFFF44" points="1649,713.2422,1653,717.2422,1649,721.2422,1645,717.2422" style="stroke:#B38D22;stroke-width:1.0;"/><text fill="#000000" font-family="sans-serif" font-size="14" lengthAdjust="spacing" textLength="155" x="1658" y="722.4707">applySelfDamage(): void</text><polygon fill="#FFFF44" points="1649,730.8516,1653,734.8516,1649,738.8516,1645,734.8516" style="stroke:#B38D22;stroke-width:1.0;"/><text fill="#000000" font-family="sans-serif" font-size="14" lengthAdjust="spacing" textLength="109" x="1658" y="740.0801">describe(): String</text></g><!--class ShadowBall--><g id="elem_ShadowBall"><rect codeLine="131" fill="#F1F1F1" height="153.6563" id="ShadowBall" rx="2.5" ry="2.5" style="stroke:#181818;stroke-width:0.5;" width="174" x="1222.5" y="593.5"/><ellipse cx="1268.75" cy="609.5" fill="#ADD1B2" rx="11" ry="11" style="stroke:#181818;stroke-width:1.0;"/><path d="M1271.5156,605.375 Q1271.6719,605.1563 1271.8594,605.0469 Q1272.0469,604.9375 1272.2656,604.9375 Q1272.6406,604.9375 1272.875,605.2031 Q1273.1094,605.4531 1273.1094,606.0625 L1273.1094,607.5156 Q1273.1094,608.125 1272.875,608.3906 Q1272.6406,608.6563 1272.2656,608.6563 Q1271.9219,608.6563 1271.7188,608.4531 Q1271.5156,608.2656 1271.4063,607.75 Q1271.3594,607.3906 1271.1719,607.2031 Q1270.8438,606.8281 1270.2344,606.6094 Q1269.625,606.3906 1269,606.3906 Q1268.2344,606.3906 1267.5938,606.7188 Q1266.9688,607.0469 1266.4688,607.7969 Q1265.9844,608.5469 1265.9844,609.5781 L1265.9844,610.6719 Q1265.9844,611.9063 1266.875,612.7344 Q1267.7656,613.5469 1269.3594,613.5469 Q1270.2969,613.5469 1270.9531,613.2969 Q1271.3438,613.1406 1271.7656,612.7031 Q1272.0313,612.4375 1272.1719,612.3594 Q1272.3281,612.2813 1272.5313,612.2813 Q1272.8594,612.2813 1273.1094,612.5469 Q1273.375,612.7969 1273.375,613.1406 Q1273.375,613.4844 1273.0313,613.8906 Q1272.5313,614.4688 1271.7344,614.7969 Q1270.6563,615.25 1269.3594,615.25 Q1267.8438,615.25 1266.6406,614.625 Q1265.6563,614.125 1264.9688,613.0625 Q1264.2813,611.9844 1264.2813,610.7031 L1264.2813,609.5469 Q1264.2813,608.2188 1264.8906,607.0781 Q1265.5156,605.9219 1266.6094,605.3125 Q1267.7031,604.6875 1268.9375,604.6875 Q1269.6719,604.6875 1270.3125,604.8594 Q1270.9688,605.0156 1271.5156,605.375 Z " fill="#000000"/><text fill="#000000" font-family="sans-serif" font-size="14" lengthAdjust="spacing" textLength="73" x="1289.25" y="615.2285">ShadowBall</text><line style="stroke:#181818;stroke-width:0.5;" x1="1223.5" x2="1395.5" y1="625.5" y2="625.5"/><text fill="#000000" font-family="sans-serif" font-size="14" lengthAdjust="spacing" textLength="67" x="1228.5" y="644.0332">type: Type</text><text fill="#000000" font-family="sans-serif" font-size="14" lengthAdjust="spacing" textLength="76" x="1228.5" y="661.6426">pow: double</text><text fill="#000000" font-family="sans-serif" font-size="14" lengthAdjust="spacing" textLength="73" x="1228.5" y="679.252">acc: double</text><line style="stroke:#181818;stroke-width:0.5;" x1="1223.5" x2="1395.5" y1="686.3281" y2="686.3281"/><ellipse cx="1233.5" cy="700.6328" fill="#84BE84" rx="3" ry="3" style="stroke:#038048;stroke-width:1.0;"/><text fill="#000000" font-family="sans-serif" font-size="14" lengthAdjust="spacing" textLength="83" x="1242.5" y="704.8613">ShadowBall()</text><polygon fill="#FFFF44" points="1233.5,713.2422,1237.5,717.2422,1233.5,721.2422,1229.5,717.2422" style="stroke:#B38D22;stroke-width:1.0;"/><text fill="#000000" font-family="sans-serif" font-size="14" lengthAdjust="spacing" textLength="148" x="1242.5" y="722.4707">applyOppEffects(): void</text><polygon fill="#FFFF44" points="1233.5,730.8516,1237.5,734.8516,1233.5,738.8516,1229.5,734.8516" style="stroke:#B38D22;stroke-width:1.0;"/><text fill="#000000" font-family="sans-serif" font-size="14" lengthAdjust="spacing" textLength="109" x="1242.5" y="740.0801">describe(): String</text></g><!--class LeafStorm--><g id="elem_LeafStorm"><rect codeLine="139" fill="#F1F1F1" height="153.6563" id="LeafStorm" rx="2.5" ry="2.5" style="stroke:#181818;stroke-width:0.5;" width="171" x="2230" y="593.5"/><ellipse cx="2278.75" cy="609.5" fill="#ADD1B2" rx="11" ry="11" style="stroke:#181818;stroke-width:1.0;"/><path d="M2281.5156,605.375 Q2281.6719,605.1563 2281.8594,605.0469 Q2282.0469,604.9375 2282.2656,604.9375 Q2282.6406,604.9375 2282.875,605.2031 Q2283.1094,605.4531 2283.1094,606.0625 L2283.1094,607.5156 Q2283.1094,608.125 2282.875,608.3906 Q2282.6406,608.6563 2282.2656,608.6563 Q2281.9219,608.6563 2281.7188,608.4531 Q2281.5156,608.2656 2281.4063,607.75 Q2281.3594,607.3906 2281.1719,607.2031 Q2280.8438,606.8281 2280.2344,606.6094 Q2279.625,606.3906 2279,606.3906 Q2278.2344,606.3906 2277.5938,606.7188 Q2276.9688,607.0469 2276.4688,607.7969 Q2275.9844,608.5469 2275.9844,609.5781 L2275.9844,610.6719 Q2275.9844,611.9063 2276.875,612.7344 Q2277.7656,613.5469 2279.3594,613.5469 Q2280.2969,613.5469 2280.9531,613.2969 Q2281.3438,613.1406 2281.7656,612.7031 Q2282.0313,612.4375 2282.1719,612.3594 Q2282.3281,612.2813 2282.5313,612.2813 Q2282.8594,612.2813 2283.1094,612.5469 Q2283.375,612.7969 2283.375,613.1406 Q2283.375,613.4844 2283.0313,613.8906 Q2282.5313,614.4688 2281.7344,614.7969 Q2280.6563,615.25 2279.3594,615.25 Q2277.8438,615.25 2276.6406,614.625 Q2275.6563,614.125 2274.9688,613.0625 Q2274.2813,611.9844 2274.2813,610.7031 L2274.2813,609.5469 Q2274.2813,608.2188 2274.8906,607.0781 Q2275.5156,605.9219 2276.6094,605.3125 Q2277.7031,604.6875 2278.9375,604.6875 Q2279.6719,604.6875 2280.3125,604.8594 Q2280.9688,605.0156 2281.5156,605.375 Z " fill="#000000"/><text fill="#000000" font-family="sans-serif" font-size="14" lengthAdjust="spacing" textLength="65" x="2299.25" y="615.2285">LeafStorm</text><line style="stroke:#181818;stroke-width:0.5;" x1="2231" x2="2400" y1="625.5" y2="625.5"/><text fill="#000000" font-family="sans-serif" font-size="14" lengthAdjust="spacing" textLength="67" x="2236" y="644.0332">type: Type</text><text fill="#000000" font-family="sans-serif" font-size="14" lengthAdjust="spacing" textLength="76" x="2236" y="661.6426">pow: double</text><text fill="#000000" font-family="sans-serif" font-size="14" lengthAdjust="spacing" textLength="73" x="2236" y="679.252">acc: double</text><line style="stroke:#181818;stroke-width:0.5;" x1="2231" x2="2400" y1="686.3281" y2="686.3281"/><ellipse cx="2241" cy="700.6328" fill="#84BE84" rx="3" ry="3" style="stroke:#038048;stroke-width:1.0;"/><text fill="#000000" font-family="sans-serif" font-size="14" lengthAdjust="spacing" textLength="75" x="2250" y="704.8613">LeafStorm()</text><polygon fill="#FFFF44" points="2241,713.2422,2245,717.2422,2241,721.2422,2237,717.2422" style="stroke:#B38D22;stroke-width:1.0;"/><text fill="#000000" font-family="sans-serif" font-size="14" lengthAdjust="spacing" textLength="145" x="2250" y="722.4707">applySelfEffects(): void</text><polygon fill="#FFFF44" points="2241,730.8516,2245,734.8516,2241,738.8516,2237,734.8516" style="stroke:#B38D22;stroke-width:1.0;"/><text fill="#000000" font-family="sans-serif" font-size="14" lengthAdjust="spacing" textLength="109" x="2250" y="740.0801">describe(): String</text></g><!--class EnergyBall--><g id="elem_EnergyBall"><rect codeLine="147" fill="#F1F1F1" height="153.6563" id="EnergyBall" rx="2.5" ry="2.5" style="stroke:#181818;stroke-width:0.5;" width="174" x="2436.5" y="593.5"/><ellipse cx="2485.25" cy="609.5" fill="#ADD1B2" rx="11" ry="11" style="stroke:#181818;stroke-width:1.0;"/><path d="M2488.0156,605.375 Q2488.1719,605.1563 2488.3594,605.0469 Q2488.5469,604.9375 2488.7656,604.9375 Q2489.1406,604.9375 2489.375,605.2031 Q2489.6094,605.4531 2489.6094,606.0625 L2489.6094,607.5156 Q2489.6094,608.125 2489.375,608.3906 Q2489.1406,608.6563 2488.7656,608.6563 Q2488.4219,608.6563 2488.2188,608.4531 Q2488.0156,608.2656 2487.9063,607.75 Q2487.8594,607.3906 2487.6719,607.2031 Q2487.3438,606.8281 2486.7344,606.6094 Q2486.125,606.3906 2485.5,606.3906 Q2484.7344,606.3906 2484.0938,606.7188 Q2483.4688,607.0469 2482.9688,607.7969 Q2482.4844,608.5469 2482.4844,609.5781 L2482.4844,610.6719 Q2482.4844,611.9063 2483.375,612.7344 Q2484.2656,613.5469 2485.8594,613.5469 Q2486.7969,613.5469 2487.4531,613.2969 Q2487.8438,613.1406 2488.2656,612.7031 Q2488.5313,612.4375 2488.6719,612.3594 Q2488.8281,612.2813 2489.0313,612.2813 Q2489.3594,612.2813 2489.6094,612.5469 Q2489.875,612.7969 2489.875,613.1406 Q2489.875,613.4844 2489.5313,613.8906 Q2489.0313,614.4688 2488.2344,614.7969 Q2487.1563,615.25 2485.8594,615.25 Q2484.3438,615.25 2483.1406,614.625 Q2482.1563,614.125 2481.4688,613.0625 Q2480.7813,611.9844 2480.7813,610.7031 L2480.7813,609.5469 Q2480.7813,608.2188 2481.3906,607.0781 Q2482.0156,605.9219 2483.1094,605.3125 Q2484.2031,604.6875 2485.4375,604.6875 Q2486.1719,604.6875 2486.8125,604.8594 Q2487.4688,605.0156 2488.0156,605.375 Z " fill="#000000"/><text fill="#000000" font-family="sans-serif" font-size="14" lengthAdjust="spacing" textLength="68" x="2505.75" y="615.2285">EnergyBall</text><line style="stroke:#181818;stroke-width:0.5;" x1="2437.5" x2="2609.5" y1="625.5" y2="625.5"/><text fill="#000000" font-family="sans-serif" font-size="14" lengthAdjust="spacing" textLength="67" x="2442.5" y="644.0332">type: Type</text><text fill="#000000" font-family="sans-serif" font-size="14" lengthAdjust="spacing" textLength="76" x="2442.5" y="661.6426">pow: double</text><text fill="#000000" font-family="sans-serif" font-size="14" lengthAdjust="spacing" textLength="73" x="2442.5" y="679.252">acc: double</text><line style="stroke:#181818;stroke-width:0.5;" x1="2437.5" x2="2609.5" y1="686.3281" y2="686.3281"/><ellipse cx="2447.5" cy="700.6328" fill="#84BE84" rx="3" ry="3" style="stroke:#038048;stroke-width:1.0;"/><text fill="#000000" font-family="sans-serif" font-size="14" lengthAdjust="spacing" textLength="78" x="2456.5" y="704.8613">EnergyBall()</text><polygon fill="#FFFF44" points="2447.5,713.2422,2451.5,717.2422,2447.5,721.2422,2443.5,717.2422" style="stroke:#B38D22;stroke-width:1.0;"/><text fill="#000000" font-family="sans-serif" font-size="14" lengthAdjust="spacing" textLength="148" x="2456.5" y="722.4707">applyOppEffects(): void</text><polygon fill="#FFFF44" points="2447.5,730.8516,2451.5,734.8516,2447.5,738.8516,2443.5,734.8516" style="stroke:#B38D22;stroke-width:1.0;"/><text fill="#000000" font-family="sans-serif" font-size="14" lengthAdjust="spacing" textLength="109" x="2456.5" y="740.0801">describe(): String</text></g><g id="elem_Pokemon"><rect fill="#F1F1F1" height="47.2188" style="stroke:#181818;stroke-width:0.5;" width="173" x="7" y="647"/><text fill="#000000" font-family="sans-serif" font-size="14" lengthAdjust="spacing" textLength="59" x="64" y="663.5332">Pokemon</text><line style="stroke:#181818;stroke-width:0.5;" x1="8" x2="179" y1="668.6094" y2="668.6094"/><text fill="#000000" font-family="sans-serif" font-size="14" lengthAdjust="spacing" textLength="161" x="13" y="687.1426">From ru.ifmo.se.pokemon</text></g><g id="elem_SpecialMove"><rect fill="#F1F1F1" height="47.2188" style="stroke:#181818;stroke-width:0.5;" width="173" x="1929" y="860"/><text fill="#000000" font-family="sans-serif" font-size="14" lengthAdjust="spacing" textLength="80" x="1975.5" y="876.5332">SpecialMove</text><line style="stroke:#181818;stroke-width:0.5;" x1="1930" x2="2101" y1="881.6094" y2="881.6094"/><text fill="#000000" font-family="sans-serif" font-size="14" lengthAdjust="spacing" textLength="161" x="1935" y="900.1426">From ru.ifmo.se.pokemon</text></g><g id="elem_StatusMove"><rect fill="#F1F1F1" height="47.2188" style="stroke:#181818;stroke-width:0.5;" width="173" x="857" y="860"/><text fill="#000000" font-family="sans-serif" font-size="14" lengthAdjust="spacing" textLength="74" x="906.5" y="876.5332">StatusMove</text><line style="stroke:#181818;stroke-width:0.5;" x1="858" x2="1029" y1="881.6094" y2="881.6094"/><text fill="#000000" font-family="sans-serif" font-size="14" lengthAdjust="spacing" textLength="161" x="863" y="900.1426">From ru.ifmo.se.pokemon</text></g><g id="elem_PhysicalMove"><rect fill="#F1F1F1" height="47.2188" style="stroke:#181818;stroke-width:0.5;" width="173" x="563" y="860"/><text fill="#000000" font-family="sans-serif" font-size="14" lengthAdjust="spacing" textLength="86" x="606.5" y="876.5332">PhysicalMove</text><line style="stroke:#181818;stroke-width:0.5;" x1="564" x2="735" y1="881.6094" y2="881.6094"/><text fill="#000000" font-family="sans-serif" font-size="14" lengthAdjust="spacing" textLength="161" x="569" y="900.1426">From ru.ifmo.se.pokemon</text></g><!--link Latios to Pokemon--><g id="link_Latios_Pokemon"><path codeLine="44" d="M615.67,143.02 C615.67,159.2 615.67,173 615.67,173 C615.67,173 50.25,173 50.25,173 C50.25,173 50.25,529.97 50.25,628.84 " fill="none" id="Latios-to-Pokemon" style="stroke:#181818;stroke-width:1.0;"/><polygon fill="none" points="50.25,646.84,56.25,628.84,44.25,628.84,50.25,646.84" style="stroke:#181818;stroke-width:1.0;"/></g><!--link Tirtouga to Pokemon--><g id="link_Tirtouga_Pokemon"><path codeLine="45" d="M473.1,237 C362.69,237 93.5,237 93.5,237 C93.5,237 93.5,538.42 93.5,628.89 " fill="none" id="Tirtouga-to-Pokemon" style="stroke:#181818;stroke-width:1.0;"/><polygon fill="none" points="93.5,646.89,99.5,628.89,87.5,628.89,93.5,646.89" style="stroke:#181818;stroke-width:1.0;"/></g><!--link Carracosta to Tirtouga--><g id="link_Carracosta_Tirtouga"><path codeLine="46" d="M496.25,143.44 C496.25,162.42 496.25,165.94 496.25,184.89 " fill="none" id="Carracosta-to-Tirtouga" style="stroke:#181818;stroke-width:1.0;"/><polygon fill="none" points="496.25,202.89,502.25,184.89,490.25,184.89,496.25,202.89" style="stroke:#181818;stroke-width:1.0;"/></g><!--link Budew to Pokemon--><g id="link_Budew_Pokemon"><path codeLine="47" d="M458.3,415 C359.53,415 136.75,415 136.75,415 C136.75,415 136.75,565.67 136.75,628.92 " fill="none" id="Budew-to-Pokemon" style="stroke:#181818;stroke-width:1.0;"/><polygon fill="none" points="136.75,646.92,142.75,628.92,130.75,628.92,136.75,646.92" style="stroke:#181818;stroke-width:1.0;"/></g><!--link Roselia to Budew--><g id="link_Roselia_Budew"><path codeLine="48" d="M617.25,304.33 C617.25,343.14 617.25,390 617.25,390 C617.25,390 599.82,390 568.69,390 " fill="none" id="Roselia-to-Budew" style="stroke:#181818;stroke-width:1.0;"/><polygon fill="none" points="550.69,390,568.69,396,568.69,384,550.69,390" style="stroke:#181818;stroke-width:1.0;"/></g><!--link Roserade to Roselia--><g id="link_Roserade_Roselia"><path codeLine="49" d="M747.75,143.34 C747.75,180.35 747.75,224 747.75,224 C747.75,224 737.38,224 710.68,224 " fill="none" id="Roserade-to-Roselia" style="stroke:#181818;stroke-width:1.0;"/><polygon fill="none" points="692.68,224,710.68,230,710.68,218,692.68,224" style="stroke:#181818;stroke-width:1.0;"/></g><!--link DragonPulse to SpecialMove--><g id="link_DragonPulse_SpecialMove"><path codeLine="168" d="M1969,738.77 C1969,780.39 1969,812.98 1969,841.99 " fill="none" id="DragonPulse-to-SpecialMove" style="stroke:#181818;stroke-width:1.0;"/><polygon fill="none" points="1969,859.99,1975,841.99,1963,841.99,1969,859.99" style="stroke:#181818;stroke-width:1.0;"/></g><!--link DracoMeteor to SpecialMove--><g id="link_DracoMeteor_SpecialMove"><path codeLine="169" d="M2063,747.7 C2063,787.23 2063,814.59 2063,841.6 " fill="none" id="DracoMeteor-to-SpecialMove" style="stroke:#181818;stroke-width:1.0;"/><polygon fill="none" points="2063,859.6,2069,841.6,2057,841.6,2063,859.6" style="stroke:#181818;stroke-width:1.0;"/></g><!--link Bulldoze to PhysicalMove--><g id="link_Bulldoze_PhysicalMove"><path codeLine="170" d="M1021.75,747.91 C1021.75,788.55 1021.75,830 1021.75,830 C1021.75,830 702,830 702,830 C702,830 702,827.55 702,841.88 " fill="none" id="Bulldoze-to-PhysicalMove" style="stroke:#181818;stroke-width:1.0;"/><polygon fill="none" points="702,859.88,708,841.88,696,841.88,702,859.88" style="stroke:#181818;stroke-width:1.0;"/></g><!--link CalmMind to StatusMove--><g id="link_CalmMind_StatusMove"><path codeLine="171" d="M1517.5,747.66 C1517.5,811.58 1517.5,892 1517.5,892 C1517.5,892 1208.41,892 1048.06,892 " fill="none" id="CalmMind-to-StatusMove" style="stroke:#181818;stroke-width:1.0;"/><polygon fill="none" points="1030.06,892,1048.06,898,1048.06,886,1030.06,892" style="stroke:#181818;stroke-width:1.0;"/></g><!--link AquaJet to PhysicalMove--><g id="link_AquaJet_PhysicalMove"><path codeLine="173" d="M668,738.77 C668,780.39 668,812.98 668,841.99 " fill="none" id="AquaJet-to-PhysicalMove" style="stroke:#181818;stroke-width:1.0;"/><polygon fill="none" points="668,859.99,674,841.99,662,841.99,668,859.99" style="stroke:#181818;stroke-width:1.0;"/></g><!--link RockTomb to PhysicalMove--><g id="link_RockTomb_PhysicalMove"><path codeLine="174" d="M302.5,747.58 C302.5,808.73 302.5,884 302.5,884 C302.5,884 442.05,884 544.83,884 " fill="none" id="RockTomb-to-PhysicalMove" style="stroke:#181818;stroke-width:1.0;"/><polygon fill="none" points="562.83,884,544.83,878,544.83,890,562.83,884" style="stroke:#181818;stroke-width:1.0;"/></g><!--link RockSlide to PhysicalMove--><g id="link_RockSlide_PhysicalMove"><path codeLine="175" d="M580.75,747.7 C580.75,787.23 580.75,814.59 580.75,841.6 " fill="none" id="RockSlide-to-PhysicalMove" style="stroke:#181818;stroke-width:1.0;"/><polygon fill="none" points="580.75,859.6,586.75,841.6,574.75,841.6,580.75,859.6" style="stroke:#181818;stroke-width:1.0;"/></g><!--link FocusBlast to StatusMove--><g id="link_FocusBlast_StatusMove"><path codeLine="176" d="M917.75,800.23 C917.75,823.17 917.75,826.59 917.75,841.96 " fill="none" id="FocusBlast-to-StatusMove" style="stroke:#181818;stroke-width:1.0;"/><polygon fill="none" points="917.75,859.96,923.75,841.96,911.75,841.96,917.75,859.96" style="stroke:#181818;stroke-width:1.0;"/></g><!--link MegaDrain to SpecialMove--><g id="link_MegaDrain_SpecialMove"><path codeLine="178" d="M1819.14,743 C1879.96,743 1949,743 1949,743 C1949,743 1949,801.99 1949,841.98 " fill="none" id="MegaDrain-to-SpecialMove" style="stroke:#181818;stroke-width:1.0;"/><polygon fill="none" points="1949,859.98,1955,841.98,1943,841.98,1949,859.98" style="stroke:#181818;stroke-width:1.0;"/></g><!--link ShadowBall to SpecialMove--><g id="link_ShadowBall_SpecialMove"><path codeLine="179" d="M1309.5,747.61 C1309.5,805.92 1309.5,876 1309.5,876 C1309.5,876 1722.41,876 1910.93,876 " fill="none" id="ShadowBall-to-SpecialMove" style="stroke:#181818;stroke-width:1.0;"/><polygon fill="none" points="1928.93,876,1910.93,870,1910.93,882,1928.93,876" style="stroke:#181818;stroke-width:1.0;"/></g><!--link LeafStorm to SpecialMove--><g id="link_LeafStorm_SpecialMove"><path codeLine="180" d="M2315.5,747.61 C2315.5,805.92 2315.5,876 2315.5,876 C2315.5,876 2208.87,876 2120.27,876 " fill="none" id="LeafStorm-to-SpecialMove" style="stroke:#181818;stroke-width:1.0;"/><polygon fill="none" points="2102.27,876,2120.27,882,2120.27,870,2102.27,876" style="stroke:#181818;stroke-width:1.0;"/></g><!--link EnergyBall to SpecialMove--><g id="link_EnergyBall_SpecialMove"><path codeLine="181" d="M2523.5,747.66 C2523.5,811.58 2523.5,892 2523.5,892 C2523.5,892 2265.34,892 2120.25,892 " fill="none" id="EnergyBall-to-SpecialMove" style="stroke:#181818;stroke-width:1.0;"/><polygon fill="none" points="2102.25,892,2120.25,898,2120.25,886,2102.25,892" style="stroke:#181818;stroke-width:1.0;"/></g><!--reverse link Latios to DragonPulse--><g id="link_Latios_DragonPulse"><path codeLine="183" d="M661.17,155.14 C661.17,163.76 661.17,158 661.17,158 C661.17,158 1921.5,158 1921.5,158 C1921.5,158 1921.5,463.03 1921.5,602.44 " fill="none" id="Latios-backto-DragonPulse" style="stroke:#181818;stroke-width:1.0;"/><polygon fill="none" points="661.17,143.14,657.17,149.14,661.17,155.14,665.17,149.14,661.17,143.14" style="stroke:#181818;stroke-width:1.0;"/></g><!--reverse link Latios to DracoMeteor--><g id="link_Latios_DracoMeteor"><path codeLine="184" d="M676.33,155.35 C676.33,155.35 2109.5,151 2109.5,151 C2109.5,151 2109.5,448.57 2109.5,593.29 " fill="none" id="Latios-backto-DracoMeteor" style="stroke:#181818;stroke-width:1.0;"/><polygon fill="none" points="676.33,143.35,672.33,149.35,676.33,155.35,680.33,149.35,676.33,143.35" style="stroke:#181818;stroke-width:1.0;"/></g><!--reverse link Latios to Bulldoze--><g id="link_Latios_Bulldoze"><path codeLine="185" d="M630.83,155.21 C630.83,174.99 630.83,181 630.83,181 C630.83,181 1100.5,181 1100.5,181 C1100.5,181 1100.5,455.63 1100.5,593.48 " fill="none" id="Latios-backto-Bulldoze" style="stroke:#181818;stroke-width:1.0;"/><polygon fill="none" points="630.83,143.21,626.83,149.21,630.83,155.21,634.83,149.21,630.83,143.21" style="stroke:#181818;stroke-width:1.0;"/></g><!--reverse link Latios to CalmMind--><g id="link_Latios_CalmMind"><path codeLine="186" d="M646,155.15 C646,167.88 646,166 646,166 C646,166 1517.5,166 1517.5,166 C1517.5,166 1517.5,452 1517.5,593.33 " fill="none" id="Latios-backto-CalmMind" style="stroke:#181818;stroke-width:1.0;"/><polygon fill="none" points="646,143.15,642,149.15,646,155.15,650,149.15,646,143.15" style="stroke:#181818;stroke-width:1.0;"/></g><!--reverse link Tirtouga to AquaJet--><g id="link_Tirtouga_AquaJet"><path codeLine="188" d="M555.5,316.02 C555.5,332.2 555.5,334 555.5,334 C555.5,334 663.25,334 663.25,334 C663.25,334 663.25,504.08 663.25,602.4 " fill="none" id="Tirtouga-backto-AquaJet" style="stroke:#181818;stroke-width:1.0;"/><polygon fill="none" points="555.5,304.02,551.5,310.02,555.5,316.02,559.5,310.02,555.5,304.02" style="stroke:#181818;stroke-width:1.0;"/></g><!--reverse link Tirtouga to RockTomb--><g id="link_Tirtouga_RockTomb"><path codeLine="189" d="M461.03,271 C405.36,271 331.5,271 331.5,271 C331.5,271 331.5,477.38 331.5,593.47 " fill="none" id="Tirtouga-backto-RockTomb" style="stroke:#181818;stroke-width:1.0;"/><polygon fill="none" points="473.03,271,467.03,267,461.03,271,467.03,275,473.03,271" style="stroke:#181818;stroke-width:1.0;"/></g><!--reverse link Tirtouga to RockSlide--><g id="link_Tirtouga_RockSlide"><path codeLine="190" d="M560.5,316.22 C560.5,388.28 560.5,508.9 560.5,593.24 " fill="none" id="Tirtouga-backto-RockSlide" style="stroke:#181818;stroke-width:1.0;"/><polygon fill="none" points="560.5,304.22,556.5,310.22,560.5,316.22,564.5,310.22,560.5,304.22" style="stroke:#181818;stroke-width:1.0;"/></g><!--reverse link Carracosta to AquaJet--><g id="link_Carracosta_AquaJet"><path codeLine="192" d="M519,155.04 C519,181.31 519,196 519,196 C519,196 709.5,196 709.5,196 C709.5,196 709.5,470.96 709.5,602.26 " fill="none" id="Carracosta-backto-AquaJet" style="stroke:#181818;stroke-width:1.0;"/><polygon fill="none" points="519,143.04,515,149.04,519,155.04,523,149.04,519,143.04" style="stroke:#181818;stroke-width:1.0;"/></g><!--reverse link Carracosta to RockTomb--><g id="link_Carracosta_RockTomb"><path codeLine="193" d="M446.38,76 C376.24,76 273.5,76 273.5,76 C273.5,76 273.5,432.53 273.5,593.39 " fill="none" id="Carracosta-backto-RockTomb" style="stroke:#181818;stroke-width:1.0;"/><polygon fill="none" points="458.38,76,452.38,72,446.38,76,452.38,80,458.38,76" style="stroke:#181818;stroke-width:1.0;"/></g><!--reverse link Carracosta to RockSlide--><g id="link_Carracosta_RockSlide"><path codeLine="194" d="M446.45,110 C436.68,110 441.5,110 441.5,110 C441.5,110 441.5,439.81 441.5,593.45 " fill="none" id="Carracosta-backto-RockSlide" style="stroke:#181818;stroke-width:1.0;"/><polygon fill="none" points="458.45,110,452.45,106,446.45,110,452.45,114,458.45,110" style="stroke:#181818;stroke-width:1.0;"/></g><!--reverse link Carracosta to FocusBlast--><g id="link_Carracosta_FocusBlast"><path codeLine="195" d="M541.75,155.05 C541.75,177.95 541.75,188 541.75,188 C541.75,188 814.5,188 814.5,188 C814.5,188 814.5,397.97 814.5,540.88 " fill="none" id="Carracosta-backto-FocusBlast" style="stroke:#181818;stroke-width:1.0;"/><polygon fill="none" points="541.75,143.05,537.75,149.05,541.75,155.05,545.75,149.05,541.75,143.05" style="stroke:#181818;stroke-width:1.0;"/></g><!--reverse link Budew to MegaDrain--><g id="link_Budew_MegaDrain"><path codeLine="197" d="M562.71,415 C780.64,415 1683.25,415 1683.25,415 C1683.25,415 1683.25,518.26 1683.25,593.5 " fill="none" id="Budew-backto-MegaDrain" style="stroke:#181818;stroke-width:1.0;"/><polygon fill="none" points="550.71,415,556.71,419,562.71,415,556.71,411,550.71,415" style="stroke:#181818;stroke-width:1.0;"/></g><!--reverse link Budew to ShadowBall--><g id="link_Budew_ShadowBall"><path codeLine="198" d="M562.7,440 C727.69,440 1266,440 1266,440 C1266,440 1266,526.42 1266,593.43 " fill="none" id="Budew-backto-ShadowBall" style="stroke:#181818;stroke-width:1.0;"/><polygon fill="none" points="550.7,440,556.7,444,562.7,440,556.7,436,550.7,440" style="stroke:#181818;stroke-width:1.0;"/></g><!--reverse link Roselia to MegaDrain--><g id="link_Roselia_MegaDrain"><path codeLine="200" d="M704.65,264 C911.17,264 1728.5,264 1728.5,264 C1728.5,264 1728.5,475.14 1728.5,593.08 " fill="none" id="Roselia-backto-MegaDrain" style="stroke:#181818;stroke-width:1.0;"/><polygon fill="none" points="692.65,264,698.65,268,704.65,264,698.65,260,692.65,264" style="stroke:#181818;stroke-width:1.0;"/></g><!--reverse link Roselia to ShadowBall--><g id="link_Roselia_ShadowBall"><path codeLine="201" d="M704.59,284 C854.95,284 1309.5,284 1309.5,284 C1309.5,284 1309.5,480.42 1309.5,593.21 " fill="none" id="Roselia-backto-ShadowBall" style="stroke:#181818;stroke-width:1.0;"/><polygon fill="none" points="692.59,284,698.59,288,704.59,284,698.59,280,692.59,284" style="stroke:#181818;stroke-width:1.0;"/></g><!--reverse link Roselia to LeafStorm--><g id="link_Roselia_LeafStorm"><path codeLine="202" d="M704.52,244 C970.48,244 2287,244 2287,244 C2287,244 2287,470.36 2287,593.26 " fill="none" id="Roselia-backto-LeafStorm" style="stroke:#181818;stroke-width:1.0;"/><polygon fill="none" points="692.52,244,698.52,248,704.52,244,698.52,240,692.52,244" style="stroke:#181818;stroke-width:1.0;"/></g><!--reverse link Roserade to MegaDrain--><g id="link_Roserade_MegaDrain"><path codeLine="204" d="M836.66,103 C1037.59,103 1773.75,103 1773.75,103 C1773.75,103 1773.75,438.21 1773.75,593.37 " fill="none" id="Roserade-backto-MegaDrain" style="stroke:#181818;stroke-width:1.0;"/><polygon fill="none" points="824.66,103,830.66,107,836.66,103,830.66,99,824.66,103" style="stroke:#181818;stroke-width:1.0;"/></g><!--reverse link Roserade to ShadowBall--><g id="link_Roserade_ShadowBall"><path codeLine="205" d="M836.74,123 C976.39,123 1353,123 1353,123 C1353,123 1353,442.3 1353,593.22 " fill="none" id="Roserade-backto-ShadowBall" style="stroke:#181818;stroke-width:1.0;"/><polygon fill="none" points="824.74,123,830.74,127,836.74,123,830.74,119,824.74,123" style="stroke:#181818;stroke-width:1.0;"/></g><!--reverse link Roserade to LeafStorm--><g id="link_Roserade_LeafStorm"><path codeLine="206" d="M836.6,83 C1102.28,83 2344,83 2344,83 C2344,83 2344,434 2344,593.39 " fill="none" id="Roserade-backto-LeafStorm" style="stroke:#181818;stroke-width:1.0;"/><polygon fill="none" points="824.6,83,830.6,87,836.6,83,830.6,79,824.6,83" style="stroke:#181818;stroke-width:1.0;"/></g><!--reverse link Roserade to EnergyBall--><g id="link_Roserade_EnergyBall"><path codeLine="207" d="M836.54,63 C1119.93,63 2523.5,63 2523.5,63 C2523.5,63 2523.5,429.63 2523.5,593.25 " fill="none" id="Roserade-backto-EnergyBall" style="stroke:#181818;stroke-width:1.0;"/><polygon fill="none" points="824.54,63,830.54,67,836.54,63,830.54,59,824.54,63" style="stroke:#181818;stroke-width:1.0;"/></g><!--SRC=[xLV9Rjim43sNNq6WbnQ1_G4-5AYp70eRDUBy02sD7TQKHYKf1swRVwyMRXAL173AMtb8v3USDmkt6NNaPSKaA-YAbw3F5L2K-X49mTqFo3JTu14AB8dvJnVqJc91PJtd-mBd2kQLcK4gbXtP0QW15FrDQ3ComPIYAwOvMgWT9IjWGRTQylBWG04d40lAI-sWgrxpq-SEUIO1vmEN6ki3kuJLwaxnNZCfMOPANyJijQUubtKEJvVGTefJZFUeGF2BN3MgBx5AbeEXZIX7T5TsViFruPaqL6R1PxC_NzmcSWisG8DqjxYTHFfK3QRQM3kmanFdQ8UP2Nup5dW2vLFJ1tSZsG7BJIqKU54xsWEme0_Dtm5SuTE2vbZln11dMJQ9NmK6J7Bj-9Y3oYJVDNYqHC-ncnckGGDAcinFQs7i9wigSTw2sD_kzyr5e5f_JyZpYwDPraBa-0iIXMBf9-FuNbN_Aenh9eerB_D4OLZwvClnzMVDle5E58PXVyVclyVi-835Bf63bZxrTcdjR0NF8M4S7N_gGEumgzMo-KorPRo1_w6y4ieebZKSM7EByp9HA8x_nGlfXXNDG_lkHTa-iXoVbao8H95u0wdtrmhOVgjH5eaYSVp97udR4kJXd71Hl8449wKjGsqViwqWuqoictAG1D-lz3DMKJDTgrxFVRwjjdayAvuPW-6Frpee4jIDVJqRkXsMWv7GLLTzlHnQTnLBh-JZ8RO6Y7NSwpijwb-qM1RSh94nVrD5pWTdFvBvmnI9WjqPoMp_WRDPMEwFO9lF4BQP336RGk9Rc1Os-Hk2DdKnscMDXFrEI3A27Sq4tXED13xtnBHEBUgo7c0-tSHrLCEv8HhC3c6tBiItO369WqSi3lSq0zWlxLy0]--></g></svg>