<?xml version="1.0" encoding="us-ascii" standalone="no"?><svg xmlns="http://www.w3.org/2000/svg" xmlns:xlink="http://www.w3.org/1999/xlink" contentStyleType="text/css" height="853px" preserveAspectRatio="none" style="width:2516px;height:853px;background:#FFFFFF;" version="1.1" viewBox="0 0 2516 853" width="2516px" zoomAndPan="magnify"><defs/><g><!--cluster mypokemons--><g id="cluster_mypokemons"><path d="M572,6 L665,6 A3.75,3.75 0 0 1 667.5,8.5 L674.5,29.6094 L952,29.6094 A2.5,2.5 0 0 1 954.5,32.1094 L954.5,478.5 A2.5,2.5 0 0 1 952,481 L572,481 A2.5,2.5 0 0 1 569.5,478.5 L569.5,8.5 A2.5,2.5 0 0 1 572,6 " fill="none" style="stroke:#000000;stroke-width:1.5;"/><line style="stroke:#000000;stroke-width:1.5;" x1="569.5" x2="674.5" y1="29.6094" y2="29.6094"/><text fill="#000000" font-family="sans-serif" font-size="14" font-weight="bold" lengthAdjust="spacing" textLength="92" x="573.5" y="22.5332">mypokemons</text></g><!--cluster moves--><g id="cluster_moves"><path d="M199,505 L247,505 A3.75,3.75 0 0 1 249.5,507.5 L256.5,528.6094 L2507,528.6094 A2.5,2.5 0 0 1 2509.5,531.1094 L2509.5,776.5 A2.5,2.5 0 0 1 2507,779 L199,779 A2.5,2.5 0 0 1 196.5,776.5 L196.5,507.5 A2.5,2.5 0 0 1 199,505 " fill="none" style="stroke:#000000;stroke-width:1.5;"/><line style="stroke:#000000;stroke-width:1.5;" x1="196.5" x2="256.5" y1="528.6094" y2="528.6094"/><text fill="#000000" font-family="sans-serif" font-size="14" font-weight="bold" lengthAdjust="spacing" textLength="47" x="200.5" y="521.5332">moves</text></g><!--cluster physical--><g id="cluster_physical"><path d="M223,549 L281,549 A3.75,3.75 0 0 1 283.5,551.5 L290.5,572.6094 L814,572.6094 A2.5,2.5 0 0 1 816.5,575.1094 L816.5,752.5 A2.5,2.5 0 0 1 814,755 L223,755 A2.5,2.5 0 0 1 220.5,752.5 L220.5,551.5 A2.5,2.5 0 0 1 223,549 " fill="none" style="stroke:#000000;stroke-width:1.5;"/><line style="stroke:#000000;stroke-width:1.5;" x1="220.5" x2="290.5" y1="572.6094" y2="572.6094"/><text fill="#000000" font-family="sans-serif" font-size="14" font-weight="bold" lengthAdjust="spacing" textLength="57" x="224.5" y="565.5332">physical</text></g><!--cluster special--><g id="cluster_special"><path d="M1486,549 L1537,549 A3.75,3.75 0 0 1 1539.5,551.5 L1546.5,572.6094 L2483,572.6094 A2.5,2.5 0 0 1 2485.5,575.1094 L2485.5,752.5 A2.5,2.5 0 0 1 2483,755 L1486,755 A2.5,2.5 0 0 1 1483.5,752.5 L1483.5,551.5 A2.5,2.5 0 0 1 1486,549 " fill="none" style="stroke:#000000;stroke-width:1.5;"/><line style="stroke:#000000;stroke-width:1.5;" x1="1483.5" x2="1546.5" y1="572.6094" y2="572.6094"/><text fill="#000000" font-family="sans-serif" font-size="14" font-weight="bold" lengthAdjust="spacing" textLength="50" x="1487.5" y="565.5332">special</text></g><!--cluster status--><g id="cluster_status"><path d="M843,549 L887,549 A3.75,3.75 0 0 1 889.5,551.5 L896.5,572.6094 L1457,572.6094 A2.5,2.5 0 0 1 1459.5,575.1094 L1459.5,752.5 A2.5,2.5 0 0 1 1457,755 L843,755 A2.5,2.5 0 0 1 840.5,752.5 L840.5,551.5 A2.5,2.5 0 0 1 843,549 " fill="none" style="stroke:#000000;stroke-width:1.5;"/><line style="stroke:#000000;stroke-width:1.5;" x1="840.5" x2="896.5" y1="572.6094" y2="572.6094"/><text fill="#000000" font-family="sans-serif" font-size="14" font-weight="bold" lengthAdjust="spacing" textLength="43" x="844.5" y="565.5332">status</text></g><!--class Cobalion--><g id="elem_Cobalion"><rect codeLine="7" fill="#F1F1F1" height="100.8281" id="Cobalion" rx="2.5" ry="2.5" style="stroke:#181818;stroke-width:0.5;" width="92" x="585.5" y="42"/><ellipse cx="602.3" cy="58" fill="#ADD1B2" rx="11" ry="11" style="stroke:#181818;stroke-width:1.0;"/><path d="M605.0656,53.875 Q605.2219,53.6563 605.4094,53.5469 Q605.5969,53.4375 605.8156,53.4375 Q606.1906,53.4375 606.425,53.7031 Q606.6594,53.9531 606.6594,54.5625 L606.6594,56.0156 Q606.6594,56.625 606.425,56.8906 Q606.1906,57.1563 605.8156,57.1563 Q605.4719,57.1563 605.2688,56.9531 Q605.0656,56.7656 604.9563,56.25 Q604.9094,55.8906 604.7219,55.7031 Q604.3938,55.3281 603.7844,55.1094 Q603.175,54.8906 602.55,54.8906 Q601.7844,54.8906 601.1438,55.2188 Q600.5188,55.5469 600.0188,56.2969 Q599.5344,57.0469 599.5344,58.0781 L599.5344,59.1719 Q599.5344,60.4063 600.425,61.2344 Q601.3156,62.0469 602.9094,62.0469 Q603.8469,62.0469 604.5031,61.7969 Q604.8938,61.6406 605.3156,61.2031 Q605.5813,60.9375 605.7219,60.8594 Q605.8781,60.7813 606.0813,60.7813 Q606.4094,60.7813 606.6594,61.0469 Q606.925,61.2969 606.925,61.6406 Q606.925,61.9844 606.5813,62.3906 Q606.0813,62.9688 605.2844,63.2969 Q604.2063,63.75 602.9094,63.75 Q601.3938,63.75 600.1906,63.125 Q599.2063,62.625 598.5188,61.5625 Q597.8313,60.4844 597.8313,59.2031 L597.8313,58.0469 Q597.8313,56.7188 598.4406,55.5781 Q599.0656,54.4219 600.1594,53.8125 Q601.2531,53.1875 602.4875,53.1875 Q603.2219,53.1875 603.8625,53.3594 Q604.5188,53.5156 605.0656,53.875 Z " fill="#000000"/><text fill="#000000" font-family="sans-serif" font-size="14" lengthAdjust="spacing" textLength="56" x="616.7" y="63.7285">Cobalion</text><line style="stroke:#181818;stroke-width:0.5;" x1="586.5" x2="676.5" y1="74" y2="74"/><text fill="#000000" font-family="sans-serif" font-size="14" lengthAdjust="spacing" textLength="80" x="591.5" y="92.5332">name: String</text><text fill="#000000" font-family="sans-serif" font-size="14" lengthAdjust="spacing" textLength="52" x="591.5" y="110.1426">level: int</text><line style="stroke:#181818;stroke-width:0.5;" x1="586.5" x2="676.5" y1="117.2188" y2="117.2188"/><ellipse cx="596.5" cy="131.5234" fill="#84BE84" rx="3" ry="3" style="stroke:#038048;stroke-width:1.0;"/><text fill="#000000" font-family="sans-serif" font-size="14" lengthAdjust="spacing" textLength="66" x="605.5" y="135.752">Cobalion()</text></g><!--class Electrike--><g id="elem_Electrike"><rect codeLine="13" fill="#F1F1F1" height="100.8281" id="Electrike" rx="2.5" ry="2.5" style="stroke:#181818;stroke-width:0.5;" width="92" x="585.5" y="203"/><ellipse cx="603.2" cy="219" fill="#ADD1B2" rx="11" ry="11" style="stroke:#181818;stroke-width:1.0;"/><path d="M605.9656,214.875 Q606.1219,214.6563 606.3094,214.5469 Q606.4969,214.4375 606.7156,214.4375 Q607.0906,214.4375 607.325,214.7031 Q607.5594,214.9531 607.5594,215.5625 L607.5594,217.0156 Q607.5594,217.625 607.325,217.8906 Q607.0906,218.1563 606.7156,218.1563 Q606.3719,218.1563 606.1688,217.9531 Q605.9656,217.7656 605.8563,217.25 Q605.8094,216.8906 605.6219,216.7031 Q605.2938,216.3281 604.6844,216.1094 Q604.075,215.8906 603.45,215.8906 Q602.6844,215.8906 602.0438,216.2188 Q601.4188,216.5469 600.9188,217.2969 Q600.4344,218.0469 600.4344,219.0781 L600.4344,220.1719 Q600.4344,221.4063 601.325,222.2344 Q602.2156,223.0469 603.8094,223.0469 Q604.7469,223.0469 605.4031,222.7969 Q605.7938,222.6406 606.2156,222.2031 Q606.4813,221.9375 606.6219,221.8594 Q606.7781,221.7813 606.9813,221.7813 Q607.3094,221.7813 607.5594,222.0469 Q607.825,222.2969 607.825,222.6406 Q607.825,222.9844 607.4813,223.3906 Q606.9813,223.9688 606.1844,224.2969 Q605.1063,224.75 603.8094,224.75 Q602.2938,224.75 601.0906,224.125 Q600.1063,223.625 599.4188,222.5625 Q598.7313,221.4844 598.7313,220.2031 L598.7313,219.0469 Q598.7313,217.7188 599.3406,216.5781 Q599.9656,215.4219 601.0594,214.8125 Q602.1531,214.1875 603.3875,214.1875 Q604.1219,214.1875 604.7625,214.3594 Q605.4188,214.5156 605.9656,214.875 Z " fill="#000000"/><text fill="#000000" font-family="sans-serif" font-size="14" lengthAdjust="spacing" textLength="54" x="617.8" y="224.7285">Electrike</text><line style="stroke:#181818;stroke-width:0.5;" x1="586.5" x2="676.5" y1="235" y2="235"/><text fill="#000000" font-family="sans-serif" font-size="14" lengthAdjust="spacing" textLength="80" x="591.5" y="253.5332">name: String</text><text fill="#000000" font-family="sans-serif" font-size="14" lengthAdjust="spacing" textLength="52" x="591.5" y="271.1426">level: int</text><line style="stroke:#181818;stroke-width:0.5;" x1="586.5" x2="676.5" y1="278.2188" y2="278.2188"/><ellipse cx="596.5" cy="292.5234" fill="#84BE84" rx="3" ry="3" style="stroke:#038048;stroke-width:1.0;"/><text fill="#000000" font-family="sans-serif" font-size="14" lengthAdjust="spacing" textLength="64" x="605.5" y="296.752">Electrike()</text></g><!--class Manectric--><g id="elem_Manectric"><rect codeLine="19" fill="#F1F1F1" height="100.8281" id="Manectric" rx="2.5" ry="2.5" style="stroke:#181818;stroke-width:0.5;" width="97" x="713" y="42"/><ellipse cx="729.8" cy="58" fill="#ADD1B2" rx="11" ry="11" style="stroke:#181818;stroke-width:1.0;"/><path d="M732.5656,53.875 Q732.7219,53.6563 732.9094,53.5469 Q733.0969,53.4375 733.3156,53.4375 Q733.6906,53.4375 733.925,53.7031 Q734.1594,53.9531 734.1594,54.5625 L734.1594,56.0156 Q734.1594,56.625 733.925,56.8906 Q733.6906,57.1563 733.3156,57.1563 Q732.9719,57.1563 732.7688,56.9531 Q732.5656,56.7656 732.4563,56.25 Q732.4094,55.8906 732.2219,55.7031 Q731.8938,55.3281 731.2844,55.1094 Q730.675,54.8906 730.05,54.8906 Q729.2844,54.8906 728.6438,55.2188 Q728.0188,55.5469 727.5188,56.2969 Q727.0344,57.0469 727.0344,58.0781 L727.0344,59.1719 Q727.0344,60.4063 727.925,61.2344 Q728.8156,62.0469 730.4094,62.0469 Q731.3469,62.0469 732.0031,61.7969 Q732.3938,61.6406 732.8156,61.2031 Q733.0813,60.9375 733.2219,60.8594 Q733.3781,60.7813 733.5813,60.7813 Q733.9094,60.7813 734.1594,61.0469 Q734.425,61.2969 734.425,61.6406 Q734.425,61.9844 734.0813,62.3906 Q733.5813,62.9688 732.7844,63.2969 Q731.7063,63.75 730.4094,63.75 Q728.8938,63.75 727.6906,63.125 Q726.7063,62.625 726.0188,61.5625 Q725.3313,60.4844 725.3313,59.2031 L725.3313,58.0469 Q725.3313,56.7188 725.9406,55.5781 Q726.5656,54.4219 727.6594,53.8125 Q728.7531,53.1875 729.9875,53.1875 Q730.7219,53.1875 731.3625,53.3594 Q732.0188,53.5156 732.5656,53.875 Z " fill="#000000"/><text fill="#000000" font-family="sans-serif" font-size="14" lengthAdjust="spacing" textLength="61" x="744.2" y="63.7285">Manectric</text><line style="stroke:#181818;stroke-width:0.5;" x1="714" x2="809" y1="74" y2="74"/><text fill="#000000" font-family="sans-serif" font-size="14" lengthAdjust="spacing" textLength="80" x="719" y="92.5332">name: String</text><text fill="#000000" font-family="sans-serif" font-size="14" lengthAdjust="spacing" textLength="52" x="719" y="110.1426">level: int</text><line style="stroke:#181818;stroke-width:0.5;" x1="714" x2="809" y1="117.2188" y2="117.2188"/><ellipse cx="724" cy="131.5234" fill="#84BE84" rx="3" ry="3" style="stroke:#038048;stroke-width:1.0;"/><text fill="#000000" font-family="sans-serif" font-size="14" lengthAdjust="spacing" textLength="71" x="733" y="135.752">Manectric()</text></g><!--class Togepi--><g id="elem_Togepi"><rect codeLine="25" fill="#F1F1F1" height="100.8281" id="Togepi" rx="2.5" ry="2.5" style="stroke:#181818;stroke-width:0.5;" width="92" x="585.5" y="364"/><ellipse cx="607.7" cy="380" fill="#ADD1B2" rx="11" ry="11" style="stroke:#181818;stroke-width:1.0;"/><path d="M610.4656,375.875 Q610.6219,375.6563 610.8094,375.5469 Q610.9969,375.4375 611.2156,375.4375 Q611.5906,375.4375 611.825,375.7031 Q612.0594,375.9531 612.0594,376.5625 L612.0594,378.0156 Q612.0594,378.625 611.825,378.8906 Q611.5906,379.1563 611.2156,379.1563 Q610.8719,379.1563 610.6688,378.9531 Q610.4656,378.7656 610.3563,378.25 Q610.3094,377.8906 610.1219,377.7031 Q609.7938,377.3281 609.1844,377.1094 Q608.575,376.8906 607.95,376.8906 Q607.1844,376.8906 606.5438,377.2188 Q605.9188,377.5469 605.4188,378.2969 Q604.9344,379.0469 604.9344,380.0781 L604.9344,381.1719 Q604.9344,382.4063 605.825,383.2344 Q606.7156,384.0469 608.3094,384.0469 Q609.2469,384.0469 609.9031,383.7969 Q610.2938,383.6406 610.7156,383.2031 Q610.9813,382.9375 611.1219,382.8594 Q611.2781,382.7813 611.4813,382.7813 Q611.8094,382.7813 612.0594,383.0469 Q612.325,383.2969 612.325,383.6406 Q612.325,383.9844 611.9813,384.3906 Q611.4813,384.9688 610.6844,385.2969 Q609.6063,385.75 608.3094,385.75 Q606.7938,385.75 605.5906,385.125 Q604.6063,384.625 603.9188,383.5625 Q603.2313,382.4844 603.2313,381.2031 L603.2313,380.0469 Q603.2313,378.7188 603.8406,377.5781 Q604.4656,376.4219 605.5594,375.8125 Q606.6531,375.1875 607.8875,375.1875 Q608.6219,375.1875 609.2625,375.3594 Q609.9188,375.5156 610.4656,375.875 Z " fill="#000000"/><text fill="#000000" font-family="sans-serif" font-size="14" lengthAdjust="spacing" textLength="44" x="623.3" y="385.7285">Togepi</text><line style="stroke:#181818;stroke-width:0.5;" x1="586.5" x2="676.5" y1="396" y2="396"/><text fill="#000000" font-family="sans-serif" font-size="14" lengthAdjust="spacing" textLength="80" x="591.5" y="414.5332">name: String</text><text fill="#000000" font-family="sans-serif" font-size="14" lengthAdjust="spacing" textLength="52" x="591.5" y="432.1426">level: int</text><line style="stroke:#181818;stroke-width:0.5;" x1="586.5" x2="676.5" y1="439.2188" y2="439.2188"/><ellipse cx="596.5" cy="453.5234" fill="#84BE84" rx="3" ry="3" style="stroke:#038048;stroke-width:1.0;"/><text fill="#000000" font-family="sans-serif" font-size="14" lengthAdjust="spacing" textLength="54" x="605.5" y="457.752">Togepi()</text></g><!--class Togetic--><g id="elem_Togetic"><rect codeLine="31" fill="#F1F1F1" height="100.8281" id="Togetic" rx="2.5" ry="2.5" style="stroke:#181818;stroke-width:0.5;" width="92" x="712.5" y="203"/><ellipse cx="733.35" cy="219" fill="#ADD1B2" rx="11" ry="11" style="stroke:#181818;stroke-width:1.0;"/><path d="M736.1156,214.875 Q736.2719,214.6563 736.4594,214.5469 Q736.6469,214.4375 736.8656,214.4375 Q737.2406,214.4375 737.475,214.7031 Q737.7094,214.9531 737.7094,215.5625 L737.7094,217.0156 Q737.7094,217.625 737.475,217.8906 Q737.2406,218.1563 736.8656,218.1563 Q736.5219,218.1563 736.3188,217.9531 Q736.1156,217.7656 736.0063,217.25 Q735.9594,216.8906 735.7719,216.7031 Q735.4438,216.3281 734.8344,216.1094 Q734.225,215.8906 733.6,215.8906 Q732.8344,215.8906 732.1938,216.2188 Q731.5688,216.5469 731.0688,217.2969 Q730.5844,218.0469 730.5844,219.0781 L730.5844,220.1719 Q730.5844,221.4063 731.475,222.2344 Q732.3656,223.0469 733.9594,223.0469 Q734.8969,223.0469 735.5531,222.7969 Q735.9438,222.6406 736.3656,222.2031 Q736.6313,221.9375 736.7719,221.8594 Q736.9281,221.7813 737.1313,221.7813 Q737.4594,221.7813 737.7094,222.0469 Q737.975,222.2969 737.975,222.6406 Q737.975,222.9844 737.6313,223.3906 Q737.1313,223.9688 736.3344,224.2969 Q735.2563,224.75 733.9594,224.75 Q732.4438,224.75 731.2406,224.125 Q730.2563,223.625 729.5688,222.5625 Q728.8813,221.4844 728.8813,220.2031 L728.8813,219.0469 Q728.8813,217.7188 729.4906,216.5781 Q730.1156,215.4219 731.2094,214.8125 Q732.3031,214.1875 733.5375,214.1875 Q734.2719,214.1875 734.9125,214.3594 Q735.5688,214.5156 736.1156,214.875 Z " fill="#000000"/><text fill="#000000" font-family="sans-serif" font-size="14" lengthAdjust="spacing" textLength="47" x="748.65" y="224.7285">Togetic</text><line style="stroke:#181818;stroke-width:0.5;" x1="713.5" x2="803.5" y1="235" y2="235"/><text fill="#000000" font-family="sans-serif" font-size="14" lengthAdjust="spacing" textLength="80" x="718.5" y="253.5332">name: String</text><text fill="#000000" font-family="sans-serif" font-size="14" lengthAdjust="spacing" textLength="52" x="718.5" y="271.1426">level: int</text><line style="stroke:#181818;stroke-width:0.5;" x1="713.5" x2="803.5" y1="278.2188" y2="278.2188"/><ellipse cx="723.5" cy="292.5234" fill="#84BE84" rx="3" ry="3" style="stroke:#038048;stroke-width:1.0;"/><text fill="#000000" font-family="sans-serif" font-size="14" lengthAdjust="spacing" textLength="57" x="732.5" y="296.752">Togetic()</text></g><!--class Togekiss--><g id="elem_Togekiss"><rect codeLine="37" fill="#F1F1F1" height="100.8281" id="Togekiss" rx="2.5" ry="2.5" style="stroke:#181818;stroke-width:0.5;" width="93" x="845" y="42"/><ellipse cx="861.8" cy="58" fill="#ADD1B2" rx="11" ry="11" style="stroke:#181818;stroke-width:1.0;"/><path d="M864.5656,53.875 Q864.7219,53.6563 864.9094,53.5469 Q865.0969,53.4375 865.3156,53.4375 Q865.6906,53.4375 865.925,53.7031 Q866.1594,53.9531 866.1594,54.5625 L866.1594,56.0156 Q866.1594,56.625 865.925,56.8906 Q865.6906,57.1563 865.3156,57.1563 Q864.9719,57.1563 864.7688,56.9531 Q864.5656,56.7656 864.4563,56.25 Q864.4094,55.8906 864.2219,55.7031 Q863.8938,55.3281 863.2844,55.1094 Q862.675,54.8906 862.05,54.8906 Q861.2844,54.8906 860.6438,55.2188 Q860.0188,55.5469 859.5188,56.2969 Q859.0344,57.0469 859.0344,58.0781 L859.0344,59.1719 Q859.0344,60.4063 859.925,61.2344 Q860.8156,62.0469 862.4094,62.0469 Q863.3469,62.0469 864.0031,61.7969 Q864.3938,61.6406 864.8156,61.2031 Q865.0813,60.9375 865.2219,60.8594 Q865.3781,60.7813 865.5813,60.7813 Q865.9094,60.7813 866.1594,61.0469 Q866.425,61.2969 866.425,61.6406 Q866.425,61.9844 866.0813,62.3906 Q865.5813,62.9688 864.7844,63.2969 Q863.7063,63.75 862.4094,63.75 Q860.8938,63.75 859.6906,63.125 Q858.7063,62.625 858.0188,61.5625 Q857.3313,60.4844 857.3313,59.2031 L857.3313,58.0469 Q857.3313,56.7188 857.9406,55.5781 Q858.5656,54.4219 859.6594,53.8125 Q860.7531,53.1875 861.9875,53.1875 Q862.7219,53.1875 863.3625,53.3594 Q864.0188,53.5156 864.5656,53.875 Z " fill="#000000"/><text fill="#000000" font-family="sans-serif" font-size="14" lengthAdjust="spacing" textLength="57" x="876.2" y="63.7285">Togekiss</text><line style="stroke:#181818;stroke-width:0.5;" x1="846" x2="937" y1="74" y2="74"/><text fill="#000000" font-family="sans-serif" font-size="14" lengthAdjust="spacing" textLength="80" x="851" y="92.5332">name: String</text><text fill="#000000" font-family="sans-serif" font-size="14" lengthAdjust="spacing" textLength="52" x="851" y="110.1426">level: int</text><line style="stroke:#181818;stroke-width:0.5;" x1="846" x2="937" y1="117.2188" y2="117.2188"/><ellipse cx="856" cy="131.5234" fill="#84BE84" rx="3" ry="3" style="stroke:#038048;stroke-width:1.0;"/><text fill="#000000" font-family="sans-serif" font-size="14" lengthAdjust="spacing" textLength="67" x="865" y="135.752">Togekiss()</text></g><!--class XScissors--><g id="elem_XScissors"><rect codeLine="53" fill="#F1F1F1" height="136.0469" id="XScissors" rx="2.5" ry="2.5" style="stroke:#181818;stroke-width:0.5;" width="135" x="446" y="594"/><ellipse cx="479.9" cy="610" fill="#ADD1B2" rx="11" ry="11" style="stroke:#181818;stroke-width:1.0;"/><path d="M482.6656,605.875 Q482.8219,605.6563 483.0094,605.5469 Q483.1969,605.4375 483.4156,605.4375 Q483.7906,605.4375 484.025,605.7031 Q484.2594,605.9531 484.2594,606.5625 L484.2594,608.0156 Q484.2594,608.625 484.025,608.8906 Q483.7906,609.1563 483.4156,609.1563 Q483.0719,609.1563 482.8688,608.9531 Q482.6656,608.7656 482.5563,608.25 Q482.5094,607.8906 482.3219,607.7031 Q481.9938,607.3281 481.3844,607.1094 Q480.775,606.8906 480.15,606.8906 Q479.3844,606.8906 478.7438,607.2188 Q478.1188,607.5469 477.6188,608.2969 Q477.1344,609.0469 477.1344,610.0781 L477.1344,611.1719 Q477.1344,612.4063 478.025,613.2344 Q478.9156,614.0469 480.5094,614.0469 Q481.4469,614.0469 482.1031,613.7969 Q482.4938,613.6406 482.9156,613.2031 Q483.1813,612.9375 483.3219,612.8594 Q483.4781,612.7813 483.6813,612.7813 Q484.0094,612.7813 484.2594,613.0469 Q484.525,613.2969 484.525,613.6406 Q484.525,613.9844 484.1813,614.3906 Q483.6813,614.9688 482.8844,615.2969 Q481.8063,615.75 480.5094,615.75 Q478.9938,615.75 477.7906,615.125 Q476.8063,614.625 476.1188,613.5625 Q475.4313,612.4844 475.4313,611.2031 L475.4313,610.0469 Q475.4313,608.7188 476.0406,607.5781 Q476.6656,606.4219 477.7594,605.8125 Q478.8531,605.1875 480.0875,605.1875 Q480.8219,605.1875 481.4625,605.3594 Q482.1188,605.5156 482.6656,605.875 Z " fill="#000000"/><text fill="#000000" font-family="sans-serif" font-size="14" lengthAdjust="spacing" textLength="61" x="498.1" y="615.7285">XScissors</text><line style="stroke:#181818;stroke-width:0.5;" x1="447" x2="580" y1="626" y2="626"/><text fill="#000000" font-family="sans-serif" font-size="14" lengthAdjust="spacing" textLength="67" x="452" y="644.5332">type: Type</text><text fill="#000000" font-family="sans-serif" font-size="14" lengthAdjust="spacing" textLength="76" x="452" y="662.1426">pow: double</text><text fill="#000000" font-family="sans-serif" font-size="14" lengthAdjust="spacing" textLength="73" x="452" y="679.752">acc: double</text><line style="stroke:#181818;stroke-width:0.5;" x1="447" x2="580" y1="686.8281" y2="686.8281"/><ellipse cx="457" cy="701.1328" fill="#84BE84" rx="3" ry="3" style="stroke:#038048;stroke-width:1.0;"/><text fill="#000000" font-family="sans-serif" font-size="14" lengthAdjust="spacing" textLength="71" x="466" y="705.3613">XScissors()</text><polygon fill="#FFFF44" points="457,713.7422,461,717.7422,457,721.7422,453,717.7422" style="stroke:#B38D22;stroke-width:1.0;"/><text fill="#000000" font-family="sans-serif" font-size="14" lengthAdjust="spacing" textLength="109" x="466" y="722.9707">describe(): String</text></g><!--class PoisonJab--><g id="elem_PoisonJab"><rect codeLine="60" fill="#F1F1F1" height="153.6563" id="PoisonJab" rx="2.5" ry="2.5" style="stroke:#181818;stroke-width:0.5;" width="174" x="236.5" y="585"/><ellipse cx="286.75" cy="601" fill="#ADD1B2" rx="11" ry="11" style="stroke:#181818;stroke-width:1.0;"/><path d="M289.5156,596.875 Q289.6719,596.6563 289.8594,596.5469 Q290.0469,596.4375 290.2656,596.4375 Q290.6406,596.4375 290.875,596.7031 Q291.1094,596.9531 291.1094,597.5625 L291.1094,599.0156 Q291.1094,599.625 290.875,599.8906 Q290.6406,600.1563 290.2656,600.1563 Q289.9219,600.1563 289.7188,599.9531 Q289.5156,599.7656 289.4063,599.25 Q289.3594,598.8906 289.1719,598.7031 Q288.8438,598.3281 288.2344,598.1094 Q287.625,597.8906 287,597.8906 Q286.2344,597.8906 285.5938,598.2188 Q284.9688,598.5469 284.4688,599.2969 Q283.9844,600.0469 283.9844,601.0781 L283.9844,602.1719 Q283.9844,603.4063 284.875,604.2344 Q285.7656,605.0469 287.3594,605.0469 Q288.2969,605.0469 288.9531,604.7969 Q289.3438,604.6406 289.7656,604.2031 Q290.0313,603.9375 290.1719,603.8594 Q290.3281,603.7813 290.5313,603.7813 Q290.8594,603.7813 291.1094,604.0469 Q291.375,604.2969 291.375,604.6406 Q291.375,604.9844 291.0313,605.3906 Q290.5313,605.9688 289.7344,606.2969 Q288.6563,606.75 287.3594,606.75 Q285.8438,606.75 284.6406,606.125 Q283.6563,605.625 282.9688,604.5625 Q282.2813,603.4844 282.2813,602.2031 L282.2813,601.0469 Q282.2813,599.7188 282.8906,598.5781 Q283.5156,597.4219 284.6094,596.8125 Q285.7031,596.1875 286.9375,596.1875 Q287.6719,596.1875 288.3125,596.3594 Q288.9688,596.5156 289.5156,596.875 Z " fill="#000000"/><text fill="#000000" font-family="sans-serif" font-size="14" lengthAdjust="spacing" textLength="65" x="307.25" y="606.7285">PoisonJab</text><line style="stroke:#181818;stroke-width:0.5;" x1="237.5" x2="409.5" y1="617" y2="617"/><text fill="#000000" font-family="sans-serif" font-size="14" lengthAdjust="spacing" textLength="67" x="242.5" y="635.5332">type: Type</text><text fill="#000000" font-family="sans-serif" font-size="14" lengthAdjust="spacing" textLength="76" x="242.5" y="653.1426">pow: double</text><text fill="#000000" font-family="sans-serif" font-size="14" lengthAdjust="spacing" textLength="73" x="242.5" y="670.752">acc: double</text><line style="stroke:#181818;stroke-width:0.5;" x1="237.5" x2="409.5" y1="677.8281" y2="677.8281"/><ellipse cx="247.5" cy="692.1328" fill="#84BE84" rx="3" ry="3" style="stroke:#038048;stroke-width:1.0;"/><text fill="#000000" font-family="sans-serif" font-size="14" lengthAdjust="spacing" textLength="75" x="256.5" y="696.3613">PoisonJab()</text><polygon fill="#FFFF44" points="247.5,704.7422,251.5,708.7422,247.5,712.7422,243.5,708.7422" style="stroke:#B38D22;stroke-width:1.0;"/><text fill="#000000" font-family="sans-serif" font-size="14" lengthAdjust="spacing" textLength="148" x="256.5" y="713.9707">applyOppEffects(): void</text><polygon fill="#FFFF44" points="247.5,722.3516,251.5,726.3516,247.5,730.3516,243.5,726.3516" style="stroke:#B38D22;stroke-width:1.0;"/><text fill="#000000" font-family="sans-serif" font-size="14" lengthAdjust="spacing" textLength="109" x="256.5" y="731.5801">describe(): String</text></g><!--class Facade--><g id="elem_Facade"><rect codeLine="68" fill="#F1F1F1" height="153.6563" id="Facade" rx="2.5" ry="2.5" style="stroke:#181818;stroke-width:0.5;" width="184" x="616.5" y="585"/><ellipse cx="680.25" cy="601" fill="#ADD1B2" rx="11" ry="11" style="stroke:#181818;stroke-width:1.0;"/><path d="M683.0156,596.875 Q683.1719,596.6563 683.3594,596.5469 Q683.5469,596.4375 683.7656,596.4375 Q684.1406,596.4375 684.375,596.7031 Q684.6094,596.9531 684.6094,597.5625 L684.6094,599.0156 Q684.6094,599.625 684.375,599.8906 Q684.1406,600.1563 683.7656,600.1563 Q683.4219,600.1563 683.2188,599.9531 Q683.0156,599.7656 682.9063,599.25 Q682.8594,598.8906 682.6719,598.7031 Q682.3438,598.3281 681.7344,598.1094 Q681.125,597.8906 680.5,597.8906 Q679.7344,597.8906 679.0938,598.2188 Q678.4688,598.5469 677.9688,599.2969 Q677.4844,600.0469 677.4844,601.0781 L677.4844,602.1719 Q677.4844,603.4063 678.375,604.2344 Q679.2656,605.0469 680.8594,605.0469 Q681.7969,605.0469 682.4531,604.7969 Q682.8438,604.6406 683.2656,604.2031 Q683.5313,603.9375 683.6719,603.8594 Q683.8281,603.7813 684.0313,603.7813 Q684.3594,603.7813 684.6094,604.0469 Q684.875,604.2969 684.875,604.6406 Q684.875,604.9844 684.5313,605.3906 Q684.0313,605.9688 683.2344,606.2969 Q682.1563,606.75 680.8594,606.75 Q679.3438,606.75 678.1406,606.125 Q677.1563,605.625 676.4688,604.5625 Q675.7813,603.4844 675.7813,602.2031 L675.7813,601.0469 Q675.7813,599.7188 676.3906,598.5781 Q677.0156,597.4219 678.1094,596.8125 Q679.2031,596.1875 680.4375,596.1875 Q681.1719,596.1875 681.8125,596.3594 Q682.4688,596.5156 683.0156,596.875 Z " fill="#000000"/><text fill="#000000" font-family="sans-serif" font-size="14" lengthAdjust="spacing" textLength="48" x="700.75" y="606.7285">Facade</text><line style="stroke:#181818;stroke-width:0.5;" x1="617.5" x2="799.5" y1="617" y2="617"/><text fill="#000000" font-family="sans-serif" font-size="14" lengthAdjust="spacing" textLength="67" x="622.5" y="635.5332">type: Type</text><text fill="#000000" font-family="sans-serif" font-size="14" lengthAdjust="spacing" textLength="76" x="622.5" y="653.1426">pow: double</text><text fill="#000000" font-family="sans-serif" font-size="14" lengthAdjust="spacing" textLength="73" x="622.5" y="670.752">acc: double</text><line style="stroke:#181818;stroke-width:0.5;" x1="617.5" x2="799.5" y1="677.8281" y2="677.8281"/><ellipse cx="627.5" cy="692.1328" fill="#84BE84" rx="3" ry="3" style="stroke:#038048;stroke-width:1.0;"/><text fill="#000000" font-family="sans-serif" font-size="14" lengthAdjust="spacing" textLength="58" x="636.5" y="696.3613">Facade()</text><polygon fill="#FFFF44" points="627.5,704.7422,631.5,708.7422,627.5,712.7422,623.5,708.7422" style="stroke:#B38D22;stroke-width:1.0;"/><text fill="#000000" font-family="sans-serif" font-size="14" lengthAdjust="spacing" textLength="158" x="636.5" y="713.9707">applyOppDamage(): void</text><polygon fill="#FFFF44" points="627.5,722.3516,631.5,726.3516,627.5,730.3516,623.5,726.3516" style="stroke:#B38D22;stroke-width:1.0;"/><text fill="#000000" font-family="sans-serif" font-size="14" lengthAdjust="spacing" textLength="109" x="636.5" y="731.5801">describe(): String</text></g><!--class Overheat--><g id="elem_Overheat"><rect codeLine="79" fill="#F1F1F1" height="153.6563" id="Overheat" rx="2.5" ry="2.5" style="stroke:#181818;stroke-width:0.5;" width="171" x="1918" y="585"/><ellipse cx="1969.75" cy="601" fill="#ADD1B2" rx="11" ry="11" style="stroke:#181818;stroke-width:1.0;"/><path d="M1972.5156,596.875 Q1972.6719,596.6563 1972.8594,596.5469 Q1973.0469,596.4375 1973.2656,596.4375 Q1973.6406,596.4375 1973.875,596.7031 Q1974.1094,596.9531 1974.1094,597.5625 L1974.1094,599.0156 Q1974.1094,599.625 1973.875,599.8906 Q1973.6406,600.1563 1973.2656,600.1563 Q1972.9219,600.1563 1972.7188,599.9531 Q1972.5156,599.7656 1972.4063,599.25 Q1972.3594,598.8906 1972.1719,598.7031 Q1971.8438,598.3281 1971.2344,598.1094 Q1970.625,597.8906 1970,597.8906 Q1969.2344,597.8906 1968.5938,598.2188 Q1967.9688,598.5469 1967.4688,599.2969 Q1966.9844,600.0469 1966.9844,601.0781 L1966.9844,602.1719 Q1966.9844,603.4063 1967.875,604.2344 Q1968.7656,605.0469 1970.3594,605.0469 Q1971.2969,605.0469 1971.9531,604.7969 Q1972.3438,604.6406 1972.7656,604.2031 Q1973.0313,603.9375 1973.1719,603.8594 Q1973.3281,603.7813 1973.5313,603.7813 Q1973.8594,603.7813 1974.1094,604.0469 Q1974.375,604.2969 1974.375,604.6406 Q1974.375,604.9844 1974.0313,605.3906 Q1973.5313,605.9688 1972.7344,606.2969 Q1971.6563,606.75 1970.3594,606.75 Q1968.8438,606.75 1967.6406,606.125 Q1966.6563,605.625 1965.9688,604.5625 Q1965.2813,603.4844 1965.2813,602.2031 L1965.2813,601.0469 Q1965.2813,599.7188 1965.8906,598.5781 Q1966.5156,597.4219 1967.6094,596.8125 Q1968.7031,596.1875 1969.9375,596.1875 Q1970.6719,596.1875 1971.3125,596.3594 Q1971.9688,596.5156 1972.5156,596.875 Z " fill="#000000"/><text fill="#000000" font-family="sans-serif" font-size="14" lengthAdjust="spacing" textLength="59" x="1990.25" y="606.7285">Overheat</text><line style="stroke:#181818;stroke-width:0.5;" x1="1919" x2="2088" y1="617" y2="617"/><text fill="#000000" font-family="sans-serif" font-size="14" lengthAdjust="spacing" textLength="67" x="1924" y="635.5332">type: Type</text><text fill="#000000" font-family="sans-serif" font-size="14" lengthAdjust="spacing" textLength="76" x="1924" y="653.1426">pow: double</text><text fill="#000000" font-family="sans-serif" font-size="14" lengthAdjust="spacing" textLength="73" x="1924" y="670.752">acc: double</text><line style="stroke:#181818;stroke-width:0.5;" x1="1919" x2="2088" y1="677.8281" y2="677.8281"/><ellipse cx="1929" cy="692.1328" fill="#84BE84" rx="3" ry="3" style="stroke:#038048;stroke-width:1.0;"/><text fill="#000000" font-family="sans-serif" font-size="14" lengthAdjust="spacing" textLength="69" x="1938" y="696.3613">Overheat()</text><polygon fill="#FFFF44" points="1929,704.7422,1933,708.7422,1929,712.7422,1925,708.7422" style="stroke:#B38D22;stroke-width:1.0;"/><text fill="#000000" font-family="sans-serif" font-size="14" lengthAdjust="spacing" textLength="145" x="1938" y="713.9707">applySelfEffects(): void</text><polygon fill="#FFFF44" points="1929,722.3516,1933,726.3516,1929,730.3516,1925,726.3516" style="stroke:#B38D22;stroke-width:1.0;"/><text fill="#000000" font-family="sans-serif" font-size="14" lengthAdjust="spacing" textLength="109" x="1938" y="731.5801">describe(): String</text></g><!--class FireBlast--><g id="elem_FireBlast"><rect codeLine="87" fill="#F1F1F1" height="153.6563" id="FireBlast" rx="2.5" ry="2.5" style="stroke:#181818;stroke-width:0.5;" width="174" x="1499.5" y="585"/><ellipse cx="1554.25" cy="601" fill="#ADD1B2" rx="11" ry="11" style="stroke:#181818;stroke-width:1.0;"/><path d="M1557.0156,596.875 Q1557.1719,596.6563 1557.3594,596.5469 Q1557.5469,596.4375 1557.7656,596.4375 Q1558.1406,596.4375 1558.375,596.7031 Q1558.6094,596.9531 1558.6094,597.5625 L1558.6094,599.0156 Q1558.6094,599.625 1558.375,599.8906 Q1558.1406,600.1563 1557.7656,600.1563 Q1557.4219,600.1563 1557.2188,599.9531 Q1557.0156,599.7656 1556.9063,599.25 Q1556.8594,598.8906 1556.6719,598.7031 Q1556.3438,598.3281 1555.7344,598.1094 Q1555.125,597.8906 1554.5,597.8906 Q1553.7344,597.8906 1553.0938,598.2188 Q1552.4688,598.5469 1551.9688,599.2969 Q1551.4844,600.0469 1551.4844,601.0781 L1551.4844,602.1719 Q1551.4844,603.4063 1552.375,604.2344 Q1553.2656,605.0469 1554.8594,605.0469 Q1555.7969,605.0469 1556.4531,604.7969 Q1556.8438,604.6406 1557.2656,604.2031 Q1557.5313,603.9375 1557.6719,603.8594 Q1557.8281,603.7813 1558.0313,603.7813 Q1558.3594,603.7813 1558.6094,604.0469 Q1558.875,604.2969 1558.875,604.6406 Q1558.875,604.9844 1558.5313,605.3906 Q1558.0313,605.9688 1557.2344,606.2969 Q1556.1563,606.75 1554.8594,606.75 Q1553.3438,606.75 1552.1406,606.125 Q1551.1563,605.625 1550.4688,604.5625 Q1549.7813,603.4844 1549.7813,602.2031 L1549.7813,601.0469 Q1549.7813,599.7188 1550.3906,598.5781 Q1551.0156,597.4219 1552.1094,596.8125 Q1553.2031,596.1875 1554.4375,596.1875 Q1555.1719,596.1875 1555.8125,596.3594 Q1556.4688,596.5156 1557.0156,596.875 Z " fill="#000000"/><text fill="#000000" font-family="sans-serif" font-size="14" lengthAdjust="spacing" textLength="56" x="1574.75" y="606.7285">FireBlast</text><line style="stroke:#181818;stroke-width:0.5;" x1="1500.5" x2="1672.5" y1="617" y2="617"/><text fill="#000000" font-family="sans-serif" font-size="14" lengthAdjust="spacing" textLength="67" x="1505.5" y="635.5332">type: Type</text><text fill="#000000" font-family="sans-serif" font-size="14" lengthAdjust="spacing" textLength="76" x="1505.5" y="653.1426">pow: double</text><text fill="#000000" font-family="sans-serif" font-size="14" lengthAdjust="spacing" textLength="73" x="1505.5" y="670.752">acc: double</text><line style="stroke:#181818;stroke-width:0.5;" x1="1500.5" x2="1672.5" y1="677.8281" y2="677.8281"/><ellipse cx="1510.5" cy="692.1328" fill="#84BE84" rx="3" ry="3" style="stroke:#038048;stroke-width:1.0;"/><text fill="#000000" font-family="sans-serif" font-size="14" lengthAdjust="spacing" textLength="66" x="1519.5" y="696.3613">FireBlast()</text><polygon fill="#FFFF44" points="1510.5,704.7422,1514.5,708.7422,1510.5,712.7422,1506.5,708.7422" style="stroke:#B38D22;stroke-width:1.0;"/><text fill="#000000" font-family="sans-serif" font-size="14" lengthAdjust="spacing" textLength="148" x="1519.5" y="713.9707">applyOppEffects(): void</text><polygon fill="#FFFF44" points="1510.5,722.3516,1514.5,726.3516,1510.5,730.3516,1506.5,726.3516" style="stroke:#B38D22;stroke-width:1.0;"/><text fill="#000000" font-family="sans-serif" font-size="14" lengthAdjust="spacing" textLength="109" x="1519.5" y="731.5801">describe(): String</text></g><!--class ShadowBall--><g id="elem_ShadowBall"><rect codeLine="95" fill="#F1F1F1" height="153.6563" id="ShadowBall" rx="2.5" ry="2.5" style="stroke:#181818;stroke-width:0.5;" width="174" x="1708.5" y="585"/><ellipse cx="1754.75" cy="601" fill="#ADD1B2" rx="11" ry="11" style="stroke:#181818;stroke-width:1.0;"/><path d="M1757.5156,596.875 Q1757.6719,596.6563 1757.8594,596.5469 Q1758.0469,596.4375 1758.2656,596.4375 Q1758.6406,596.4375 1758.875,596.7031 Q1759.1094,596.9531 1759.1094,597.5625 L1759.1094,599.0156 Q1759.1094,599.625 1758.875,599.8906 Q1758.6406,600.1563 1758.2656,600.1563 Q1757.9219,600.1563 1757.7188,599.9531 Q1757.5156,599.7656 1757.4063,599.25 Q1757.3594,598.8906 1757.1719,598.7031 Q1756.8438,598.3281 1756.2344,598.1094 Q1755.625,597.8906 1755,597.8906 Q1754.2344,597.8906 1753.5938,598.2188 Q1752.9688,598.5469 1752.4688,599.2969 Q1751.9844,600.0469 1751.9844,601.0781 L1751.9844,602.1719 Q1751.9844,603.4063 1752.875,604.2344 Q1753.7656,605.0469 1755.3594,605.0469 Q1756.2969,605.0469 1756.9531,604.7969 Q1757.3438,604.6406 1757.7656,604.2031 Q1758.0313,603.9375 1758.1719,603.8594 Q1758.3281,603.7813 1758.5313,603.7813 Q1758.8594,603.7813 1759.1094,604.0469 Q1759.375,604.2969 1759.375,604.6406 Q1759.375,604.9844 1759.0313,605.3906 Q1758.5313,605.9688 1757.7344,606.2969 Q1756.6563,606.75 1755.3594,606.75 Q1753.8438,606.75 1752.6406,606.125 Q1751.6563,605.625 1750.9688,604.5625 Q1750.2813,603.4844 1750.2813,602.2031 L1750.2813,601.0469 Q1750.2813,599.7188 1750.8906,598.5781 Q1751.5156,597.4219 1752.6094,596.8125 Q1753.7031,596.1875 1754.9375,596.1875 Q1755.6719,596.1875 1756.3125,596.3594 Q1756.9688,596.5156 1757.5156,596.875 Z " fill="#000000"/><text fill="#000000" font-family="sans-serif" font-size="14" lengthAdjust="spacing" textLength="73" x="1775.25" y="606.7285">ShadowBall</text><line style="stroke:#181818;stroke-width:0.5;" x1="1709.5" x2="1881.5" y1="617" y2="617"/><text fill="#000000" font-family="sans-serif" font-size="14" lengthAdjust="spacing" textLength="67" x="1714.5" y="635.5332">type: Type</text><text fill="#000000" font-family="sans-serif" font-size="14" lengthAdjust="spacing" textLength="76" x="1714.5" y="653.1426">pow: double</text><text fill="#000000" font-family="sans-serif" font-size="14" lengthAdjust="spacing" textLength="73" x="1714.5" y="670.752">acc: double</text><line style="stroke:#181818;stroke-width:0.5;" x1="1709.5" x2="1881.5" y1="677.8281" y2="677.8281"/><ellipse cx="1719.5" cy="692.1328" fill="#84BE84" rx="3" ry="3" style="stroke:#038048;stroke-width:1.0;"/><text fill="#000000" font-family="sans-serif" font-size="14" lengthAdjust="spacing" textLength="83" x="1728.5" y="696.3613">ShadowBall()</text><polygon fill="#FFFF44" points="1719.5,704.7422,1723.5,708.7422,1719.5,712.7422,1715.5,708.7422" style="stroke:#B38D22;stroke-width:1.0;"/><text fill="#000000" font-family="sans-serif" font-size="14" lengthAdjust="spacing" textLength="148" x="1728.5" y="713.9707">applyOppEffects(): void</text><polygon fill="#FFFF44" points="1719.5,722.3516,1723.5,726.3516,1719.5,730.3516,1715.5,726.3516" style="stroke:#B38D22;stroke-width:1.0;"/><text fill="#000000" font-family="sans-serif" font-size="14" lengthAdjust="spacing" textLength="109" x="1728.5" y="731.5801">describe(): String</text></g><!--class MagicalLeaf--><g id="elem_MagicalLeaf"><rect codeLine="103" fill="#F1F1F1" height="153.6563" id="MagicalLeaf" rx="2.5" ry="2.5" style="stroke:#181818;stroke-width:0.5;" width="174" x="2124.5" y="585"/><ellipse cx="2169.25" cy="601" fill="#ADD1B2" rx="11" ry="11" style="stroke:#181818;stroke-width:1.0;"/><path d="M2172.0156,596.875 Q2172.1719,596.6563 2172.3594,596.5469 Q2172.5469,596.4375 2172.7656,596.4375 Q2173.1406,596.4375 2173.375,596.7031 Q2173.6094,596.9531 2173.6094,597.5625 L2173.6094,599.0156 Q2173.6094,599.625 2173.375,599.8906 Q2173.1406,600.1563 2172.7656,600.1563 Q2172.4219,600.1563 2172.2188,599.9531 Q2172.0156,599.7656 2171.9063,599.25 Q2171.8594,598.8906 2171.6719,598.7031 Q2171.3438,598.3281 2170.7344,598.1094 Q2170.125,597.8906 2169.5,597.8906 Q2168.7344,597.8906 2168.0938,598.2188 Q2167.4688,598.5469 2166.9688,599.2969 Q2166.4844,600.0469 2166.4844,601.0781 L2166.4844,602.1719 Q2166.4844,603.4063 2167.375,604.2344 Q2168.2656,605.0469 2169.8594,605.0469 Q2170.7969,605.0469 2171.4531,604.7969 Q2171.8438,604.6406 2172.2656,604.2031 Q2172.5313,603.9375 2172.6719,603.8594 Q2172.8281,603.7813 2173.0313,603.7813 Q2173.3594,603.7813 2173.6094,604.0469 Q2173.875,604.2969 2173.875,604.6406 Q2173.875,604.9844 2173.5313,605.3906 Q2173.0313,605.9688 2172.2344,606.2969 Q2171.1563,606.75 2169.8594,606.75 Q2168.3438,606.75 2167.1406,606.125 Q2166.1563,605.625 2165.4688,604.5625 Q2164.7813,603.4844 2164.7813,602.2031 L2164.7813,601.0469 Q2164.7813,599.7188 2165.3906,598.5781 Q2166.0156,597.4219 2167.1094,596.8125 Q2168.2031,596.1875 2169.4375,596.1875 Q2170.1719,596.1875 2170.8125,596.3594 Q2171.4688,596.5156 2172.0156,596.875 Z " fill="#000000"/><text fill="#000000" font-family="sans-serif" font-size="14" lengthAdjust="spacing" textLength="76" x="2189.75" y="606.7285">MagicalLeaf</text><line style="stroke:#181818;stroke-width:0.5;" x1="2125.5" x2="2297.5" y1="617" y2="617"/><text fill="#000000" font-family="sans-serif" font-size="14" lengthAdjust="spacing" textLength="67" x="2130.5" y="635.5332">type: Type</text><text fill="#000000" font-family="sans-serif" font-size="14" lengthAdjust="spacing" textLength="76" x="2130.5" y="653.1426">pow: double</text><text fill="#000000" font-family="sans-serif" font-size="14" lengthAdjust="spacing" textLength="73" x="2130.5" y="670.752">acc: double</text><line style="stroke:#181818;stroke-width:0.5;" x1="2125.5" x2="2297.5" y1="677.8281" y2="677.8281"/><ellipse cx="2135.5" cy="692.1328" fill="#84BE84" rx="3" ry="3" style="stroke:#038048;stroke-width:1.0;"/><text fill="#000000" font-family="sans-serif" font-size="14" lengthAdjust="spacing" textLength="86" x="2144.5" y="696.3613">MagicalLeaf()</text><polygon fill="#FFFF44" points="2135.5,704.7422,2139.5,708.7422,2135.5,712.7422,2131.5,708.7422" style="stroke:#B38D22;stroke-width:1.0;"/><text fill="#000000" font-family="sans-serif" font-size="14" lengthAdjust="spacing" textLength="148" x="2144.5" y="713.9707">applyOppEffects(): void</text><polygon fill="#FFFF44" points="2135.5,722.3516,2139.5,726.3516,2135.5,730.3516,2131.5,726.3516" style="stroke:#B38D22;stroke-width:1.0;"/><text fill="#000000" font-family="sans-serif" font-size="14" lengthAdjust="spacing" textLength="109" x="2144.5" y="731.5801">describe(): String</text></g><!--class DazzlingGleam--><g id="elem_DazzlingGleam"><rect codeLine="111" fill="#F1F1F1" height="136.0469" id="DazzlingGleam" rx="2.5" ry="2.5" style="stroke:#181818;stroke-width:0.5;" width="135" x="2334" y="594"/><ellipse cx="2353.5" cy="610" fill="#ADD1B2" rx="11" ry="11" style="stroke:#181818;stroke-width:1.0;"/><path d="M2356.2656,605.875 Q2356.4219,605.6563 2356.6094,605.5469 Q2356.7969,605.4375 2357.0156,605.4375 Q2357.3906,605.4375 2357.625,605.7031 Q2357.8594,605.9531 2357.8594,606.5625 L2357.8594,608.0156 Q2357.8594,608.625 2357.625,608.8906 Q2357.3906,609.1563 2357.0156,609.1563 Q2356.6719,609.1563 2356.4688,608.9531 Q2356.2656,608.7656 2356.1563,608.25 Q2356.1094,607.8906 2355.9219,607.7031 Q2355.5938,607.3281 2354.9844,607.1094 Q2354.375,606.8906 2353.75,606.8906 Q2352.9844,606.8906 2352.3438,607.2188 Q2351.7188,607.5469 2351.2188,608.2969 Q2350.7344,609.0469 2350.7344,610.0781 L2350.7344,611.1719 Q2350.7344,612.4063 2351.625,613.2344 Q2352.5156,614.0469 2354.1094,614.0469 Q2355.0469,614.0469 2355.7031,613.7969 Q2356.0938,613.6406 2356.5156,613.2031 Q2356.7813,612.9375 2356.9219,612.8594 Q2357.0781,612.7813 2357.2813,612.7813 Q2357.6094,612.7813 2357.8594,613.0469 Q2358.125,613.2969 2358.125,613.6406 Q2358.125,613.9844 2357.7813,614.3906 Q2357.2813,614.9688 2356.4844,615.2969 Q2355.4063,615.75 2354.1094,615.75 Q2352.5938,615.75 2351.3906,615.125 Q2350.4063,614.625 2349.7188,613.5625 Q2349.0313,612.4844 2349.0313,611.2031 L2349.0313,610.0469 Q2349.0313,608.7188 2349.6406,607.5781 Q2350.2656,606.4219 2351.3594,605.8125 Q2352.4531,605.1875 2353.6875,605.1875 Q2354.4219,605.1875 2355.0625,605.3594 Q2355.7188,605.5156 2356.2656,605.875 Z " fill="#000000"/><text fill="#000000" font-family="sans-serif" font-size="14" lengthAdjust="spacing" textLength="93" x="2368.5" y="615.7285">DazzlingGleam</text><line style="stroke:#181818;stroke-width:0.5;" x1="2335" x2="2468" y1="626" y2="626"/><text fill="#000000" font-family="sans-serif" font-size="14" lengthAdjust="spacing" textLength="67" x="2340" y="644.5332">type: Type</text><text fill="#000000" font-family="sans-serif" font-size="14" lengthAdjust="spacing" textLength="76" x="2340" y="662.1426">pow: double</text><text fill="#000000" font-family="sans-serif" font-size="14" lengthAdjust="spacing" textLength="73" x="2340" y="679.752">acc: double</text><line style="stroke:#181818;stroke-width:0.5;" x1="2335" x2="2468" y1="686.8281" y2="686.8281"/><ellipse cx="2345" cy="701.1328" fill="#84BE84" rx="3" ry="3" style="stroke:#038048;stroke-width:1.0;"/><text fill="#000000" font-family="sans-serif" font-size="14" lengthAdjust="spacing" textLength="103" x="2354" y="705.3613">DazzlingGleam()</text><polygon fill="#FFFF44" points="2345,713.7422,2349,717.7422,2345,721.7422,2341,717.7422" style="stroke:#B38D22;stroke-width:1.0;"/><text fill="#000000" font-family="sans-serif" font-size="14" lengthAdjust="spacing" textLength="109" x="2354" y="722.9707">describe(): String</text></g><!--class Rest--><g id="elem_Rest"><rect codeLine="121" fill="#F1F1F1" height="153.6563" id="Rest" rx="2.5" ry="2.5" style="stroke:#181818;stroke-width:0.5;" width="171" x="1066" y="585"/><ellipse cx="1132.75" cy="601" fill="#ADD1B2" rx="11" ry="11" style="stroke:#181818;stroke-width:1.0;"/><path d="M1135.5156,596.875 Q1135.6719,596.6563 1135.8594,596.5469 Q1136.0469,596.4375 1136.2656,596.4375 Q1136.6406,596.4375 1136.875,596.7031 Q1137.1094,596.9531 1137.1094,597.5625 L1137.1094,599.0156 Q1137.1094,599.625 1136.875,599.8906 Q1136.6406,600.1563 1136.2656,600.1563 Q1135.9219,600.1563 1135.7188,599.9531 Q1135.5156,599.7656 1135.4063,599.25 Q1135.3594,598.8906 1135.1719,598.7031 Q1134.8438,598.3281 1134.2344,598.1094 Q1133.625,597.8906 1133,597.8906 Q1132.2344,597.8906 1131.5938,598.2188 Q1130.9688,598.5469 1130.4688,599.2969 Q1129.9844,600.0469 1129.9844,601.0781 L1129.9844,602.1719 Q1129.9844,603.4063 1130.875,604.2344 Q1131.7656,605.0469 1133.3594,605.0469 Q1134.2969,605.0469 1134.9531,604.7969 Q1135.3438,604.6406 1135.7656,604.2031 Q1136.0313,603.9375 1136.1719,603.8594 Q1136.3281,603.7813 1136.5313,603.7813 Q1136.8594,603.7813 1137.1094,604.0469 Q1137.375,604.2969 1137.375,604.6406 Q1137.375,604.9844 1137.0313,605.3906 Q1136.5313,605.9688 1135.7344,606.2969 Q1134.6563,606.75 1133.3594,606.75 Q1131.8438,606.75 1130.6406,606.125 Q1129.6563,605.625 1128.9688,604.5625 Q1128.2813,603.4844 1128.2813,602.2031 L1128.2813,601.0469 Q1128.2813,599.7188 1128.8906,598.5781 Q1129.5156,597.4219 1130.6094,596.8125 Q1131.7031,596.1875 1132.9375,596.1875 Q1133.6719,596.1875 1134.3125,596.3594 Q1134.9688,596.5156 1135.5156,596.875 Z " fill="#000000"/><text fill="#000000" font-family="sans-serif" font-size="14" lengthAdjust="spacing" textLength="29" x="1153.25" y="606.7285">Rest</text><line style="stroke:#181818;stroke-width:0.5;" x1="1067" x2="1236" y1="617" y2="617"/><text fill="#000000" font-family="sans-serif" font-size="14" lengthAdjust="spacing" textLength="67" x="1072" y="635.5332">type: Type</text><text fill="#000000" font-family="sans-serif" font-size="14" lengthAdjust="spacing" textLength="76" x="1072" y="653.1426">pow: double</text><text fill="#000000" font-family="sans-serif" font-size="14" lengthAdjust="spacing" textLength="73" x="1072" y="670.752">acc: double</text><line style="stroke:#181818;stroke-width:0.5;" x1="1067" x2="1236" y1="677.8281" y2="677.8281"/><ellipse cx="1077" cy="692.1328" fill="#84BE84" rx="3" ry="3" style="stroke:#038048;stroke-width:1.0;"/><text fill="#000000" font-family="sans-serif" font-size="14" lengthAdjust="spacing" textLength="39" x="1086" y="696.3613">Rest()</text><polygon fill="#FFFF44" points="1077,704.7422,1081,708.7422,1077,712.7422,1073,708.7422" style="stroke:#B38D22;stroke-width:1.0;"/><text fill="#000000" font-family="sans-serif" font-size="14" lengthAdjust="spacing" textLength="145" x="1086" y="713.9707">applySelfEffects(): void</text><polygon fill="#FFFF44" points="1077,722.3516,1081,726.3516,1077,730.3516,1073,726.3516" style="stroke:#B38D22;stroke-width:1.0;"/><text fill="#000000" font-family="sans-serif" font-size="14" lengthAdjust="spacing" textLength="109" x="1086" y="731.5801">describe(): String</text></g><!--class CalmMind--><g id="elem_CalmMind"><rect codeLine="129" fill="#F1F1F1" height="153.6563" id="CalmMind" rx="2.5" ry="2.5" style="stroke:#181818;stroke-width:0.5;" width="171" x="1272" y="585"/><ellipse cx="1322.25" cy="601" fill="#ADD1B2" rx="11" ry="11" style="stroke:#181818;stroke-width:1.0;"/><path d="M1325.0156,596.875 Q1325.1719,596.6563 1325.3594,596.5469 Q1325.5469,596.4375 1325.7656,596.4375 Q1326.1406,596.4375 1326.375,596.7031 Q1326.6094,596.9531 1326.6094,597.5625 L1326.6094,599.0156 Q1326.6094,599.625 1326.375,599.8906 Q1326.1406,600.1563 1325.7656,600.1563 Q1325.4219,600.1563 1325.2188,599.9531 Q1325.0156,599.7656 1324.9063,599.25 Q1324.8594,598.8906 1324.6719,598.7031 Q1324.3438,598.3281 1323.7344,598.1094 Q1323.125,597.8906 1322.5,597.8906 Q1321.7344,597.8906 1321.0938,598.2188 Q1320.4688,598.5469 1319.9688,599.2969 Q1319.4844,600.0469 1319.4844,601.0781 L1319.4844,602.1719 Q1319.4844,603.4063 1320.375,604.2344 Q1321.2656,605.0469 1322.8594,605.0469 Q1323.7969,605.0469 1324.4531,604.7969 Q1324.8438,604.6406 1325.2656,604.2031 Q1325.5313,603.9375 1325.6719,603.8594 Q1325.8281,603.7813 1326.0313,603.7813 Q1326.3594,603.7813 1326.6094,604.0469 Q1326.875,604.2969 1326.875,604.6406 Q1326.875,604.9844 1326.5313,605.3906 Q1326.0313,605.9688 1325.2344,606.2969 Q1324.1563,606.75 1322.8594,606.75 Q1321.3438,606.75 1320.1406,606.125 Q1319.1563,605.625 1318.4688,604.5625 Q1317.7813,603.4844 1317.7813,602.2031 L1317.7813,601.0469 Q1317.7813,599.7188 1318.3906,598.5781 Q1319.0156,597.4219 1320.1094,596.8125 Q1321.2031,596.1875 1322.4375,596.1875 Q1323.1719,596.1875 1323.8125,596.3594 Q1324.4688,596.5156 1325.0156,596.875 Z " fill="#000000"/><text fill="#000000" font-family="sans-serif" font-size="14" lengthAdjust="spacing" textLength="62" x="1342.75" y="606.7285">CalmMind</text><line style="stroke:#181818;stroke-width:0.5;" x1="1273" x2="1442" y1="617" y2="617"/><text fill="#000000" font-family="sans-serif" font-size="14" lengthAdjust="spacing" textLength="67" x="1278" y="635.5332">type: Type</text><text fill="#000000" font-family="sans-serif" font-size="14" lengthAdjust="spacing" textLength="76" x="1278" y="653.1426">pow: double</text><text fill="#000000" font-family="sans-serif" font-size="14" lengthAdjust="spacing" textLength="73" x="1278" y="670.752">acc: double</text><line style="stroke:#181818;stroke-width:0.5;" x1="1273" x2="1442" y1="677.8281" y2="677.8281"/><ellipse cx="1283" cy="692.1328" fill="#84BE84" rx="3" ry="3" style="stroke:#038048;stroke-width:1.0;"/><text fill="#000000" font-family="sans-serif" font-size="14" lengthAdjust="spacing" textLength="72" x="1292" y="696.3613">CalmMind()</text><polygon fill="#FFFF44" points="1283,704.7422,1287,708.7422,1283,712.7422,1279,708.7422" style="stroke:#B38D22;stroke-width:1.0;"/><text fill="#000000" font-family="sans-serif" font-size="14" lengthAdjust="spacing" textLength="145" x="1292" y="713.9707">applySelfEffects(): void</text><polygon fill="#FFFF44" points="1283,722.3516,1287,726.3516,1283,730.3516,1279,726.3516" style="stroke:#B38D22;stroke-width:1.0;"/><text fill="#000000" font-family="sans-serif" font-size="14" lengthAdjust="spacing" textLength="109" x="1292" y="731.5801">describe(): String</text></g><!--class Confide--><g id="elem_Confide"><rect codeLine="137" fill="#F1F1F1" height="153.6563" id="Confide" rx="2.5" ry="2.5" style="stroke:#181818;stroke-width:0.5;" width="174" x="856.5" y="585"/><ellipse cx="914.75" cy="601" fill="#ADD1B2" rx="11" ry="11" style="stroke:#181818;stroke-width:1.0;"/><path d="M917.5156,596.875 Q917.6719,596.6563 917.8594,596.5469 Q918.0469,596.4375 918.2656,596.4375 Q918.6406,596.4375 918.875,596.7031 Q919.1094,596.9531 919.1094,597.5625 L919.1094,599.0156 Q919.1094,599.625 918.875,599.8906 Q918.6406,600.1563 918.2656,600.1563 Q917.9219,600.1563 917.7188,599.9531 Q917.5156,599.7656 917.4063,599.25 Q917.3594,598.8906 917.1719,598.7031 Q916.8438,598.3281 916.2344,598.1094 Q915.625,597.8906 915,597.8906 Q914.2344,597.8906 913.5938,598.2188 Q912.9688,598.5469 912.4688,599.2969 Q911.9844,600.0469 911.9844,601.0781 L911.9844,602.1719 Q911.9844,603.4063 912.875,604.2344 Q913.7656,605.0469 915.3594,605.0469 Q916.2969,605.0469 916.9531,604.7969 Q917.3438,604.6406 917.7656,604.2031 Q918.0313,603.9375 918.1719,603.8594 Q918.3281,603.7813 918.5313,603.7813 Q918.8594,603.7813 919.1094,604.0469 Q919.375,604.2969 919.375,604.6406 Q919.375,604.9844 919.0313,605.3906 Q918.5313,605.9688 917.7344,606.2969 Q916.6563,606.75 915.3594,606.75 Q913.8438,606.75 912.6406,606.125 Q911.6563,605.625 910.9688,604.5625 Q910.2813,603.4844 910.2813,602.2031 L910.2813,601.0469 Q910.2813,599.7188 910.8906,598.5781 Q911.5156,597.4219 912.6094,596.8125 Q913.7031,596.1875 914.9375,596.1875 Q915.6719,596.1875 916.3125,596.3594 Q916.9688,596.5156 917.5156,596.875 Z " fill="#000000"/><text fill="#000000" font-family="sans-serif" font-size="14" lengthAdjust="spacing" textLength="49" x="935.25" y="606.7285">Confide</text><line style="stroke:#181818;stroke-width:0.5;" x1="857.5" x2="1029.5" y1="617" y2="617"/><text fill="#000000" font-family="sans-serif" font-size="14" lengthAdjust="spacing" textLength="67" x="862.5" y="635.5332">type: Type</text><text fill="#000000" font-family="sans-serif" font-size="14" lengthAdjust="spacing" textLength="76" x="862.5" y="653.1426">pow: double</text><text fill="#000000" font-family="sans-serif" font-size="14" lengthAdjust="spacing" textLength="73" x="862.5" y="670.752">acc: double</text><line style="stroke:#181818;stroke-width:0.5;" x1="857.5" x2="1029.5" y1="677.8281" y2="677.8281"/><ellipse cx="867.5" cy="692.1328" fill="#84BE84" rx="3" ry="3" style="stroke:#038048;stroke-width:1.0;"/><text fill="#000000" font-family="sans-serif" font-size="14" lengthAdjust="spacing" textLength="59" x="876.5" y="696.3613">Confide()</text><polygon fill="#FFFF44" points="867.5,704.7422,871.5,708.7422,867.5,712.7422,863.5,708.7422" style="stroke:#B38D22;stroke-width:1.0;"/><text fill="#000000" font-family="sans-serif" font-size="14" lengthAdjust="spacing" textLength="148" x="876.5" y="713.9707">applyOppEffects(): void</text><polygon fill="#FFFF44" points="867.5,722.3516,871.5,726.3516,867.5,730.3516,863.5,726.3516" style="stroke:#B38D22;stroke-width:1.0;"/><text fill="#000000" font-family="sans-serif" font-size="14" lengthAdjust="spacing" textLength="109" x="876.5" y="731.5801">describe(): String</text></g><g id="elem_Pokemon"><rect fill="#F1F1F1" height="47.2188" style="stroke:#181818;stroke-width:0.5;" width="173" x="7" y="638.5"/><text fill="#000000" font-family="sans-serif" font-size="14" lengthAdjust="spacing" textLength="59" x="64" y="655.0332">Pokemon</text><line style="stroke:#181818;stroke-width:0.5;" x1="8" x2="179" y1="660.1094" y2="660.1094"/><text fill="#000000" font-family="sans-serif" font-size="14" lengthAdjust="spacing" textLength="161" x="13" y="678.6426">From ru.ifmo.se.pokemon</text></g><g id="elem_SpecialMove"><rect fill="#F1F1F1" height="47.2188" style="stroke:#181818;stroke-width:0.5;" width="173" x="1917" y="799"/><text fill="#000000" font-family="sans-serif" font-size="14" lengthAdjust="spacing" textLength="80" x="1963.5" y="815.5332">SpecialMove</text><line style="stroke:#181818;stroke-width:0.5;" x1="1918" x2="2089" y1="820.6094" y2="820.6094"/><text fill="#000000" font-family="sans-serif" font-size="14" lengthAdjust="spacing" textLength="161" x="1923" y="839.1426">From ru.ifmo.se.pokemon</text></g><g id="elem_StatusMove"><rect fill="#F1F1F1" height="47.2188" style="stroke:#181818;stroke-width:0.5;" width="173" x="1065" y="799"/><text fill="#000000" font-family="sans-serif" font-size="14" lengthAdjust="spacing" textLength="74" x="1114.5" y="815.5332">StatusMove</text><line style="stroke:#181818;stroke-width:0.5;" x1="1066" x2="1237" y1="820.6094" y2="820.6094"/><text fill="#000000" font-family="sans-serif" font-size="14" lengthAdjust="spacing" textLength="161" x="1071" y="839.1426">From ru.ifmo.se.pokemon</text></g><g id="elem_PhysicalMove"><rect fill="#F1F1F1" height="47.2188" style="stroke:#181818;stroke-width:0.5;" width="173" x="427" y="799"/><text fill="#000000" font-family="sans-serif" font-size="14" lengthAdjust="spacing" textLength="86" x="470.5" y="815.5332">PhysicalMove</text><line style="stroke:#181818;stroke-width:0.5;" x1="428" x2="599" y1="820.6094" y2="820.6094"/><text fill="#000000" font-family="sans-serif" font-size="14" lengthAdjust="spacing" textLength="161" x="433" y="839.1426">From ru.ifmo.se.pokemon</text></g><!--link Cobalion to Pokemon--><g id="link_Cobalion_Pokemon"><path codeLine="44" d="M585.4,68 C447.93,68 50.25,68 50.25,68 C50.25,68 50.25,509.87 50.25,620.35 " fill="none" id="Cobalion-to-Pokemon" style="stroke:#181818;stroke-width:1.0;"/><polygon fill="none" points="50.25,638.35,56.25,620.35,44.25,620.35,50.25,638.35" style="stroke:#181818;stroke-width:1.0;"/></g><!--link Electrike to Pokemon--><g id="link_Electrike_Pokemon"><path codeLine="45" d="M585.16,254 C454.67,254 93.5,254 93.5,254 C93.5,254 93.5,533.22 93.5,620.3 " fill="none" id="Electrike-to-Pokemon" style="stroke:#181818;stroke-width:1.0;"/><polygon fill="none" points="93.5,638.3,99.5,620.3,87.5,620.3,93.5,638.3" style="stroke:#181818;stroke-width:1.0;"/></g><!--link Manectric to Electrike--><g id="link_Manectric_Electrike"><path codeLine="46" d="M731.3,143.22 C731.3,161.63 731.3,178 731.3,178 C731.3,178 654.5,178 654.5,178 C654.5,178 654.5,171.06 654.5,184.72 " fill="none" id="Manectric-to-Electrike" style="stroke:#181818;stroke-width:1.0;"/><polygon fill="none" points="654.5,202.72,660.5,184.72,648.5,184.72,654.5,202.72" style="stroke:#181818;stroke-width:1.0;"/></g><!--link Togepi to Pokemon--><g id="link_Togepi_Pokemon"><path codeLine="47" d="M585.4,415 C462.58,415 136.75,415 136.75,415 C136.75,415 136.75,558.49 136.75,620.32 " fill="none" id="Togepi-to-Pokemon" style="stroke:#181818;stroke-width:1.0;"/><polygon fill="none" points="136.75,638.32,142.75,620.32,130.75,620.32,136.75,638.32" style="stroke:#181818;stroke-width:1.0;"/></g><!--link Togetic to Togepi--><g id="link_Togetic_Togepi"><path codeLine="48" d="M756.5,304.33 C756.5,343.14 756.5,390 756.5,390 C756.5,390 731.3,390 695.69,390 " fill="none" id="Togetic-to-Togepi" style="stroke:#181818;stroke-width:1.0;"/><polygon fill="none" points="677.69,390,695.69,396,695.69,384,677.69,390" style="stroke:#181818;stroke-width:1.0;"/></g><!--link Togekiss to Togetic--><g id="link_Togekiss_Togetic"><path codeLine="49" d="M850.75,143.34 C850.75,180.35 850.75,224 850.75,224 C850.75,224 845.69,224 822.62,224 " fill="none" id="Togekiss-to-Togetic" style="stroke:#181818;stroke-width:1.0;"/><polygon fill="none" points="804.62,224,822.62,230,822.62,218,804.62,224" style="stroke:#181818;stroke-width:1.0;"/></g><!--link DazzlingGleam to SpecialMove--><g id="link_DazzlingGleam_SpecialMove"><path codeLine="156" d="M2401.5,730.25 C2401.5,777.16 2401.5,831 2401.5,831 C2401.5,831 2225.46,831 2108.35,831 " fill="none" id="DazzlingGleam-to-SpecialMove" style="stroke:#181818;stroke-width:1.0;"/><polygon fill="none" points="2090.35,831,2108.35,837,2108.35,825,2090.35,831" style="stroke:#181818;stroke-width:1.0;"/></g><!--link FireBlast to SpecialMove--><g id="link_FireBlast_SpecialMove"><path codeLine="157" d="M1586.5,739.2 C1586.5,780.52 1586.5,823 1586.5,823 C1586.5,823 1776.67,823 1898.84,823 " fill="none" id="FireBlast-to-SpecialMove" style="stroke:#181818;stroke-width:1.0;"/><polygon fill="none" points="1916.84,823,1898.84,817,1898.84,829,1916.84,823" style="stroke:#181818;stroke-width:1.0;"/></g><!--link MagicalLeaf to SpecialMove--><g id="link_MagicalLeaf_SpecialMove"><path codeLine="158" d="M2211.5,739.4 C2211.5,777.35 2211.5,815 2211.5,815 C2211.5,815 2165.28,815 2108.2,815 " fill="none" id="MagicalLeaf-to-SpecialMove" style="stroke:#181818;stroke-width:1.0;"/><polygon fill="none" points="2090.2,815,2108.2,821,2108.2,809,2090.2,815" style="stroke:#181818;stroke-width:1.0;"/></g><!--link Overheat to SpecialMove--><g id="link_Overheat_SpecialMove"><path codeLine="159" d="M2003.5,739.43 C2003.5,761.07 2003.5,764.99 2003.5,780.87 " fill="none" id="Overheat-to-SpecialMove" style="stroke:#181818;stroke-width:1.0;"/><polygon fill="none" points="2003.5,798.87,2009.5,780.87,1997.5,780.87,2003.5,798.87" style="stroke:#181818;stroke-width:1.0;"/></g><!--link ShadowBall to SpecialMove--><g id="link_ShadowBall_SpecialMove"><path codeLine="160" d="M1795.5,739.12 C1795.5,775.48 1795.5,811 1795.5,811 C1795.5,811 1841.72,811 1898.8,811 " fill="none" id="ShadowBall-to-SpecialMove" style="stroke:#181818;stroke-width:1.0;"/><polygon fill="none" points="1916.8,811,1898.8,805,1898.8,817,1916.8,811" style="stroke:#181818;stroke-width:1.0;"/></g><!--link Facade to PhysicalMove--><g id="link_Facade_PhysicalMove"><path codeLine="162" d="M616.45,733 C602.55,733 592.75,733 592.75,733 C592.75,733 592.75,754.47 592.75,780.98 " fill="none" id="Facade-to-PhysicalMove" style="stroke:#181818;stroke-width:1.0;"/><polygon fill="none" points="592.75,798.98,598.75,780.98,586.75,780.98,592.75,798.98" style="stroke:#181818;stroke-width:1.0;"/></g><!--link PoisonJab to PhysicalMove--><g id="link_PoisonJab_PhysicalMove"><path codeLine="163" d="M410.58,736 C425.6,736 436.5,736 436.5,736 C436.5,736 436.5,755.25 436.5,780.86 " fill="none" id="PoisonJab-to-PhysicalMove" style="stroke:#181818;stroke-width:1.0;"/><polygon fill="none" points="436.5,798.86,442.5,780.86,430.5,780.86,436.5,798.86" style="stroke:#181818;stroke-width:1.0;"/></g><!--link XScissors to PhysicalMove--><g id="link_XScissors_PhysicalMove"><path codeLine="164" d="M513.5,730.07 C513.5,754.5 513.5,762.48 513.5,780.65 " fill="none" id="XScissors-to-PhysicalMove" style="stroke:#181818;stroke-width:1.0;"/><polygon fill="none" points="513.5,798.65,519.5,780.65,507.5,780.65,513.5,798.65" style="stroke:#181818;stroke-width:1.0;"/></g><!--link CalmMind to StatusMove--><g id="link_CalmMind_StatusMove"><path codeLine="166" d="M1357.5,739.14 C1357.5,785.27 1357.5,835 1357.5,835 C1357.5,835 1312.56,835 1256.27,835 " fill="none" id="CalmMind-to-StatusMove" style="stroke:#181818;stroke-width:1.0;"/><polygon fill="none" points="1238.27,835,1256.27,841,1256.27,829,1238.27,835" style="stroke:#181818;stroke-width:1.0;"/></g><!--link Confide to StatusMove--><g id="link_Confide_StatusMove"><path codeLine="167" d="M943.5,739.2 C943.5,780.52 943.5,823 943.5,823 C943.5,823 989.72,823 1046.8,823 " fill="none" id="Confide-to-StatusMove" style="stroke:#181818;stroke-width:1.0;"/><polygon fill="none" points="1064.8,823,1046.8,817,1046.8,829,1064.8,823" style="stroke:#181818;stroke-width:1.0;"/></g><!--link Rest to StatusMove--><g id="link_Rest_StatusMove"><path codeLine="168" d="M1151.5,739.43 C1151.5,761.07 1151.5,764.99 1151.5,780.87 " fill="none" id="Rest-to-StatusMove" style="stroke:#181818;stroke-width:1.0;"/><polygon fill="none" points="1151.5,798.87,1157.5,780.87,1145.5,780.87,1151.5,798.87" style="stroke:#181818;stroke-width:1.0;"/></g><!--reverse link Cobalion to Rest--><g id="link_Cobalion_Rest"><path codeLine="170" d="M608.5,155.15 C608.5,180.97 608.5,195 608.5,195 C608.5,195 1151.5,195 1151.5,195 C1151.5,195 1151.5,452.24 1151.5,584.88 " fill="none" id="Cobalion-backto-Rest" style="stroke:#181818;stroke-width:1.0;"/><polygon fill="none" points="608.5,143.15,604.5,149.15,608.5,155.15,612.5,149.15,608.5,143.15" style="stroke:#181818;stroke-width:1.0;"/></g><!--reverse link Cobalion to XScissors--><g id="link_Cobalion_XScissors"><path codeLine="171" d="M573.2,118 C540.14,118 513.5,118 513.5,118 C513.5,118 513.5,447.96 513.5,593.93 " fill="none" id="Cobalion-backto-XScissors" style="stroke:#181818;stroke-width:1.0;"/><polygon fill="none" points="585.2,118,579.2,114,573.2,118,579.2,122,585.2,118" style="stroke:#181818;stroke-width:1.0;"/></g><!--reverse link Cobalion to PoisonJab--><g id="link_Cobalion_PoisonJab"><path codeLine="172" d="M573.39,93 C487.47,93 323.5,93 323.5,93 C323.5,93 323.5,429.52 323.5,584.97 " fill="none" id="Cobalion-backto-PoisonJab" style="stroke:#181818;stroke-width:1.0;"/><polygon fill="none" points="585.39,93,579.39,89,573.39,93,579.39,97,585.39,93" style="stroke:#181818;stroke-width:1.0;"/></g><!--reverse link Cobalion to CalmMind--><g id="link_Cobalion_CalmMind"><path codeLine="173" d="M631.5,155.08 C631.5,177.11 631.5,186 631.5,186 C631.5,186 1357.5,186 1357.5,186 C1357.5,186 1357.5,450.28 1357.5,584.99 " fill="none" id="Cobalion-backto-CalmMind" style="stroke:#181818;stroke-width:1.0;"/><polygon fill="none" points="631.5,143.08,627.5,149.08,631.5,155.08,635.5,149.08,631.5,143.08" style="stroke:#181818;stroke-width:1.0;"/></g><!--reverse link Electrike to Rest--><g id="link_Electrike_Rest"><path codeLine="175" d="M646.83,316.36 C646.83,327.48 646.83,324 646.83,324 C646.83,324 1108.75,324 1108.75,324 C1108.75,324 1108.75,485.12 1108.75,584.88 " fill="none" id="Electrike-backto-Rest" style="stroke:#181818;stroke-width:1.0;"/><polygon fill="none" points="646.83,304.36,642.83,310.36,646.83,316.36,650.83,310.36,646.83,304.36" style="stroke:#181818;stroke-width:1.0;"/></g><!--reverse link Electrike to Confide--><g id="link_Electrike_Confide"><path codeLine="176" d="M616.17,316.04 C616.17,336.77 616.17,344 616.17,344 C616.17,344 883.67,344 883.67,344 C883.67,344 883.67,490.49 883.67,584.62 " fill="none" id="Electrike-backto-Confide" style="stroke:#181818;stroke-width:1.0;"/><polygon fill="none" points="616.17,304.04,612.17,310.04,616.17,316.04,620.17,310.04,616.17,304.04" style="stroke:#181818;stroke-width:1.0;"/></g><!--reverse link Electrike to Facade--><g id="link_Electrike_Facade"><path codeLine="177" d="M689.77,254 C689.77,254 689.17,466.5 689.17,584.78 " fill="none" id="Electrike-backto-Facade" style="stroke:#181818;stroke-width:1.0;"/><polygon fill="none" points="677.77,254,683.77,258,689.77,254,683.77,250,677.77,254" style="stroke:#181818;stroke-width:1.0;"/></g><!--reverse link Manectric to Rest--><g id="link_Manectric_Rest"><path codeLine="179" d="M767.9,155 C767.9,165.27 767.9,161 767.9,161 C767.9,161 1194.25,161 1194.25,161 C1194.25,161 1194.25,444.28 1194.25,584.82 " fill="none" id="Manectric-backto-Rest" style="stroke:#181818;stroke-width:1.0;"/><polygon fill="none" points="767.9,143,763.9,149,767.9,155,771.9,149,767.9,143" style="stroke:#181818;stroke-width:1.0;"/></g><!--reverse link Manectric to Confide--><g id="link_Manectric_Confide"><path codeLine="180" d="M749.6,155.1 C749.6,169.33 749.6,169 749.6,169 C749.6,169 910.83,169 910.83,169 C910.83,169 910.83,446.31 910.83,584.97 " fill="none" id="Manectric-backto-Confide" style="stroke:#181818;stroke-width:1.0;"/><polygon fill="none" points="749.6,143.1,745.6,149.1,749.6,155.1,753.6,149.1,749.6,143.1" style="stroke:#181818;stroke-width:1.0;"/></g><!--reverse link Manectric to Facade--><g id="link_Manectric_Facade"><path codeLine="181" d="M700.82,93 C700.82,93 700.83,429.52 700.83,584.97 " fill="none" id="Manectric-backto-Facade" style="stroke:#181818;stroke-width:1.0;"/><polygon fill="none" points="712.82,93,706.82,89,700.82,93,706.82,97,712.82,93" style="stroke:#181818;stroke-width:1.0;"/></g><!--reverse link Manectric to Overheat--><g id="link_Manectric_Overheat"><path codeLine="182" d="M786.2,155.22 C786.2,155.22 2003.5,152 2003.5,152 C2003.5,152 2003.5,442.25 2003.5,584.82 " fill="none" id="Manectric-backto-Overheat" style="stroke:#181818;stroke-width:1.0;"/><polygon fill="none" points="786.2,143.22,782.2,149.22,786.2,155.22,790.2,149.22,786.2,143.22" style="stroke:#181818;stroke-width:1.0;"/></g><!--reverse link Togepi to FireBlast--><g id="link_Togepi_FireBlast"><path codeLine="184" d="M689.64,440 C874.93,440 1543,440 1543,440 C1543,440 1543,520.86 1543,584.98 " fill="none" id="Togepi-backto-FireBlast" style="stroke:#181818;stroke-width:1.0;"/><polygon fill="none" points="677.64,440,683.64,444,689.64,440,683.64,436,677.64,440" style="stroke:#181818;stroke-width:1.0;"/></g><!--reverse link Togepi to ShadowBall--><g id="link_Togepi_ShadowBall"><path codeLine="185" d="M689.51,415 C900.36,415 1752,415 1752,415 C1752,415 1752,512.39 1752,584.86 " fill="none" id="Togepi-backto-ShadowBall" style="stroke:#181818;stroke-width:1.0;"/><polygon fill="none" points="677.51,415,683.51,419,689.51,415,683.51,411,677.51,415" style="stroke:#181818;stroke-width:1.0;"/></g><!--reverse link Togetic to FireBlast--><g id="link_Togetic_FireBlast"><path codeLine="187" d="M816.79,284 C991.16,284 1586.5,284 1586.5,284 C1586.5,284 1586.5,474.01 1586.5,584.59 " fill="none" id="Togetic-backto-FireBlast" style="stroke:#181818;stroke-width:1.0;"/><polygon fill="none" points="804.79,284,810.79,288,816.79,284,810.79,280,804.79,284" style="stroke:#181818;stroke-width:1.0;"/></g><!--reverse link Togetic to ShadowBall--><g id="link_Togetic_ShadowBall"><path codeLine="188" d="M816.73,264 C1017.97,264 1795.5,264 1795.5,264 C1795.5,264 1795.5,469.05 1795.5,584.79 " fill="none" id="Togetic-backto-ShadowBall" style="stroke:#181818;stroke-width:1.0;"/><polygon fill="none" points="804.73,264,810.73,268,816.73,264,810.73,260,804.73,264" style="stroke:#181818;stroke-width:1.0;"/></g><!--reverse link Togetic to MagicalLeaf--><g id="link_Togetic_MagicalLeaf"><path codeLine="189" d="M816.67,244 C1061.25,244 2182.5,244 2182.5,244 C2182.5,244 2182.5,464.07 2182.5,584.85 " fill="none" id="Togetic-backto-MagicalLeaf" style="stroke:#181818;stroke-width:1.0;"/><polygon fill="none" points="804.67,244,810.67,248,816.67,244,810.67,240,804.67,244" style="stroke:#181818;stroke-width:1.0;"/></g><!--reverse link Togekiss to FireBlast--><g id="link_Togekiss_FireBlast"><path codeLine="191" d="M950.26,123 C1112.59,123 1630,123 1630,123 C1630,123 1630,435.74 1630,584.77 " fill="none" id="Togekiss-backto-FireBlast" style="stroke:#181818;stroke-width:1.0;"/><polygon fill="none" points="938.26,123,944.26,127,950.26,123,944.26,119,938.26,123" style="stroke:#181818;stroke-width:1.0;"/></g><!--reverse link Togekiss to ShadowBall--><g id="link_Togekiss_ShadowBall"><path codeLine="192" d="M950.16,103 C1140.87,103 1839,103 1839,103 C1839,103 1839,431.51 1839,584.86 " fill="none" id="Togekiss-backto-ShadowBall" style="stroke:#181818;stroke-width:1.0;"/><polygon fill="none" points="938.16,103,944.16,107,950.16,103,944.16,99,938.16,103" style="stroke:#181818;stroke-width:1.0;"/></g><!--reverse link Togekiss to MagicalLeaf--><g id="link_Togekiss_MagicalLeaf"><path codeLine="193" d="M950.33,83 C1188.31,83 2240.5,83 2240.5,83 C2240.5,83 2240.5,427.18 2240.5,584.81 " fill="none" id="Togekiss-backto-MagicalLeaf" style="stroke:#181818;stroke-width:1.0;"/><polygon fill="none" points="938.33,83,944.33,87,950.33,83,944.33,79,938.33,83" style="stroke:#181818;stroke-width:1.0;"/></g><!--reverse link Togekiss to DazzlingGleam--><g id="link_Togekiss_DazzlingGleam"><path codeLine="194" d="M950.35,63 C1205.22,63 2401.5,63 2401.5,63 C2401.5,63 2401.5,436.87 2401.5,593.87 " fill="none" id="Togekiss-backto-DazzlingGleam" style="stroke:#181818;stroke-width:1.0;"/><polygon fill="none" points="938.35,63,944.35,67,950.35,63,944.35,59,938.35,63" style="stroke:#181818;stroke-width:1.0;"/></g><!--SRC=[jLTDRzim3BthLmZOPKEH_80STkWdC3HeiFImAsFBYHRP4YmdHRhblq-s95goamup9XT8d4VocKyYPLRlUQMWXf8-yuer9yMeh9kT94HkVhAieIkvPwMiYFkc2_fOovBMXpalIZdNRAwS1r6GxM7BQ7boaAQ_23LN9a1hUYSt8BYXi61xLL2o1LqtDQ-s20fsP691UTKWTEDZFt_fi3C9U1-4oRFcUpQ568ClCI-XwgpP56OCliJyAhTCyIcqDl8QPpCjLnTwZNNFjT_A4UM0xiRx6wwp-IEuwxFPxwzOJVsUHN2_u2sCJiGjL-JhvNQWTI2OB8B68oXCUMJQwl2Gsfqqpq3qYsPb_rXdXaVMEbZEzcexP45VpMS4A_cseBayR4ICGvPTn6-GtwsvlpxbJ6SrtvXw7EtSUP3ZId8jgs-mIPGZyWzp1AN4wKMfXw8mEwJRL8-IvvE5F486EKkamf9Vat0FfIc3YGfSe_XQqefb70GTrjBBaTKx1aqYWPx-eiGr4yL_soPUirjpbqe8ygUkj_KESlbs2q8aKj8_8BMK9MpRu-kPGP58I_24r6BkuVrT68SdmSn0aaPEz8n_Fdo77Tz0Sz2ZXl_EalL8IvsyqUz0b4jUvOaqUFhqEcHLy6Gl5iUUfYcwsScDu6lxNbcQwOK4zn-CuZwmAqyRXxT_3rkvcQWB37zyDFoJk7cx0InCl7zvZ4pX6JOouijpP0bEyP6Dk972JeoH7XoQnhP-w1lR23Q5VLY_jBxAXdXt2Wp1VXwMirbtKCG8fX33c7KC-vn8C50ZRmovB0UeNIOI3DuO7aC-F4PTU0pw7ID-REyy_VQ7OB-31CVviRD70-yG3gg7zFy0Z6aG7XAX8MIA355f_m40]--></g></svg>