<?xml version="1.0" encoding="us-ascii" standalone="no"?><svg xmlns="http://www.w3.org/2000/svg" xmlns:xlink="http://www.w3.org/1999/xlink" contentStyleType="text/css" height="846px" preserveAspectRatio="none" style="width:2241px;height:846px;background:#FFFFFF;" version="1.1" viewBox="0 0 2241 846" width="2241px" zoomAndPan="magnify"><defs/><g><g id="elem_Pokemon"><rect fill="#F1F1F1" height="47.2188" style="stroke:#181818;stroke-width:0.5;" width="173" x="1020.5" y="631.5"/><text fill="#000000" font-family="sans-serif" font-size="14" lengthAdjust="spacing" textLength="59" x="1077.5" y="648.0332">Pokemon</text><line style="stroke:#181818;stroke-width:0.5;" x1="1021.5" x2="1192.5" y1="653.1094" y2="653.1094"/><text fill="#000000" font-family="sans-serif" font-size="14" lengthAdjust="spacing" textLength="161" x="1026.5" y="671.6426">From ru.ifmo.se.pokemon</text></g><!--class Cobalion--><g id="elem_Cobalion"><rect codeLine="5" fill="#F1F1F1" height="100.8281" id="Cobalion" rx="2.5" ry="2.5" style="stroke:#181818;stroke-width:0.5;" width="92" x="428" y="390.5"/><ellipse cx="444.8" cy="406.5" fill="#ADD1B2" rx="11" ry="11" style="stroke:#181818;stroke-width:1.0;"/><path d="M447.5656,402.375 Q447.7219,402.1563 447.9094,402.0469 Q448.0969,401.9375 448.3156,401.9375 Q448.6906,401.9375 448.925,402.2031 Q449.1594,402.4531 449.1594,403.0625 L449.1594,404.5156 Q449.1594,405.125 448.925,405.3906 Q448.6906,405.6563 448.3156,405.6563 Q447.9719,405.6563 447.7688,405.4531 Q447.5656,405.2656 447.4563,404.75 Q447.4094,404.3906 447.2219,404.2031 Q446.8938,403.8281 446.2844,403.6094 Q445.675,403.3906 445.05,403.3906 Q444.2844,403.3906 443.6438,403.7188 Q443.0188,404.0469 442.5188,404.7969 Q442.0344,405.5469 442.0344,406.5781 L442.0344,407.6719 Q442.0344,408.9063 442.925,409.7344 Q443.8156,410.5469 445.4094,410.5469 Q446.3469,410.5469 447.0031,410.2969 Q447.3938,410.1406 447.8156,409.7031 Q448.0813,409.4375 448.2219,409.3594 Q448.3781,409.2813 448.5813,409.2813 Q448.9094,409.2813 449.1594,409.5469 Q449.425,409.7969 449.425,410.1406 Q449.425,410.4844 449.0813,410.8906 Q448.5813,411.4688 447.7844,411.7969 Q446.7063,412.25 445.4094,412.25 Q443.8938,412.25 442.6906,411.625 Q441.7063,411.125 441.0188,410.0625 Q440.3313,408.9844 440.3313,407.7031 L440.3313,406.5469 Q440.3313,405.2188 440.9406,404.0781 Q441.5656,402.9219 442.6594,402.3125 Q443.7531,401.6875 444.9875,401.6875 Q445.7219,401.6875 446.3625,401.8594 Q447.0188,402.0156 447.5656,402.375 Z " fill="#000000"/><text fill="#000000" font-family="sans-serif" font-size="14" lengthAdjust="spacing" textLength="56" x="459.2" y="412.2285">Cobalion</text><line style="stroke:#181818;stroke-width:0.5;" x1="429" x2="519" y1="422.5" y2="422.5"/><text fill="#000000" font-family="sans-serif" font-size="14" lengthAdjust="spacing" textLength="80" x="434" y="441.0332">name: String</text><text fill="#000000" font-family="sans-serif" font-size="14" lengthAdjust="spacing" textLength="52" x="434" y="458.6426">level: int</text><line style="stroke:#181818;stroke-width:0.5;" x1="429" x2="519" y1="465.7188" y2="465.7188"/><ellipse cx="439" cy="480.0234" fill="#84BE84" rx="3" ry="3" style="stroke:#038048;stroke-width:1.0;"/><text fill="#000000" font-family="sans-serif" font-size="14" lengthAdjust="spacing" textLength="66" x="448" y="484.252">Cobalion()</text></g><!--class Electrike--><g id="elem_Electrike"><rect codeLine="11" fill="#F1F1F1" height="100.8281" id="Electrike" rx="2.5" ry="2.5" style="stroke:#181818;stroke-width:0.5;" width="92" x="1032" y="390.5"/><ellipse cx="1049.7" cy="406.5" fill="#ADD1B2" rx="11" ry="11" style="stroke:#181818;stroke-width:1.0;"/><path d="M1052.4656,402.375 Q1052.6219,402.1563 1052.8094,402.0469 Q1052.9969,401.9375 1053.2156,401.9375 Q1053.5906,401.9375 1053.825,402.2031 Q1054.0594,402.4531 1054.0594,403.0625 L1054.0594,404.5156 Q1054.0594,405.125 1053.825,405.3906 Q1053.5906,405.6563 1053.2156,405.6563 Q1052.8719,405.6563 1052.6688,405.4531 Q1052.4656,405.2656 1052.3563,404.75 Q1052.3094,404.3906 1052.1219,404.2031 Q1051.7938,403.8281 1051.1844,403.6094 Q1050.575,403.3906 1049.95,403.3906 Q1049.1844,403.3906 1048.5438,403.7188 Q1047.9188,404.0469 1047.4188,404.7969 Q1046.9344,405.5469 1046.9344,406.5781 L1046.9344,407.6719 Q1046.9344,408.9063 1047.825,409.7344 Q1048.7156,410.5469 1050.3094,410.5469 Q1051.2469,410.5469 1051.9031,410.2969 Q1052.2938,410.1406 1052.7156,409.7031 Q1052.9813,409.4375 1053.1219,409.3594 Q1053.2781,409.2813 1053.4813,409.2813 Q1053.8094,409.2813 1054.0594,409.5469 Q1054.325,409.7969 1054.325,410.1406 Q1054.325,410.4844 1053.9813,410.8906 Q1053.4813,411.4688 1052.6844,411.7969 Q1051.6063,412.25 1050.3094,412.25 Q1048.7938,412.25 1047.5906,411.625 Q1046.6063,411.125 1045.9188,410.0625 Q1045.2313,408.9844 1045.2313,407.7031 L1045.2313,406.5469 Q1045.2313,405.2188 1045.8406,404.0781 Q1046.4656,402.9219 1047.5594,402.3125 Q1048.6531,401.6875 1049.8875,401.6875 Q1050.6219,401.6875 1051.2625,401.8594 Q1051.9188,402.0156 1052.4656,402.375 Z " fill="#000000"/><text fill="#000000" font-family="sans-serif" font-size="14" lengthAdjust="spacing" textLength="54" x="1064.3" y="412.2285">Electrike</text><line style="stroke:#181818;stroke-width:0.5;" x1="1033" x2="1123" y1="422.5" y2="422.5"/><text fill="#000000" font-family="sans-serif" font-size="14" lengthAdjust="spacing" textLength="80" x="1038" y="441.0332">name: String</text><text fill="#000000" font-family="sans-serif" font-size="14" lengthAdjust="spacing" textLength="52" x="1038" y="458.6426">level: int</text><line style="stroke:#181818;stroke-width:0.5;" x1="1033" x2="1123" y1="465.7188" y2="465.7188"/><ellipse cx="1043" cy="480.0234" fill="#84BE84" rx="3" ry="3" style="stroke:#038048;stroke-width:1.0;"/><text fill="#000000" font-family="sans-serif" font-size="14" lengthAdjust="spacing" textLength="64" x="1052" y="484.252">Electrike()</text></g><!--class Manectric--><g id="elem_Manectric"><rect codeLine="17" fill="#F1F1F1" height="100.8281" id="Manectric" rx="2.5" ry="2.5" style="stroke:#181818;stroke-width:0.5;" width="97" x="1029.5" y="185.5"/><ellipse cx="1046.3" cy="201.5" fill="#ADD1B2" rx="11" ry="11" style="stroke:#181818;stroke-width:1.0;"/><path d="M1049.0656,197.375 Q1049.2219,197.1563 1049.4094,197.0469 Q1049.5969,196.9375 1049.8156,196.9375 Q1050.1906,196.9375 1050.425,197.2031 Q1050.6594,197.4531 1050.6594,198.0625 L1050.6594,199.5156 Q1050.6594,200.125 1050.425,200.3906 Q1050.1906,200.6563 1049.8156,200.6563 Q1049.4719,200.6563 1049.2688,200.4531 Q1049.0656,200.2656 1048.9563,199.75 Q1048.9094,199.3906 1048.7219,199.2031 Q1048.3938,198.8281 1047.7844,198.6094 Q1047.175,198.3906 1046.55,198.3906 Q1045.7844,198.3906 1045.1438,198.7188 Q1044.5188,199.0469 1044.0188,199.7969 Q1043.5344,200.5469 1043.5344,201.5781 L1043.5344,202.6719 Q1043.5344,203.9063 1044.425,204.7344 Q1045.3156,205.5469 1046.9094,205.5469 Q1047.8469,205.5469 1048.5031,205.2969 Q1048.8938,205.1406 1049.3156,204.7031 Q1049.5813,204.4375 1049.7219,204.3594 Q1049.8781,204.2813 1050.0813,204.2813 Q1050.4094,204.2813 1050.6594,204.5469 Q1050.925,204.7969 1050.925,205.1406 Q1050.925,205.4844 1050.5813,205.8906 Q1050.0813,206.4688 1049.2844,206.7969 Q1048.2063,207.25 1046.9094,207.25 Q1045.3938,207.25 1044.1906,206.625 Q1043.2063,206.125 1042.5188,205.0625 Q1041.8313,203.9844 1041.8313,202.7031 L1041.8313,201.5469 Q1041.8313,200.2188 1042.4406,199.0781 Q1043.0656,197.9219 1044.1594,197.3125 Q1045.2531,196.6875 1046.4875,196.6875 Q1047.2219,196.6875 1047.8625,196.8594 Q1048.5188,197.0156 1049.0656,197.375 Z " fill="#000000"/><text fill="#000000" font-family="sans-serif" font-size="14" lengthAdjust="spacing" textLength="61" x="1060.7" y="207.2285">Manectric</text><line style="stroke:#181818;stroke-width:0.5;" x1="1030.5" x2="1125.5" y1="217.5" y2="217.5"/><text fill="#000000" font-family="sans-serif" font-size="14" lengthAdjust="spacing" textLength="80" x="1035.5" y="236.0332">name: String</text><text fill="#000000" font-family="sans-serif" font-size="14" lengthAdjust="spacing" textLength="52" x="1035.5" y="253.6426">level: int</text><line style="stroke:#181818;stroke-width:0.5;" x1="1030.5" x2="1125.5" y1="260.7188" y2="260.7188"/><ellipse cx="1040.5" cy="275.0234" fill="#84BE84" rx="3" ry="3" style="stroke:#038048;stroke-width:1.0;"/><text fill="#000000" font-family="sans-serif" font-size="14" lengthAdjust="spacing" textLength="71" x="1049.5" y="279.252">Manectric()</text></g><!--class Togepi--><g id="elem_Togepi"><rect codeLine="23" fill="#F1F1F1" height="100.8281" id="Togepi" rx="2.5" ry="2.5" style="stroke:#181818;stroke-width:0.5;" width="92" x="1550" y="390.5"/><ellipse cx="1572.2" cy="406.5" fill="#ADD1B2" rx="11" ry="11" style="stroke:#181818;stroke-width:1.0;"/><path d="M1574.9656,402.375 Q1575.1219,402.1563 1575.3094,402.0469 Q1575.4969,401.9375 1575.7156,401.9375 Q1576.0906,401.9375 1576.325,402.2031 Q1576.5594,402.4531 1576.5594,403.0625 L1576.5594,404.5156 Q1576.5594,405.125 1576.325,405.3906 Q1576.0906,405.6563 1575.7156,405.6563 Q1575.3719,405.6563 1575.1688,405.4531 Q1574.9656,405.2656 1574.8563,404.75 Q1574.8094,404.3906 1574.6219,404.2031 Q1574.2938,403.8281 1573.6844,403.6094 Q1573.075,403.3906 1572.45,403.3906 Q1571.6844,403.3906 1571.0438,403.7188 Q1570.4188,404.0469 1569.9188,404.7969 Q1569.4344,405.5469 1569.4344,406.5781 L1569.4344,407.6719 Q1569.4344,408.9063 1570.325,409.7344 Q1571.2156,410.5469 1572.8094,410.5469 Q1573.7469,410.5469 1574.4031,410.2969 Q1574.7938,410.1406 1575.2156,409.7031 Q1575.4813,409.4375 1575.6219,409.3594 Q1575.7781,409.2813 1575.9813,409.2813 Q1576.3094,409.2813 1576.5594,409.5469 Q1576.825,409.7969 1576.825,410.1406 Q1576.825,410.4844 1576.4813,410.8906 Q1575.9813,411.4688 1575.1844,411.7969 Q1574.1063,412.25 1572.8094,412.25 Q1571.2938,412.25 1570.0906,411.625 Q1569.1063,411.125 1568.4188,410.0625 Q1567.7313,408.9844 1567.7313,407.7031 L1567.7313,406.5469 Q1567.7313,405.2188 1568.3406,404.0781 Q1568.9656,402.9219 1570.0594,402.3125 Q1571.1531,401.6875 1572.3875,401.6875 Q1573.1219,401.6875 1573.7625,401.8594 Q1574.4188,402.0156 1574.9656,402.375 Z " fill="#000000"/><text fill="#000000" font-family="sans-serif" font-size="14" lengthAdjust="spacing" textLength="44" x="1587.8" y="412.2285">Togepi</text><line style="stroke:#181818;stroke-width:0.5;" x1="1551" x2="1641" y1="422.5" y2="422.5"/><text fill="#000000" font-family="sans-serif" font-size="14" lengthAdjust="spacing" textLength="80" x="1556" y="441.0332">name: String</text><text fill="#000000" font-family="sans-serif" font-size="14" lengthAdjust="spacing" textLength="52" x="1556" y="458.6426">level: int</text><line style="stroke:#181818;stroke-width:0.5;" x1="1551" x2="1641" y1="465.7188" y2="465.7188"/><ellipse cx="1561" cy="480.0234" fill="#84BE84" rx="3" ry="3" style="stroke:#038048;stroke-width:1.0;"/><text fill="#000000" font-family="sans-serif" font-size="14" lengthAdjust="spacing" textLength="54" x="1570" y="484.252">Togepi()</text></g><!--class Togetic--><g id="elem_Togetic"><rect codeLine="29" fill="#F1F1F1" height="100.8281" id="Togetic" rx="2.5" ry="2.5" style="stroke:#181818;stroke-width:0.5;" width="92" x="1720" y="185.5"/><ellipse cx="1740.85" cy="201.5" fill="#ADD1B2" rx="11" ry="11" style="stroke:#181818;stroke-width:1.0;"/><path d="M1743.6156,197.375 Q1743.7719,197.1563 1743.9594,197.0469 Q1744.1469,196.9375 1744.3656,196.9375 Q1744.7406,196.9375 1744.975,197.2031 Q1745.2094,197.4531 1745.2094,198.0625 L1745.2094,199.5156 Q1745.2094,200.125 1744.975,200.3906 Q1744.7406,200.6563 1744.3656,200.6563 Q1744.0219,200.6563 1743.8188,200.4531 Q1743.6156,200.2656 1743.5063,199.75 Q1743.4594,199.3906 1743.2719,199.2031 Q1742.9438,198.8281 1742.3344,198.6094 Q1741.725,198.3906 1741.1,198.3906 Q1740.3344,198.3906 1739.6938,198.7188 Q1739.0688,199.0469 1738.5688,199.7969 Q1738.0844,200.5469 1738.0844,201.5781 L1738.0844,202.6719 Q1738.0844,203.9063 1738.975,204.7344 Q1739.8656,205.5469 1741.4594,205.5469 Q1742.3969,205.5469 1743.0531,205.2969 Q1743.4438,205.1406 1743.8656,204.7031 Q1744.1313,204.4375 1744.2719,204.3594 Q1744.4281,204.2813 1744.6313,204.2813 Q1744.9594,204.2813 1745.2094,204.5469 Q1745.475,204.7969 1745.475,205.1406 Q1745.475,205.4844 1745.1313,205.8906 Q1744.6313,206.4688 1743.8344,206.7969 Q1742.7563,207.25 1741.4594,207.25 Q1739.9438,207.25 1738.7406,206.625 Q1737.7563,206.125 1737.0688,205.0625 Q1736.3813,203.9844 1736.3813,202.7031 L1736.3813,201.5469 Q1736.3813,200.2188 1736.9906,199.0781 Q1737.6156,197.9219 1738.7094,197.3125 Q1739.8031,196.6875 1741.0375,196.6875 Q1741.7719,196.6875 1742.4125,196.8594 Q1743.0688,197.0156 1743.6156,197.375 Z " fill="#000000"/><text fill="#000000" font-family="sans-serif" font-size="14" lengthAdjust="spacing" textLength="47" x="1756.15" y="207.2285">Togetic</text><line style="stroke:#181818;stroke-width:0.5;" x1="1721" x2="1811" y1="217.5" y2="217.5"/><text fill="#000000" font-family="sans-serif" font-size="14" lengthAdjust="spacing" textLength="80" x="1726" y="236.0332">name: String</text><text fill="#000000" font-family="sans-serif" font-size="14" lengthAdjust="spacing" textLength="52" x="1726" y="253.6426">level: int</text><line style="stroke:#181818;stroke-width:0.5;" x1="1721" x2="1811" y1="260.7188" y2="260.7188"/><ellipse cx="1731" cy="275.0234" fill="#84BE84" rx="3" ry="3" style="stroke:#038048;stroke-width:1.0;"/><text fill="#000000" font-family="sans-serif" font-size="14" lengthAdjust="spacing" textLength="57" x="1740" y="279.252">Togetic()</text></g><!--class Togekiss--><g id="elem_Togekiss"><rect codeLine="35" fill="#F1F1F1" height="100.8281" id="Togekiss" rx="2.5" ry="2.5" style="stroke:#181818;stroke-width:0.5;" width="93" x="1859.5" y="7"/><ellipse cx="1876.3" cy="23" fill="#ADD1B2" rx="11" ry="11" style="stroke:#181818;stroke-width:1.0;"/><path d="M1879.0656,18.875 Q1879.2219,18.6563 1879.4094,18.5469 Q1879.5969,18.4375 1879.8156,18.4375 Q1880.1906,18.4375 1880.425,18.7031 Q1880.6594,18.9531 1880.6594,19.5625 L1880.6594,21.0156 Q1880.6594,21.625 1880.425,21.8906 Q1880.1906,22.1563 1879.8156,22.1563 Q1879.4719,22.1563 1879.2688,21.9531 Q1879.0656,21.7656 1878.9563,21.25 Q1878.9094,20.8906 1878.7219,20.7031 Q1878.3938,20.3281 1877.7844,20.1094 Q1877.175,19.8906 1876.55,19.8906 Q1875.7844,19.8906 1875.1438,20.2188 Q1874.5188,20.5469 1874.0188,21.2969 Q1873.5344,22.0469 1873.5344,23.0781 L1873.5344,24.1719 Q1873.5344,25.4063 1874.425,26.2344 Q1875.3156,27.0469 1876.9094,27.0469 Q1877.8469,27.0469 1878.5031,26.7969 Q1878.8938,26.6406 1879.3156,26.2031 Q1879.5813,25.9375 1879.7219,25.8594 Q1879.8781,25.7813 1880.0813,25.7813 Q1880.4094,25.7813 1880.6594,26.0469 Q1880.925,26.2969 1880.925,26.6406 Q1880.925,26.9844 1880.5813,27.3906 Q1880.0813,27.9688 1879.2844,28.2969 Q1878.2063,28.75 1876.9094,28.75 Q1875.3938,28.75 1874.1906,28.125 Q1873.2063,27.625 1872.5188,26.5625 Q1871.8313,25.4844 1871.8313,24.2031 L1871.8313,23.0469 Q1871.8313,21.7188 1872.4406,20.5781 Q1873.0656,19.4219 1874.1594,18.8125 Q1875.2531,18.1875 1876.4875,18.1875 Q1877.2219,18.1875 1877.8625,18.3594 Q1878.5188,18.5156 1879.0656,18.875 Z " fill="#000000"/><text fill="#000000" font-family="sans-serif" font-size="14" lengthAdjust="spacing" textLength="57" x="1890.7" y="28.7285">Togekiss</text><line style="stroke:#181818;stroke-width:0.5;" x1="1860.5" x2="1951.5" y1="39" y2="39"/><text fill="#000000" font-family="sans-serif" font-size="14" lengthAdjust="spacing" textLength="80" x="1865.5" y="57.5332">name: String</text><text fill="#000000" font-family="sans-serif" font-size="14" lengthAdjust="spacing" textLength="52" x="1865.5" y="75.1426">level: int</text><line style="stroke:#181818;stroke-width:0.5;" x1="1860.5" x2="1951.5" y1="82.2188" y2="82.2188"/><ellipse cx="1870.5" cy="96.5234" fill="#84BE84" rx="3" ry="3" style="stroke:#038048;stroke-width:1.0;"/><text fill="#000000" font-family="sans-serif" font-size="14" lengthAdjust="spacing" textLength="67" x="1879.5" y="100.752">Togekiss()</text></g><!--class Rest--><g id="elem_Rest"><rect codeLine="48" fill="#F1F1F1" height="153.6563" id="Rest" rx="2.5" ry="2.5" style="stroke:#181818;stroke-width:0.5;" width="171" x="594.5" y="578"/><ellipse cx="661.25" cy="594" fill="#ADD1B2" rx="11" ry="11" style="stroke:#181818;stroke-width:1.0;"/><path d="M664.0156,589.875 Q664.1719,589.6563 664.3594,589.5469 Q664.5469,589.4375 664.7656,589.4375 Q665.1406,589.4375 665.375,589.7031 Q665.6094,589.9531 665.6094,590.5625 L665.6094,592.0156 Q665.6094,592.625 665.375,592.8906 Q665.1406,593.1563 664.7656,593.1563 Q664.4219,593.1563 664.2188,592.9531 Q664.0156,592.7656 663.9063,592.25 Q663.8594,591.8906 663.6719,591.7031 Q663.3438,591.3281 662.7344,591.1094 Q662.125,590.8906 661.5,590.8906 Q660.7344,590.8906 660.0938,591.2188 Q659.4688,591.5469 658.9688,592.2969 Q658.4844,593.0469 658.4844,594.0781 L658.4844,595.1719 Q658.4844,596.4063 659.375,597.2344 Q660.2656,598.0469 661.8594,598.0469 Q662.7969,598.0469 663.4531,597.7969 Q663.8438,597.6406 664.2656,597.2031 Q664.5313,596.9375 664.6719,596.8594 Q664.8281,596.7813 665.0313,596.7813 Q665.3594,596.7813 665.6094,597.0469 Q665.875,597.2969 665.875,597.6406 Q665.875,597.9844 665.5313,598.3906 Q665.0313,598.9688 664.2344,599.2969 Q663.1563,599.75 661.8594,599.75 Q660.3438,599.75 659.1406,599.125 Q658.1563,598.625 657.4688,597.5625 Q656.7813,596.4844 656.7813,595.2031 L656.7813,594.0469 Q656.7813,592.7188 657.3906,591.5781 Q658.0156,590.4219 659.1094,589.8125 Q660.2031,589.1875 661.4375,589.1875 Q662.1719,589.1875 662.8125,589.3594 Q663.4688,589.5156 664.0156,589.875 Z " fill="#000000"/><text fill="#000000" font-family="sans-serif" font-size="14" lengthAdjust="spacing" textLength="29" x="681.75" y="599.7285">Rest</text><line style="stroke:#181818;stroke-width:0.5;" x1="595.5" x2="764.5" y1="610" y2="610"/><text fill="#000000" font-family="sans-serif" font-size="14" lengthAdjust="spacing" textLength="67" x="600.5" y="628.5332">type: Type</text><text fill="#000000" font-family="sans-serif" font-size="14" lengthAdjust="spacing" textLength="76" x="600.5" y="646.1426">pow: double</text><text fill="#000000" font-family="sans-serif" font-size="14" lengthAdjust="spacing" textLength="73" x="600.5" y="663.752">acc: double</text><line style="stroke:#181818;stroke-width:0.5;" x1="595.5" x2="764.5" y1="670.8281" y2="670.8281"/><ellipse cx="605.5" cy="685.1328" fill="#84BE84" rx="3" ry="3" style="stroke:#038048;stroke-width:1.0;"/><text fill="#000000" font-family="sans-serif" font-size="14" lengthAdjust="spacing" textLength="39" x="614.5" y="689.3613">Rest()</text><polygon fill="#FFFF44" points="605.5,697.7422,609.5,701.7422,605.5,705.7422,601.5,701.7422" style="stroke:#B38D22;stroke-width:1.0;"/><text fill="#000000" font-family="sans-serif" font-size="14" lengthAdjust="spacing" textLength="145" x="614.5" y="706.9707">applySelfEffects(): void</text><polygon fill="#FFFF44" points="605.5,715.3516,609.5,719.3516,605.5,723.3516,601.5,719.3516" style="stroke:#B38D22;stroke-width:1.0;"/><text fill="#000000" font-family="sans-serif" font-size="14" lengthAdjust="spacing" textLength="109" x="614.5" y="724.5801">describe(): String</text></g><!--class XScissors--><g id="elem_XScissors"><rect codeLine="57" fill="#F1F1F1" height="136.0469" id="XScissors" rx="2.5" ry="2.5" style="stroke:#181818;stroke-width:0.5;" width="135" x="218.5" y="587"/><ellipse cx="252.4" cy="603" fill="#ADD1B2" rx="11" ry="11" style="stroke:#181818;stroke-width:1.0;"/><path d="M255.1656,598.875 Q255.3219,598.6563 255.5094,598.5469 Q255.6969,598.4375 255.9156,598.4375 Q256.2906,598.4375 256.525,598.7031 Q256.7594,598.9531 256.7594,599.5625 L256.7594,601.0156 Q256.7594,601.625 256.525,601.8906 Q256.2906,602.1563 255.9156,602.1563 Q255.5719,602.1563 255.3688,601.9531 Q255.1656,601.7656 255.0563,601.25 Q255.0094,600.8906 254.8219,600.7031 Q254.4938,600.3281 253.8844,600.1094 Q253.275,599.8906 252.65,599.8906 Q251.8844,599.8906 251.2438,600.2188 Q250.6188,600.5469 250.1188,601.2969 Q249.6344,602.0469 249.6344,603.0781 L249.6344,604.1719 Q249.6344,605.4063 250.525,606.2344 Q251.4156,607.0469 253.0094,607.0469 Q253.9469,607.0469 254.6031,606.7969 Q254.9938,606.6406 255.4156,606.2031 Q255.6813,605.9375 255.8219,605.8594 Q255.9781,605.7813 256.1813,605.7813 Q256.5094,605.7813 256.7594,606.0469 Q257.025,606.2969 257.025,606.6406 Q257.025,606.9844 256.6813,607.3906 Q256.1813,607.9688 255.3844,608.2969 Q254.3063,608.75 253.0094,608.75 Q251.4938,608.75 250.2906,608.125 Q249.3063,607.625 248.6188,606.5625 Q247.9313,605.4844 247.9313,604.2031 L247.9313,603.0469 Q247.9313,601.7188 248.5406,600.5781 Q249.1656,599.4219 250.2594,598.8125 Q251.3531,598.1875 252.5875,598.1875 Q253.3219,598.1875 253.9625,598.3594 Q254.6188,598.5156 255.1656,598.875 Z " fill="#000000"/><text fill="#000000" font-family="sans-serif" font-size="14" lengthAdjust="spacing" textLength="61" x="270.6" y="608.7285">XScissors</text><line style="stroke:#181818;stroke-width:0.5;" x1="219.5" x2="352.5" y1="619" y2="619"/><text fill="#000000" font-family="sans-serif" font-size="14" lengthAdjust="spacing" textLength="67" x="224.5" y="637.5332">type: Type</text><text fill="#000000" font-family="sans-serif" font-size="14" lengthAdjust="spacing" textLength="76" x="224.5" y="655.1426">pow: double</text><text fill="#000000" font-family="sans-serif" font-size="14" lengthAdjust="spacing" textLength="73" x="224.5" y="672.752">acc: double</text><line style="stroke:#181818;stroke-width:0.5;" x1="219.5" x2="352.5" y1="679.8281" y2="679.8281"/><ellipse cx="229.5" cy="694.1328" fill="#84BE84" rx="3" ry="3" style="stroke:#038048;stroke-width:1.0;"/><text fill="#000000" font-family="sans-serif" font-size="14" lengthAdjust="spacing" textLength="71" x="238.5" y="698.3613">XScissors()</text><polygon fill="#FFFF44" points="229.5,706.7422,233.5,710.7422,229.5,714.7422,225.5,710.7422" style="stroke:#B38D22;stroke-width:1.0;"/><text fill="#000000" font-family="sans-serif" font-size="14" lengthAdjust="spacing" textLength="109" x="238.5" y="715.9707">describe(): String</text></g><!--class PoisonJab--><g id="elem_PoisonJab"><rect codeLine="65" fill="#F1F1F1" height="153.6563" id="PoisonJab" rx="2.5" ry="2.5" style="stroke:#181818;stroke-width:0.5;" width="174" x="9" y="578"/><ellipse cx="59.25" cy="594" fill="#ADD1B2" rx="11" ry="11" style="stroke:#181818;stroke-width:1.0;"/><path d="M62.0156,589.875 Q62.1719,589.6563 62.3594,589.5469 Q62.5469,589.4375 62.7656,589.4375 Q63.1406,589.4375 63.375,589.7031 Q63.6094,589.9531 63.6094,590.5625 L63.6094,592.0156 Q63.6094,592.625 63.375,592.8906 Q63.1406,593.1563 62.7656,593.1563 Q62.4219,593.1563 62.2188,592.9531 Q62.0156,592.7656 61.9063,592.25 Q61.8594,591.8906 61.6719,591.7031 Q61.3438,591.3281 60.7344,591.1094 Q60.125,590.8906 59.5,590.8906 Q58.7344,590.8906 58.0938,591.2188 Q57.4688,591.5469 56.9688,592.2969 Q56.4844,593.0469 56.4844,594.0781 L56.4844,595.1719 Q56.4844,596.4063 57.375,597.2344 Q58.2656,598.0469 59.8594,598.0469 Q60.7969,598.0469 61.4531,597.7969 Q61.8438,597.6406 62.2656,597.2031 Q62.5313,596.9375 62.6719,596.8594 Q62.8281,596.7813 63.0313,596.7813 Q63.3594,596.7813 63.6094,597.0469 Q63.875,597.2969 63.875,597.6406 Q63.875,597.9844 63.5313,598.3906 Q63.0313,598.9688 62.2344,599.2969 Q61.1563,599.75 59.8594,599.75 Q58.3438,599.75 57.1406,599.125 Q56.1563,598.625 55.4688,597.5625 Q54.7813,596.4844 54.7813,595.2031 L54.7813,594.0469 Q54.7813,592.7188 55.3906,591.5781 Q56.0156,590.4219 57.1094,589.8125 Q58.2031,589.1875 59.4375,589.1875 Q60.1719,589.1875 60.8125,589.3594 Q61.4688,589.5156 62.0156,589.875 Z " fill="#000000"/><text fill="#000000" font-family="sans-serif" font-size="14" lengthAdjust="spacing" textLength="65" x="79.75" y="599.7285">PoisonJab</text><line style="stroke:#181818;stroke-width:0.5;" x1="10" x2="182" y1="610" y2="610"/><text fill="#000000" font-family="sans-serif" font-size="14" lengthAdjust="spacing" textLength="67" x="15" y="628.5332">type: Type</text><text fill="#000000" font-family="sans-serif" font-size="14" lengthAdjust="spacing" textLength="76" x="15" y="646.1426">pow: double</text><text fill="#000000" font-family="sans-serif" font-size="14" lengthAdjust="spacing" textLength="73" x="15" y="663.752">acc: double</text><line style="stroke:#181818;stroke-width:0.5;" x1="10" x2="182" y1="670.8281" y2="670.8281"/><ellipse cx="20" cy="685.1328" fill="#84BE84" rx="3" ry="3" style="stroke:#038048;stroke-width:1.0;"/><text fill="#000000" font-family="sans-serif" font-size="14" lengthAdjust="spacing" textLength="75" x="29" y="689.3613">PoisonJab()</text><polygon fill="#FFFF44" points="20,697.7422,24,701.7422,20,705.7422,16,701.7422" style="stroke:#B38D22;stroke-width:1.0;"/><text fill="#000000" font-family="sans-serif" font-size="14" lengthAdjust="spacing" textLength="148" x="29" y="706.9707">applyOppEffects(): void</text><polygon fill="#FFFF44" points="20,715.3516,24,719.3516,20,723.3516,16,719.3516" style="stroke:#B38D22;stroke-width:1.0;"/><text fill="#000000" font-family="sans-serif" font-size="14" lengthAdjust="spacing" textLength="109" x="29" y="724.5801">describe(): String</text></g><!--class CalmMind--><g id="elem_CalmMind"><rect codeLine="74" fill="#F1F1F1" height="153.6563" id="CalmMind" rx="2.5" ry="2.5" style="stroke:#181818;stroke-width:0.5;" width="171" x="388.5" y="578"/><ellipse cx="438.75" cy="594" fill="#ADD1B2" rx="11" ry="11" style="stroke:#181818;stroke-width:1.0;"/><path d="M441.5156,589.875 Q441.6719,589.6563 441.8594,589.5469 Q442.0469,589.4375 442.2656,589.4375 Q442.6406,589.4375 442.875,589.7031 Q443.1094,589.9531 443.1094,590.5625 L443.1094,592.0156 Q443.1094,592.625 442.875,592.8906 Q442.6406,593.1563 442.2656,593.1563 Q441.9219,593.1563 441.7188,592.9531 Q441.5156,592.7656 441.4063,592.25 Q441.3594,591.8906 441.1719,591.7031 Q440.8438,591.3281 440.2344,591.1094 Q439.625,590.8906 439,590.8906 Q438.2344,590.8906 437.5938,591.2188 Q436.9688,591.5469 436.4688,592.2969 Q435.9844,593.0469 435.9844,594.0781 L435.9844,595.1719 Q435.9844,596.4063 436.875,597.2344 Q437.7656,598.0469 439.3594,598.0469 Q440.2969,598.0469 440.9531,597.7969 Q441.3438,597.6406 441.7656,597.2031 Q442.0313,596.9375 442.1719,596.8594 Q442.3281,596.7813 442.5313,596.7813 Q442.8594,596.7813 443.1094,597.0469 Q443.375,597.2969 443.375,597.6406 Q443.375,597.9844 443.0313,598.3906 Q442.5313,598.9688 441.7344,599.2969 Q440.6563,599.75 439.3594,599.75 Q437.8438,599.75 436.6406,599.125 Q435.6563,598.625 434.9688,597.5625 Q434.2813,596.4844 434.2813,595.2031 L434.2813,594.0469 Q434.2813,592.7188 434.8906,591.5781 Q435.5156,590.4219 436.6094,589.8125 Q437.7031,589.1875 438.9375,589.1875 Q439.6719,589.1875 440.3125,589.3594 Q440.9688,589.5156 441.5156,589.875 Z " fill="#000000"/><text fill="#000000" font-family="sans-serif" font-size="14" lengthAdjust="spacing" textLength="62" x="459.25" y="599.7285">CalmMind</text><line style="stroke:#181818;stroke-width:0.5;" x1="389.5" x2="558.5" y1="610" y2="610"/><text fill="#000000" font-family="sans-serif" font-size="14" lengthAdjust="spacing" textLength="67" x="394.5" y="628.5332">type: Type</text><text fill="#000000" font-family="sans-serif" font-size="14" lengthAdjust="spacing" textLength="76" x="394.5" y="646.1426">pow: double</text><text fill="#000000" font-family="sans-serif" font-size="14" lengthAdjust="spacing" textLength="73" x="394.5" y="663.752">acc: double</text><line style="stroke:#181818;stroke-width:0.5;" x1="389.5" x2="558.5" y1="670.8281" y2="670.8281"/><ellipse cx="399.5" cy="685.1328" fill="#84BE84" rx="3" ry="3" style="stroke:#038048;stroke-width:1.0;"/><text fill="#000000" font-family="sans-serif" font-size="14" lengthAdjust="spacing" textLength="72" x="408.5" y="689.3613">CalmMind()</text><polygon fill="#FFFF44" points="399.5,697.7422,403.5,701.7422,399.5,705.7422,395.5,701.7422" style="stroke:#B38D22;stroke-width:1.0;"/><text fill="#000000" font-family="sans-serif" font-size="14" lengthAdjust="spacing" textLength="145" x="408.5" y="706.9707">applySelfEffects(): void</text><polygon fill="#FFFF44" points="399.5,715.3516,403.5,719.3516,399.5,723.3516,395.5,719.3516" style="stroke:#B38D22;stroke-width:1.0;"/><text fill="#000000" font-family="sans-serif" font-size="14" lengthAdjust="spacing" textLength="109" x="408.5" y="724.5801">describe(): String</text></g><!--class Confide--><g id="elem_Confide"><rect codeLine="83" fill="#F1F1F1" height="153.6563" id="Confide" rx="2.5" ry="2.5" style="stroke:#181818;stroke-width:0.5;" width="174" x="1229" y="578"/><ellipse cx="1287.25" cy="594" fill="#ADD1B2" rx="11" ry="11" style="stroke:#181818;stroke-width:1.0;"/><path d="M1290.0156,589.875 Q1290.1719,589.6563 1290.3594,589.5469 Q1290.5469,589.4375 1290.7656,589.4375 Q1291.1406,589.4375 1291.375,589.7031 Q1291.6094,589.9531 1291.6094,590.5625 L1291.6094,592.0156 Q1291.6094,592.625 1291.375,592.8906 Q1291.1406,593.1563 1290.7656,593.1563 Q1290.4219,593.1563 1290.2188,592.9531 Q1290.0156,592.7656 1289.9063,592.25 Q1289.8594,591.8906 1289.6719,591.7031 Q1289.3438,591.3281 1288.7344,591.1094 Q1288.125,590.8906 1287.5,590.8906 Q1286.7344,590.8906 1286.0938,591.2188 Q1285.4688,591.5469 1284.9688,592.2969 Q1284.4844,593.0469 1284.4844,594.0781 L1284.4844,595.1719 Q1284.4844,596.4063 1285.375,597.2344 Q1286.2656,598.0469 1287.8594,598.0469 Q1288.7969,598.0469 1289.4531,597.7969 Q1289.8438,597.6406 1290.2656,597.2031 Q1290.5313,596.9375 1290.6719,596.8594 Q1290.8281,596.7813 1291.0313,596.7813 Q1291.3594,596.7813 1291.6094,597.0469 Q1291.875,597.2969 1291.875,597.6406 Q1291.875,597.9844 1291.5313,598.3906 Q1291.0313,598.9688 1290.2344,599.2969 Q1289.1563,599.75 1287.8594,599.75 Q1286.3438,599.75 1285.1406,599.125 Q1284.1563,598.625 1283.4688,597.5625 Q1282.7813,596.4844 1282.7813,595.2031 L1282.7813,594.0469 Q1282.7813,592.7188 1283.3906,591.5781 Q1284.0156,590.4219 1285.1094,589.8125 Q1286.2031,589.1875 1287.4375,589.1875 Q1288.1719,589.1875 1288.8125,589.3594 Q1289.4688,589.5156 1290.0156,589.875 Z " fill="#000000"/><text fill="#000000" font-family="sans-serif" font-size="14" lengthAdjust="spacing" textLength="49" x="1307.75" y="599.7285">Confide</text><line style="stroke:#181818;stroke-width:0.5;" x1="1230" x2="1402" y1="610" y2="610"/><text fill="#000000" font-family="sans-serif" font-size="14" lengthAdjust="spacing" textLength="67" x="1235" y="628.5332">type: Type</text><text fill="#000000" font-family="sans-serif" font-size="14" lengthAdjust="spacing" textLength="76" x="1235" y="646.1426">pow: double</text><text fill="#000000" font-family="sans-serif" font-size="14" lengthAdjust="spacing" textLength="73" x="1235" y="663.752">acc: double</text><line style="stroke:#181818;stroke-width:0.5;" x1="1230" x2="1402" y1="670.8281" y2="670.8281"/><ellipse cx="1240" cy="685.1328" fill="#84BE84" rx="3" ry="3" style="stroke:#038048;stroke-width:1.0;"/><text fill="#000000" font-family="sans-serif" font-size="14" lengthAdjust="spacing" textLength="59" x="1249" y="689.3613">Confide()</text><polygon fill="#FFFF44" points="1240,697.7422,1244,701.7422,1240,705.7422,1236,701.7422" style="stroke:#B38D22;stroke-width:1.0;"/><text fill="#000000" font-family="sans-serif" font-size="14" lengthAdjust="spacing" textLength="148" x="1249" y="706.9707">applyOppEffects(): void</text><polygon fill="#FFFF44" points="1240,715.3516,1244,719.3516,1240,723.3516,1236,719.3516" style="stroke:#B38D22;stroke-width:1.0;"/><text fill="#000000" font-family="sans-serif" font-size="14" lengthAdjust="spacing" textLength="109" x="1249" y="724.5801">describe(): String</text></g><!--class Facade--><g id="elem_Facade"><rect codeLine="92" fill="#F1F1F1" height="153.6563" id="Facade" rx="2.5" ry="2.5" style="stroke:#181818;stroke-width:0.5;" width="184" x="801" y="578"/><ellipse cx="864.75" cy="594" fill="#ADD1B2" rx="11" ry="11" style="stroke:#181818;stroke-width:1.0;"/><path d="M867.5156,589.875 Q867.6719,589.6563 867.8594,589.5469 Q868.0469,589.4375 868.2656,589.4375 Q868.6406,589.4375 868.875,589.7031 Q869.1094,589.9531 869.1094,590.5625 L869.1094,592.0156 Q869.1094,592.625 868.875,592.8906 Q868.6406,593.1563 868.2656,593.1563 Q867.9219,593.1563 867.7188,592.9531 Q867.5156,592.7656 867.4063,592.25 Q867.3594,591.8906 867.1719,591.7031 Q866.8438,591.3281 866.2344,591.1094 Q865.625,590.8906 865,590.8906 Q864.2344,590.8906 863.5938,591.2188 Q862.9688,591.5469 862.4688,592.2969 Q861.9844,593.0469 861.9844,594.0781 L861.9844,595.1719 Q861.9844,596.4063 862.875,597.2344 Q863.7656,598.0469 865.3594,598.0469 Q866.2969,598.0469 866.9531,597.7969 Q867.3438,597.6406 867.7656,597.2031 Q868.0313,596.9375 868.1719,596.8594 Q868.3281,596.7813 868.5313,596.7813 Q868.8594,596.7813 869.1094,597.0469 Q869.375,597.2969 869.375,597.6406 Q869.375,597.9844 869.0313,598.3906 Q868.5313,598.9688 867.7344,599.2969 Q866.6563,599.75 865.3594,599.75 Q863.8438,599.75 862.6406,599.125 Q861.6563,598.625 860.9688,597.5625 Q860.2813,596.4844 860.2813,595.2031 L860.2813,594.0469 Q860.2813,592.7188 860.8906,591.5781 Q861.5156,590.4219 862.6094,589.8125 Q863.7031,589.1875 864.9375,589.1875 Q865.6719,589.1875 866.3125,589.3594 Q866.9688,589.5156 867.5156,589.875 Z " fill="#000000"/><text fill="#000000" font-family="sans-serif" font-size="14" lengthAdjust="spacing" textLength="48" x="885.25" y="599.7285">Facade</text><line style="stroke:#181818;stroke-width:0.5;" x1="802" x2="984" y1="610" y2="610"/><text fill="#000000" font-family="sans-serif" font-size="14" lengthAdjust="spacing" textLength="67" x="807" y="628.5332">type: Type</text><text fill="#000000" font-family="sans-serif" font-size="14" lengthAdjust="spacing" textLength="76" x="807" y="646.1426">pow: double</text><text fill="#000000" font-family="sans-serif" font-size="14" lengthAdjust="spacing" textLength="73" x="807" y="663.752">acc: double</text><line style="stroke:#181818;stroke-width:0.5;" x1="802" x2="984" y1="670.8281" y2="670.8281"/><ellipse cx="812" cy="685.1328" fill="#84BE84" rx="3" ry="3" style="stroke:#038048;stroke-width:1.0;"/><text fill="#000000" font-family="sans-serif" font-size="14" lengthAdjust="spacing" textLength="58" x="821" y="689.3613">Facade()</text><polygon fill="#FFFF44" points="812,697.7422,816,701.7422,812,705.7422,808,701.7422" style="stroke:#B38D22;stroke-width:1.0;"/><text fill="#000000" font-family="sans-serif" font-size="14" lengthAdjust="spacing" textLength="158" x="821" y="706.9707">applyOppDamage(): void</text><polygon fill="#FFFF44" points="812,715.3516,816,719.3516,812,723.3516,808,719.3516" style="stroke:#B38D22;stroke-width:1.0;"/><text fill="#000000" font-family="sans-serif" font-size="14" lengthAdjust="spacing" textLength="109" x="821" y="724.5801">describe(): String</text></g><!--class Overheat--><g id="elem_Overheat"><rect codeLine="101" fill="#F1F1F1" height="153.6563" id="Overheat" rx="2.5" ry="2.5" style="stroke:#181818;stroke-width:0.5;" width="171" x="1269.5" y="364"/><ellipse cx="1321.25" cy="380" fill="#ADD1B2" rx="11" ry="11" style="stroke:#181818;stroke-width:1.0;"/><path d="M1324.0156,375.875 Q1324.1719,375.6563 1324.3594,375.5469 Q1324.5469,375.4375 1324.7656,375.4375 Q1325.1406,375.4375 1325.375,375.7031 Q1325.6094,375.9531 1325.6094,376.5625 L1325.6094,378.0156 Q1325.6094,378.625 1325.375,378.8906 Q1325.1406,379.1563 1324.7656,379.1563 Q1324.4219,379.1563 1324.2188,378.9531 Q1324.0156,378.7656 1323.9063,378.25 Q1323.8594,377.8906 1323.6719,377.7031 Q1323.3438,377.3281 1322.7344,377.1094 Q1322.125,376.8906 1321.5,376.8906 Q1320.7344,376.8906 1320.0938,377.2188 Q1319.4688,377.5469 1318.9688,378.2969 Q1318.4844,379.0469 1318.4844,380.0781 L1318.4844,381.1719 Q1318.4844,382.4063 1319.375,383.2344 Q1320.2656,384.0469 1321.8594,384.0469 Q1322.7969,384.0469 1323.4531,383.7969 Q1323.8438,383.6406 1324.2656,383.2031 Q1324.5313,382.9375 1324.6719,382.8594 Q1324.8281,382.7813 1325.0313,382.7813 Q1325.3594,382.7813 1325.6094,383.0469 Q1325.875,383.2969 1325.875,383.6406 Q1325.875,383.9844 1325.5313,384.3906 Q1325.0313,384.9688 1324.2344,385.2969 Q1323.1563,385.75 1321.8594,385.75 Q1320.3438,385.75 1319.1406,385.125 Q1318.1563,384.625 1317.4688,383.5625 Q1316.7813,382.4844 1316.7813,381.2031 L1316.7813,380.0469 Q1316.7813,378.7188 1317.3906,377.5781 Q1318.0156,376.4219 1319.1094,375.8125 Q1320.2031,375.1875 1321.4375,375.1875 Q1322.1719,375.1875 1322.8125,375.3594 Q1323.4688,375.5156 1324.0156,375.875 Z " fill="#000000"/><text fill="#000000" font-family="sans-serif" font-size="14" lengthAdjust="spacing" textLength="59" x="1341.75" y="385.7285">Overheat</text><line style="stroke:#181818;stroke-width:0.5;" x1="1270.5" x2="1439.5" y1="396" y2="396"/><text fill="#000000" font-family="sans-serif" font-size="14" lengthAdjust="spacing" textLength="67" x="1275.5" y="414.5332">type: Type</text><text fill="#000000" font-family="sans-serif" font-size="14" lengthAdjust="spacing" textLength="76" x="1275.5" y="432.1426">pow: double</text><text fill="#000000" font-family="sans-serif" font-size="14" lengthAdjust="spacing" textLength="73" x="1275.5" y="449.752">acc: double</text><line style="stroke:#181818;stroke-width:0.5;" x1="1270.5" x2="1439.5" y1="456.8281" y2="456.8281"/><ellipse cx="1280.5" cy="471.1328" fill="#84BE84" rx="3" ry="3" style="stroke:#038048;stroke-width:1.0;"/><text fill="#000000" font-family="sans-serif" font-size="14" lengthAdjust="spacing" textLength="69" x="1289.5" y="475.3613">Overheat()</text><polygon fill="#FFFF44" points="1280.5,483.7422,1284.5,487.7422,1280.5,491.7422,1276.5,487.7422" style="stroke:#B38D22;stroke-width:1.0;"/><text fill="#000000" font-family="sans-serif" font-size="14" lengthAdjust="spacing" textLength="145" x="1289.5" y="492.9707">applySelfEffects(): void</text><polygon fill="#FFFF44" points="1280.5,501.3516,1284.5,505.3516,1280.5,509.3516,1276.5,505.3516" style="stroke:#B38D22;stroke-width:1.0;"/><text fill="#000000" font-family="sans-serif" font-size="14" lengthAdjust="spacing" textLength="109" x="1289.5" y="510.5801">describe(): String</text></g><!--class FireBlast--><g id="elem_FireBlast"><rect codeLine="110" fill="#F1F1F1" height="153.6563" id="FireBlast" rx="2.5" ry="2.5" style="stroke:#181818;stroke-width:0.5;" width="174" x="1718" y="578"/><ellipse cx="1772.75" cy="594" fill="#ADD1B2" rx="11" ry="11" style="stroke:#181818;stroke-width:1.0;"/><path d="M1775.5156,589.875 Q1775.6719,589.6563 1775.8594,589.5469 Q1776.0469,589.4375 1776.2656,589.4375 Q1776.6406,589.4375 1776.875,589.7031 Q1777.1094,589.9531 1777.1094,590.5625 L1777.1094,592.0156 Q1777.1094,592.625 1776.875,592.8906 Q1776.6406,593.1563 1776.2656,593.1563 Q1775.9219,593.1563 1775.7188,592.9531 Q1775.5156,592.7656 1775.4063,592.25 Q1775.3594,591.8906 1775.1719,591.7031 Q1774.8438,591.3281 1774.2344,591.1094 Q1773.625,590.8906 1773,590.8906 Q1772.2344,590.8906 1771.5938,591.2188 Q1770.9688,591.5469 1770.4688,592.2969 Q1769.9844,593.0469 1769.9844,594.0781 L1769.9844,595.1719 Q1769.9844,596.4063 1770.875,597.2344 Q1771.7656,598.0469 1773.3594,598.0469 Q1774.2969,598.0469 1774.9531,597.7969 Q1775.3438,597.6406 1775.7656,597.2031 Q1776.0313,596.9375 1776.1719,596.8594 Q1776.3281,596.7813 1776.5313,596.7813 Q1776.8594,596.7813 1777.1094,597.0469 Q1777.375,597.2969 1777.375,597.6406 Q1777.375,597.9844 1777.0313,598.3906 Q1776.5313,598.9688 1775.7344,599.2969 Q1774.6563,599.75 1773.3594,599.75 Q1771.8438,599.75 1770.6406,599.125 Q1769.6563,598.625 1768.9688,597.5625 Q1768.2813,596.4844 1768.2813,595.2031 L1768.2813,594.0469 Q1768.2813,592.7188 1768.8906,591.5781 Q1769.5156,590.4219 1770.6094,589.8125 Q1771.7031,589.1875 1772.9375,589.1875 Q1773.6719,589.1875 1774.3125,589.3594 Q1774.9688,589.5156 1775.5156,589.875 Z " fill="#000000"/><text fill="#000000" font-family="sans-serif" font-size="14" lengthAdjust="spacing" textLength="56" x="1793.25" y="599.7285">FireBlast</text><line style="stroke:#181818;stroke-width:0.5;" x1="1719" x2="1891" y1="610" y2="610"/><text fill="#000000" font-family="sans-serif" font-size="14" lengthAdjust="spacing" textLength="67" x="1724" y="628.5332">type: Type</text><text fill="#000000" font-family="sans-serif" font-size="14" lengthAdjust="spacing" textLength="76" x="1724" y="646.1426">pow: double</text><text fill="#000000" font-family="sans-serif" font-size="14" lengthAdjust="spacing" textLength="73" x="1724" y="663.752">acc: double</text><line style="stroke:#181818;stroke-width:0.5;" x1="1719" x2="1891" y1="670.8281" y2="670.8281"/><ellipse cx="1729" cy="685.1328" fill="#84BE84" rx="3" ry="3" style="stroke:#038048;stroke-width:1.0;"/><text fill="#000000" font-family="sans-serif" font-size="14" lengthAdjust="spacing" textLength="66" x="1738" y="689.3613">FireBlast()</text><polygon fill="#FFFF44" points="1729,697.7422,1733,701.7422,1729,705.7422,1725,701.7422" style="stroke:#B38D22;stroke-width:1.0;"/><text fill="#000000" font-family="sans-serif" font-size="14" lengthAdjust="spacing" textLength="148" x="1738" y="706.9707">applyOppEffects(): void</text><polygon fill="#FFFF44" points="1729,715.3516,1733,719.3516,1729,723.3516,1725,719.3516" style="stroke:#B38D22;stroke-width:1.0;"/><text fill="#000000" font-family="sans-serif" font-size="14" lengthAdjust="spacing" textLength="109" x="1738" y="724.5801">describe(): String</text></g><!--class ShadowBall--><g id="elem_ShadowBall"><rect codeLine="119" fill="#F1F1F1" height="153.6563" id="ShadowBall" rx="2.5" ry="2.5" style="stroke:#181818;stroke-width:0.5;" width="174" x="1509" y="578"/><ellipse cx="1555.25" cy="594" fill="#ADD1B2" rx="11" ry="11" style="stroke:#181818;stroke-width:1.0;"/><path d="M1558.0156,589.875 Q1558.1719,589.6563 1558.3594,589.5469 Q1558.5469,589.4375 1558.7656,589.4375 Q1559.1406,589.4375 1559.375,589.7031 Q1559.6094,589.9531 1559.6094,590.5625 L1559.6094,592.0156 Q1559.6094,592.625 1559.375,592.8906 Q1559.1406,593.1563 1558.7656,593.1563 Q1558.4219,593.1563 1558.2188,592.9531 Q1558.0156,592.7656 1557.9063,592.25 Q1557.8594,591.8906 1557.6719,591.7031 Q1557.3438,591.3281 1556.7344,591.1094 Q1556.125,590.8906 1555.5,590.8906 Q1554.7344,590.8906 1554.0938,591.2188 Q1553.4688,591.5469 1552.9688,592.2969 Q1552.4844,593.0469 1552.4844,594.0781 L1552.4844,595.1719 Q1552.4844,596.4063 1553.375,597.2344 Q1554.2656,598.0469 1555.8594,598.0469 Q1556.7969,598.0469 1557.4531,597.7969 Q1557.8438,597.6406 1558.2656,597.2031 Q1558.5313,596.9375 1558.6719,596.8594 Q1558.8281,596.7813 1559.0313,596.7813 Q1559.3594,596.7813 1559.6094,597.0469 Q1559.875,597.2969 1559.875,597.6406 Q1559.875,597.9844 1559.5313,598.3906 Q1559.0313,598.9688 1558.2344,599.2969 Q1557.1563,599.75 1555.8594,599.75 Q1554.3438,599.75 1553.1406,599.125 Q1552.1563,598.625 1551.4688,597.5625 Q1550.7813,596.4844 1550.7813,595.2031 L1550.7813,594.0469 Q1550.7813,592.7188 1551.3906,591.5781 Q1552.0156,590.4219 1553.1094,589.8125 Q1554.2031,589.1875 1555.4375,589.1875 Q1556.1719,589.1875 1556.8125,589.3594 Q1557.4688,589.5156 1558.0156,589.875 Z " fill="#000000"/><text fill="#000000" font-family="sans-serif" font-size="14" lengthAdjust="spacing" textLength="73" x="1575.75" y="599.7285">ShadowBall</text><line style="stroke:#181818;stroke-width:0.5;" x1="1510" x2="1682" y1="610" y2="610"/><text fill="#000000" font-family="sans-serif" font-size="14" lengthAdjust="spacing" textLength="67" x="1515" y="628.5332">type: Type</text><text fill="#000000" font-family="sans-serif" font-size="14" lengthAdjust="spacing" textLength="76" x="1515" y="646.1426">pow: double</text><text fill="#000000" font-family="sans-serif" font-size="14" lengthAdjust="spacing" textLength="73" x="1515" y="663.752">acc: double</text><line style="stroke:#181818;stroke-width:0.5;" x1="1510" x2="1682" y1="670.8281" y2="670.8281"/><ellipse cx="1520" cy="685.1328" fill="#84BE84" rx="3" ry="3" style="stroke:#038048;stroke-width:1.0;"/><text fill="#000000" font-family="sans-serif" font-size="14" lengthAdjust="spacing" textLength="83" x="1529" y="689.3613">ShadowBall()</text><polygon fill="#FFFF44" points="1520,697.7422,1524,701.7422,1520,705.7422,1516,701.7422" style="stroke:#B38D22;stroke-width:1.0;"/><text fill="#000000" font-family="sans-serif" font-size="14" lengthAdjust="spacing" textLength="148" x="1529" y="706.9707">applyOppEffects(): void</text><polygon fill="#FFFF44" points="1520,715.3516,1524,719.3516,1520,723.3516,1516,719.3516" style="stroke:#B38D22;stroke-width:1.0;"/><text fill="#000000" font-family="sans-serif" font-size="14" lengthAdjust="spacing" textLength="109" x="1529" y="724.5801">describe(): String</text></g><!--class MagicalLeaf--><g id="elem_MagicalLeaf"><rect codeLine="128" fill="#F1F1F1" height="153.6563" id="MagicalLeaf" rx="2.5" ry="2.5" style="stroke:#181818;stroke-width:0.5;" width="174" x="1819" y="364"/><ellipse cx="1863.75" cy="380" fill="#ADD1B2" rx="11" ry="11" style="stroke:#181818;stroke-width:1.0;"/><path d="M1866.5156,375.875 Q1866.6719,375.6563 1866.8594,375.5469 Q1867.0469,375.4375 1867.2656,375.4375 Q1867.6406,375.4375 1867.875,375.7031 Q1868.1094,375.9531 1868.1094,376.5625 L1868.1094,378.0156 Q1868.1094,378.625 1867.875,378.8906 Q1867.6406,379.1563 1867.2656,379.1563 Q1866.9219,379.1563 1866.7188,378.9531 Q1866.5156,378.7656 1866.4063,378.25 Q1866.3594,377.8906 1866.1719,377.7031 Q1865.8438,377.3281 1865.2344,377.1094 Q1864.625,376.8906 1864,376.8906 Q1863.2344,376.8906 1862.5938,377.2188 Q1861.9688,377.5469 1861.4688,378.2969 Q1860.9844,379.0469 1860.9844,380.0781 L1860.9844,381.1719 Q1860.9844,382.4063 1861.875,383.2344 Q1862.7656,384.0469 1864.3594,384.0469 Q1865.2969,384.0469 1865.9531,383.7969 Q1866.3438,383.6406 1866.7656,383.2031 Q1867.0313,382.9375 1867.1719,382.8594 Q1867.3281,382.7813 1867.5313,382.7813 Q1867.8594,382.7813 1868.1094,383.0469 Q1868.375,383.2969 1868.375,383.6406 Q1868.375,383.9844 1868.0313,384.3906 Q1867.5313,384.9688 1866.7344,385.2969 Q1865.6563,385.75 1864.3594,385.75 Q1862.8438,385.75 1861.6406,385.125 Q1860.6563,384.625 1859.9688,383.5625 Q1859.2813,382.4844 1859.2813,381.2031 L1859.2813,380.0469 Q1859.2813,378.7188 1859.8906,377.5781 Q1860.5156,376.4219 1861.6094,375.8125 Q1862.7031,375.1875 1863.9375,375.1875 Q1864.6719,375.1875 1865.3125,375.3594 Q1865.9688,375.5156 1866.5156,375.875 Z " fill="#000000"/><text fill="#000000" font-family="sans-serif" font-size="14" lengthAdjust="spacing" textLength="76" x="1884.25" y="385.7285">MagicalLeaf</text><line style="stroke:#181818;stroke-width:0.5;" x1="1820" x2="1992" y1="396" y2="396"/><text fill="#000000" font-family="sans-serif" font-size="14" lengthAdjust="spacing" textLength="67" x="1825" y="414.5332">type: Type</text><text fill="#000000" font-family="sans-serif" font-size="14" lengthAdjust="spacing" textLength="76" x="1825" y="432.1426">pow: double</text><text fill="#000000" font-family="sans-serif" font-size="14" lengthAdjust="spacing" textLength="73" x="1825" y="449.752">acc: double</text><line style="stroke:#181818;stroke-width:0.5;" x1="1820" x2="1992" y1="456.8281" y2="456.8281"/><ellipse cx="1830" cy="471.1328" fill="#84BE84" rx="3" ry="3" style="stroke:#038048;stroke-width:1.0;"/><text fill="#000000" font-family="sans-serif" font-size="14" lengthAdjust="spacing" textLength="86" x="1839" y="475.3613">MagicalLeaf()</text><polygon fill="#FFFF44" points="1830,483.7422,1834,487.7422,1830,491.7422,1826,487.7422" style="stroke:#B38D22;stroke-width:1.0;"/><text fill="#000000" font-family="sans-serif" font-size="14" lengthAdjust="spacing" textLength="148" x="1839" y="492.9707">applyOppEffects(): void</text><polygon fill="#FFFF44" points="1830,501.3516,1834,505.3516,1830,509.3516,1826,505.3516" style="stroke:#B38D22;stroke-width:1.0;"/><text fill="#000000" font-family="sans-serif" font-size="14" lengthAdjust="spacing" textLength="109" x="1839" y="510.5801">describe(): String</text></g><!--class DazzlingGleam--><g id="elem_DazzlingGleam"><rect codeLine="137" fill="#F1F1F1" height="136.0469" id="DazzlingGleam" rx="2.5" ry="2.5" style="stroke:#181818;stroke-width:0.5;" width="135" x="2099.5" y="168"/><ellipse cx="2119" cy="184" fill="#ADD1B2" rx="11" ry="11" style="stroke:#181818;stroke-width:1.0;"/><path d="M2121.7656,179.875 Q2121.9219,179.6563 2122.1094,179.5469 Q2122.2969,179.4375 2122.5156,179.4375 Q2122.8906,179.4375 2123.125,179.7031 Q2123.3594,179.9531 2123.3594,180.5625 L2123.3594,182.0156 Q2123.3594,182.625 2123.125,182.8906 Q2122.8906,183.1563 2122.5156,183.1563 Q2122.1719,183.1563 2121.9688,182.9531 Q2121.7656,182.7656 2121.6563,182.25 Q2121.6094,181.8906 2121.4219,181.7031 Q2121.0938,181.3281 2120.4844,181.1094 Q2119.875,180.8906 2119.25,180.8906 Q2118.4844,180.8906 2117.8438,181.2188 Q2117.2188,181.5469 2116.7188,182.2969 Q2116.2344,183.0469 2116.2344,184.0781 L2116.2344,185.1719 Q2116.2344,186.4063 2117.125,187.2344 Q2118.0156,188.0469 2119.6094,188.0469 Q2120.5469,188.0469 2121.2031,187.7969 Q2121.5938,187.6406 2122.0156,187.2031 Q2122.2813,186.9375 2122.4219,186.8594 Q2122.5781,186.7813 2122.7813,186.7813 Q2123.1094,186.7813 2123.3594,187.0469 Q2123.625,187.2969 2123.625,187.6406 Q2123.625,187.9844 2123.2813,188.3906 Q2122.7813,188.9688 2121.9844,189.2969 Q2120.9063,189.75 2119.6094,189.75 Q2118.0938,189.75 2116.8906,189.125 Q2115.9063,188.625 2115.2188,187.5625 Q2114.5313,186.4844 2114.5313,185.2031 L2114.5313,184.0469 Q2114.5313,182.7188 2115.1406,181.5781 Q2115.7656,180.4219 2116.8594,179.8125 Q2117.9531,179.1875 2119.1875,179.1875 Q2119.9219,179.1875 2120.5625,179.3594 Q2121.2188,179.5156 2121.7656,179.875 Z " fill="#000000"/><text fill="#000000" font-family="sans-serif" font-size="14" lengthAdjust="spacing" textLength="93" x="2134" y="189.7285">DazzlingGleam</text><line style="stroke:#181818;stroke-width:0.5;" x1="2100.5" x2="2233.5" y1="200" y2="200"/><text fill="#000000" font-family="sans-serif" font-size="14" lengthAdjust="spacing" textLength="67" x="2105.5" y="218.5332">type: Type</text><text fill="#000000" font-family="sans-serif" font-size="14" lengthAdjust="spacing" textLength="76" x="2105.5" y="236.1426">pow: double</text><text fill="#000000" font-family="sans-serif" font-size="14" lengthAdjust="spacing" textLength="73" x="2105.5" y="253.752">acc: double</text><line style="stroke:#181818;stroke-width:0.5;" x1="2100.5" x2="2233.5" y1="260.8281" y2="260.8281"/><ellipse cx="2110.5" cy="275.1328" fill="#84BE84" rx="3" ry="3" style="stroke:#038048;stroke-width:1.0;"/><text fill="#000000" font-family="sans-serif" font-size="14" lengthAdjust="spacing" textLength="103" x="2119.5" y="279.3613">DazzlingGleam()</text><polygon fill="#FFFF44" points="2110.5,287.7422,2114.5,291.7422,2110.5,295.7422,2106.5,291.7422" style="stroke:#B38D22;stroke-width:1.0;"/><text fill="#000000" font-family="sans-serif" font-size="14" lengthAdjust="spacing" textLength="109" x="2119.5" y="296.9707">describe(): String</text></g><g id="elem_SpecialMove"><rect fill="#F1F1F1" height="47.2188" style="stroke:#181818;stroke-width:0.5;" width="173" x="1718.5" y="792"/><text fill="#000000" font-family="sans-serif" font-size="14" lengthAdjust="spacing" textLength="80" x="1765" y="808.5332">SpecialMove</text><line style="stroke:#181818;stroke-width:0.5;" x1="1719.5" x2="1890.5" y1="813.6094" y2="813.6094"/><text fill="#000000" font-family="sans-serif" font-size="14" lengthAdjust="spacing" textLength="161" x="1724.5" y="832.1426">From ru.ifmo.se.pokemon</text></g><g id="elem_StatusMove"><rect fill="#F1F1F1" height="47.2188" style="stroke:#181818;stroke-width:0.5;" width="173" x="593.5" y="792"/><text fill="#000000" font-family="sans-serif" font-size="14" lengthAdjust="spacing" textLength="74" x="643" y="808.5332">StatusMove</text><line style="stroke:#181818;stroke-width:0.5;" x1="594.5" x2="765.5" y1="813.6094" y2="813.6094"/><text fill="#000000" font-family="sans-serif" font-size="14" lengthAdjust="spacing" textLength="161" x="599.5" y="832.1426">From ru.ifmo.se.pokemon</text></g><g id="elem_PhysicalMove"><rect fill="#F1F1F1" height="47.2188" style="stroke:#181818;stroke-width:0.5;" width="173" x="199.5" y="792"/><text fill="#000000" font-family="sans-serif" font-size="14" lengthAdjust="spacing" textLength="86" x="243" y="808.5332">PhysicalMove</text><line style="stroke:#181818;stroke-width:0.5;" x1="200.5" x2="371.5" y1="813.6094" y2="813.6094"/><text fill="#000000" font-family="sans-serif" font-size="14" lengthAdjust="spacing" textLength="161" x="205.5" y="832.1426">From ru.ifmo.se.pokemon</text></g><!--link Cobalion to Pokemon--><g id="link_Cobalion_Pokemon"><path codeLine="41" d="M520.11,447.96 C614.35,461.39 834.3,499.19 1002,578 C1031.53,591.88 1047.4777,602.8779 1067.7377,619.8079 " fill="none" id="Cobalion-to-Pokemon" style="stroke:#181818;stroke-width:1.0;"/><polygon fill="none" points="1081.55,631.35,1071.585,615.2038,1063.8903,624.412,1081.55,631.35" style="stroke:#181818;stroke-width:1.0;"/></g><!--link Electrike to Pokemon--><g id="link_Electrike_Pokemon"><path codeLine="42" d="M1084.8,491.7 C1090.83,535.76 1096.9062,580.2667 1101.4462,613.3967 " fill="none" id="Electrike-to-Pokemon" style="stroke:#181818;stroke-width:1.0;"/><polygon fill="none" points="1103.89,631.23,1107.3906,612.5821,1095.5017,614.2113,1103.89,631.23" style="stroke:#181818;stroke-width:1.0;"/></g><!--link Manectric to Electrike--><g id="link_Manectric_Electrike"><path codeLine="43" d="M1078,286.66 C1078,318.12 1078,340.66 1078,372.15 " fill="none" id="Manectric-to-Electrike" style="stroke:#181818;stroke-width:1.0;"/><polygon fill="none" points="1078,390.15,1084,372.15,1072,372.15,1078,390.15" style="stroke:#181818;stroke-width:1.0;"/></g><!--link Togepi to Pokemon--><g id="link_Togepi_Pokemon"><path codeLine="44" d="M1549.92,471.42 C1523.78,487.05 1489.99,505.56 1458,518 C1352.71,558.94 1313.46,530.42 1211,578 C1181.59,591.66 1165.8473,602.5651 1145.8273,619.5751 " fill="none" id="Togepi-to-Pokemon" style="stroke:#181818;stroke-width:1.0;"/><polygon fill="none" points="1132.11,631.23,1149.7122,624.1475,1141.9423,615.0027,1132.11,631.23" style="stroke:#181818;stroke-width:1.0;"/></g><!--link Togetic to Togepi--><g id="link_Togetic_Togepi"><path codeLine="45" d="M1724.41,286.66 C1698.07,318.12 1675.6765,344.8597 1649.3065,376.3497 " fill="none" id="Togetic-to-Togepi" style="stroke:#181818;stroke-width:1.0;"/><polygon fill="none" points="1637.75,390.15,1653.9066,380.2019,1644.7064,372.4976,1637.75,390.15" style="stroke:#181818;stroke-width:1.0;"/></g><!--link Togekiss to Togetic--><g id="link_Togekiss_Togetic"><path codeLine="46" d="M1866.63,108.13 C1847.46,132.3 1835.6675,147.1789 1816.5075,171.3289 " fill="none" id="Togekiss-to-Togetic" style="stroke:#181818;stroke-width:1.0;"/><polygon fill="none" points="1805.32,185.43,1821.2078,175.0581,1811.8071,167.5998,1805.32,185.43" style="stroke:#181818;stroke-width:1.0;"/></g><!--link DazzlingGleam to SpecialMove--><g id="link_DazzlingGleam_SpecialMove"><path codeLine="154" d="M2152.1,304.41 C2126.32,407.58 2064.58,605.89 1948,732 C1923.97,757.99 1906.0812,770.3287 1877.1912,784.1787 " fill="none" id="DazzlingGleam-to-SpecialMove" style="stroke:#181818;stroke-width:1.0;"/><polygon fill="none" points="1860.96,791.96,1879.785,789.5891,1874.5974,778.7683,1860.96,791.96" style="stroke:#181818;stroke-width:1.0;"/></g><!--link FireBlast to SpecialMove--><g id="link_FireBlast_SpecialMove"><path codeLine="155" d="M1805,732 C1805,753.77 1805,757.87 1805,773.71 " fill="none" id="FireBlast-to-SpecialMove" style="stroke:#181818;stroke-width:1.0;"/><polygon fill="none" points="1805,791.71,1811,773.71,1799,773.71,1805,791.71" style="stroke:#181818;stroke-width:1.0;"/></g><!--link MagicalLeaf to SpecialMove--><g id="link_MagicalLeaf_SpecialMove"><path codeLine="156" d="M1924.57,518.09 C1935.39,579.04 1941.31,665.13 1909,732 C1896.57,757.73 1887.0324,768.3315 1864.7724,782.2815 " fill="none" id="MagicalLeaf-to-SpecialMove" style="stroke:#181818;stroke-width:1.0;"/><polygon fill="none" points="1849.52,791.84,1867.9586,787.3657,1861.5863,777.1974,1849.52,791.84" style="stroke:#181818;stroke-width:1.0;"/></g><!--link Overheat to SpecialMove--><g id="link_Overheat_SpecialMove"><path codeLine="157" d="M1391.63,518.16 C1400.93,537.64 1410.88,558.58 1420,578 C1452.03,646.22 1433.25,683.57 1491,732 C1554.81,785.51 1631.6447,802.9959 1700.3647,809.6859 " fill="none" id="Overheat-to-SpecialMove" style="stroke:#181818;stroke-width:1.0;"/><polygon fill="none" points="1718.28,811.43,1700.9461,803.7141,1699.7833,815.6577,1718.28,811.43" style="stroke:#181818;stroke-width:1.0;"/></g><!--link ShadowBall to SpecialMove--><g id="link_ShadowBall_SpecialMove"><path codeLine="158" d="M1683.12,722.07 C1715.83,746.87 1736.5274,762.5739 1760.6074,780.8339 " fill="none" id="ShadowBall-to-SpecialMove" style="stroke:#181818;stroke-width:1.0;"/><polygon fill="none" points="1774.95,791.71,1764.2327,776.053,1756.982,785.6148,1774.95,791.71" style="stroke:#181818;stroke-width:1.0;"/></g><!--link Facade to PhysicalMove--><g id="link_Facade_PhysicalMove"><path codeLine="160" d="M801,723.67 C795.05,726.75 789.02,729.56 783,732 C646.38,787.29 492.2586,804.4779 390.5786,810.4879 " fill="none" id="Facade-to-PhysicalMove" style="stroke:#181818;stroke-width:1.0;"/><polygon fill="none" points="372.61,811.55,390.9327,816.4775,390.2246,804.4984,372.61,811.55" style="stroke:#181818;stroke-width:1.0;"/></g><!--link PoisonJab to PhysicalMove--><g id="link_PoisonJab_PhysicalMove"><path codeLine="161" d="M183.21,728.76 C210.53,751.54 224.886,763.5219 244.816,780.1419 " fill="none" id="PoisonJab-to-PhysicalMove" style="stroke:#181818;stroke-width:1.0;"/><polygon fill="none" points="258.64,791.67,248.6587,775.5339,240.9733,784.7499,258.64,791.67" style="stroke:#181818;stroke-width:1.0;"/></g><!--link XScissors to PhysicalMove--><g id="link_XScissors_PhysicalMove"><path codeLine="162" d="M286,723.22 C286,747.69 286,755.72 286,773.7 " fill="none" id="XScissors-to-PhysicalMove" style="stroke:#181818;stroke-width:1.0;"/><polygon fill="none" points="286,791.7,292,773.7,280,773.7,286,791.7" style="stroke:#181818;stroke-width:1.0;"/></g><!--link CalmMind to StatusMove--><g id="link_CalmMind_StatusMove"><path codeLine="164" d="M559.57,721.84 C591.85,746.68 612.2163,762.3406 636.0163,780.6606 " fill="none" id="CalmMind-to-StatusMove" style="stroke:#181818;stroke-width:1.0;"/><polygon fill="none" points="650.28,791.64,639.6761,775.906,632.3565,785.4151,650.28,791.64" style="stroke:#181818;stroke-width:1.0;"/></g><!--link Confide to StatusMove--><g id="link_Confide_StatusMove"><path codeLine="165" d="M1228.97,723.44 C1223.05,726.62 1217.04,729.52 1211,732 C1062.82,792.97 892.4469,808.5734 784.5169,812.6934 " fill="none" id="Confide-to-StatusMove" style="stroke:#181818;stroke-width:1.0;"/><polygon fill="none" points="766.53,813.38,784.7458,818.689,784.288,806.6978,766.53,813.38" style="stroke:#181818;stroke-width:1.0;"/></g><!--link Rest to StatusMove--><g id="link_Rest_StatusMove"><path codeLine="166" d="M680,732 C680,753.77 680,757.87 680,773.71 " fill="none" id="Rest-to-StatusMove" style="stroke:#181818;stroke-width:1.0;"/><polygon fill="none" points="680,791.71,686,773.71,674,773.71,680,791.71" style="stroke:#181818;stroke-width:1.0;"/></g><!--reverse link Cobalion to Rest--><g id="link_Cobalion_Rest"><path codeLine="168" d="M528.5936,498.1852 C553.8636,524.1852 577.39,548.4 606.03,577.87 " fill="none" id="Cobalion-backto-Rest" style="stroke:#181818;stroke-width:1.0;"/><polygon fill="none" points="520.23,489.58,521.5434,496.6705,528.5936,498.1852,527.2802,491.0947,520.23,489.58" style="stroke:#181818;stroke-width:1.0;"/></g><!--reverse link Cobalion to XScissors--><g id="link_Cobalion_XScissors"><path codeLine="169" d="M421.959,500.679 C396.779,529.079 372.83,556.08 345.46,586.95 " fill="none" id="Cobalion-backto-XScissors" style="stroke:#181818;stroke-width:1.0;"/><polygon fill="none" points="429.92,491.7,422.9465,493.5359,421.959,500.679,428.9325,498.8432,429.92,491.7" style="stroke:#181818;stroke-width:1.0;"/></g><!--reverse link Cobalion to PoisonJab--><g id="link_Cobalion_PoisonJab"><path codeLine="170" d="M416.911,467.0811 C361.621,491.8811 277.78,531.52 201,578 C195.13,581.55 189.17,585.34 183.22,589.25 " fill="none" id="Cobalion-backto-PoisonJab" style="stroke:#181818;stroke-width:1.0;"/><polygon fill="none" points="427.86,462.17,420.7485,460.9759,416.911,467.0811,424.0225,468.2752,427.86,462.17" style="stroke:#181818;stroke-width:1.0;"/></g><!--reverse link Cobalion to CalmMind--><g id="link_Cobalion_CalmMind"><path codeLine="171" d="M474,503.7 C474,529.28 474,549.02 474,577.63 " fill="none" id="Cobalion-backto-CalmMind" style="stroke:#181818;stroke-width:1.0;"/><polygon fill="none" points="474,491.7,470,497.7,474,503.7,478,497.7,474,491.7" style="stroke:#181818;stroke-width:1.0;"/></g><!--reverse link Electrike to Rest--><g id="link_Electrike_Rest"><path codeLine="173" d="M1020.6769,464.3131 C961.3469,488.0231 867.11,528.28 783,578 C777.26,581.39 771.45,585.03 765.67,588.82 " fill="none" id="Electrike-backto-Rest" style="stroke:#181818;stroke-width:1.0;"/><polygon fill="none" points="1031.82,459.86,1024.7641,458.3722,1020.6769,464.3131,1027.7328,465.8009,1031.82,459.86" style="stroke:#181818;stroke-width:1.0;"/></g><!--reverse link Electrike to Confide--><g id="link_Electrike_Confide"><path codeLine="174" d="M1133.1315,491.1107 C1163.2815,517.9607 1194.59,545.86 1230.46,577.8 " fill="none" id="Electrike-backto-Confide" style="stroke:#181818;stroke-width:1.0;"/><polygon fill="none" points="1124.17,483.13,1125.9905,490.1075,1133.1315,491.1107,1131.311,484.1332,1124.17,483.13" style="stroke:#181818;stroke-width:1.0;"/></g><!--reverse link Electrike to Facade--><g id="link_Electrike_Facade"><path codeLine="175" d="M1026.7385,500.7401 C1004.4085,526.3201 984.61,549.02 959.64,577.63 " fill="none" id="Electrike-backto-Facade" style="stroke:#181818;stroke-width:1.0;"/><polygon fill="none" points="1034.63,491.7,1027.6709,493.5895,1026.7385,500.7401,1033.6976,498.8506,1034.63,491.7" style="stroke:#181818;stroke-width:1.0;"/></g><!--reverse link Manectric to Rest--><g id="link_Manectric_Rest"><path codeLine="177" d="M1020.3582,288.7913 C994.0182,312.8413 970.09,335.44 942,364 C872.77,434.38 797.6,518.44 745.61,577.89 " fill="none" id="Manectric-backto-Rest" style="stroke:#181818;stroke-width:1.0;"/><polygon fill="none" points="1029.22,280.7,1022.092,281.7917,1020.3582,288.7913,1027.4862,287.6996,1029.22,280.7" style="stroke:#181818;stroke-width:1.0;"/></g><!--reverse link Manectric to Confide--><g id="link_Manectric_Confide"><path codeLine="178" d="M1112.4185,297.3118 C1153.6285,369.5118 1224.29,493.32 1272.58,577.92 " fill="none" id="Manectric-backto-Confide" style="stroke:#181818;stroke-width:1.0;"/><polygon fill="none" points="1106.47,286.89,1105.9703,294.0838,1112.4185,297.3118,1112.9182,290.1181,1106.47,286.89" style="stroke:#181818;stroke-width:1.0;"/></g><!--reverse link Manectric to Facade--><g id="link_Manectric_Facade"><path codeLine="179" d="M1046.4601,297.3357 C1034.5001,320.6357 1025.86,338.2 1014,364 C981.01,435.74 946.64,519.07 923,577.95 " fill="none" id="Manectric-backto-Facade" style="stroke:#181818;stroke-width:1.0;"/><polygon fill="none" points="1051.94,286.66,1045.6415,290.1712,1046.4601,297.3357,1052.7586,293.8245,1051.94,286.66" style="stroke:#181818;stroke-width:1.0;"/></g><!--reverse link Manectric to Overheat--><g id="link_Manectric_Overheat"><path codeLine="180" d="M1136.2493,279.6831 C1175.6593,308.5631 1222.5,342.9 1269.47,377.32 " fill="none" id="Manectric-backto-Overheat" style="stroke:#181818;stroke-width:1.0;"/><polygon fill="none" points="1126.57,272.59,1129.0453,279.363,1136.2493,279.6831,1133.774,272.9101,1126.57,272.59" style="stroke:#181818;stroke-width:1.0;"/></g><!--reverse link Togepi to FireBlast--><g id="link_Togepi_FireBlast"><path codeLine="182" d="M1650.5461,497.334 C1676.2761,523.424 1700.52,548.02 1729.84,577.77 " fill="none" id="Togepi-backto-FireBlast" style="stroke:#181818;stroke-width:1.0;"/><polygon fill="none" points="1642.12,488.79,1643.4851,495.8707,1650.5461,497.334,1649.1811,490.2533,1642.12,488.79" style="stroke:#181818;stroke-width:1.0;"/></g><!--reverse link Togepi to ShadowBall--><g id="link_Togepi_ShadowBall"><path codeLine="183" d="M1596,503.7 C1596,529.28 1596,549.02 1596,577.63 " fill="none" id="Togepi-backto-ShadowBall" style="stroke:#181818;stroke-width:1.0;"/><polygon fill="none" points="1596,491.7,1592,497.7,1596,503.7,1600,497.7,1596,491.7" style="stroke:#181818;stroke-width:1.0;"/></g><!--reverse link Togetic to FireBlast--><g id="link_Togetic_FireBlast"><path codeLine="185" d="M1771.787,298.8379 C1778.537,371.0379 1789.97,493.32 1797.88,577.92 " fill="none" id="Togetic-backto-FireBlast" style="stroke:#181818;stroke-width:1.0;"/><polygon fill="none" points="1770.67,286.89,1767.2459,293.2363,1771.787,298.8379,1775.2111,292.4916,1770.67,286.89" style="stroke:#181818;stroke-width:1.0;"/></g><!--reverse link Togetic to ShadowBall--><g id="link_Togetic_ShadowBall"><path codeLine="186" d="M1744.2082,297.9344 C1723.7782,354.4144 1692.75,437.91 1659,518 C1650.76,537.54 1641.39,558.43 1632.43,577.82 " fill="none" id="Togetic-backto-ShadowBall" style="stroke:#181818;stroke-width:1.0;"/><polygon fill="none" points="1748.29,286.65,1742.4876,290.9316,1744.2082,297.9344,1750.0106,293.6528,1748.29,286.65" style="stroke:#181818;stroke-width:1.0;"/></g><!--reverse link Togetic to MagicalLeaf--><g id="link_Togetic_MagicalLeaf"><path codeLine="187" d="M1807.0635,296.5381 C1823.0935,319.7781 1835.72,338.1 1853.55,363.94 " fill="none" id="Togetic-backto-MagicalLeaf" style="stroke:#181818;stroke-width:1.0;"/><polygon fill="none" points="1800.25,286.66,1800.3641,293.8702,1807.0635,296.5381,1806.9494,289.3279,1800.25,286.66" style="stroke:#181818;stroke-width:1.0;"/></g><!--reverse link Togekiss to FireBlast--><g id="link_Togekiss_FireBlast"><path codeLine="189" d="M1944.6489,118.3849 C1997.5289,206.0349 2083.19,381.61 2010,518 C1984.91,564.76 1935.88,598.17 1892.06,620.17 " fill="none" id="Togekiss-backto-FireBlast" style="stroke:#181818;stroke-width:1.0;"/><polygon fill="none" points="1938.45,108.11,1938.1245,115.3138,1944.6489,118.3849,1944.9744,111.1811,1938.45,108.11" style="stroke:#181818;stroke-width:1.0;"/></g><!--reverse link Togekiss to ShadowBall--><g id="link_Togekiss_ShadowBall"><path codeLine="190" d="M1848.5001,82.2017 C1761.4401,120.5917 1588.58,212.41 1532,364 C1508.07,428.12 1517.07,451.2 1532,518 C1536.5,538.12 1544.31,558.77 1552.97,577.71 " fill="none" id="Togekiss-backto-ShadowBall" style="stroke:#181818;stroke-width:1.0;"/><polygon fill="none" points="1859.48,77.36,1852.3762,76.1209,1848.5001,82.2017,1855.604,83.4408,1859.48,77.36" style="stroke:#181818;stroke-width:1.0;"/></g><!--reverse link Togekiss to MagicalLeaf--><g id="link_Togekiss_MagicalLeaf"><path codeLine="191" d="M1906,120.37 C1906,185.41 1906,287.81 1906,363.76 " fill="none" id="Togekiss-backto-MagicalLeaf" style="stroke:#181818;stroke-width:1.0;"/><polygon fill="none" points="1906,108.37,1902,114.37,1906,120.37,1910,114.37,1906,108.37" style="stroke:#181818;stroke-width:1.0;"/></g><!--reverse link Togekiss to DazzlingGleam--><g id="link_Togekiss_DazzlingGleam"><path codeLine="192" d="M1962.8217,95.3447 C1996.2217,117.1247 2032.07,140.76 2072,168 C2080.92,174.09 2090.26,180.55 2099.46,186.98 " fill="none" id="Togekiss-backto-DazzlingGleam" style="stroke:#181818;stroke-width:1.0;"/><polygon fill="none" points="1952.77,88.79,1955.611,95.4179,1962.8217,95.3447,1959.9807,88.7168,1952.77,88.79" style="stroke:#181818;stroke-width:1.0;"/></g><!--SRC=[fLR1Rjim3BthAmpiqg58Fi277fes0uO53UOUTgLjEj4YMuRjf4Yt_VjaoQ8b6qXTEuT4UkIZ7Yb5een_Oz84Utd2N1Qi-mt2O5l9FAZEQvxbSbtZkkmyM2AWheEDZ45mvVc71UfJG8vX43KLBmuQ47X14GQyQFJqtlhVVMN_R8ndePQk-0cd1Y626sK7XKQJgL68u4PvbGSi-TGGndl8RwPhwDo74KvS3JuHelKtCMW_Lgk_3xITVOKzk2zP2vCJwuhW-Th4D6WS64abK7dOF7vYtNGvDDTIvV2gllMqb6zXaCfpBCmSaiIRtxTKbKux_W9bAQuHYkmvovG-bMOON2HFZJN5EgbuZ2tQrOWA-IjAb3PPrJDL4DzAkRNONl9Q5jyXdhaOyRsyNyhoqsblGEGxNgGpXLZwylflP97n5EVgCEp5vTX20hD56F9GmnFaSC3f4bukM1qHvluRB7tvZcnvXOzgD5S9yHVlIdI4LBuzWX0pfVG15clPmO4d87uWP3F5E14Mgtc2ztUXa6y28P-fnujn-_PYqZpyKOa91x6J5sJE-4O3O8aDDEVQy6ZuCMr_lDPjpJJHdTngEPXV7FtgkCBxypqokPiyCj8VT6Hnpkd8nhghnJoJNZxq68nj_QiqjZ6wkyrYVMdjNJh4zICx1FicGAvM-Xts4PBWmwJQXwqcvdGH5DU7EfK3r9I9ETq6qNt8qdsqe_kWtJ5cUnNjQRVV1ViTPDJ3Z9qjwdYxi7DwMD_rZCCGF0n41ZUIP_2Ezdy0]--></g></svg>