<?xml version="1.0" encoding="us-ascii" standalone="no"?><svg xmlns="http://www.w3.org/2000/svg" xmlns:xlink="http://www.w3.org/1999/xlink" contentStyleType="text/css" height="364px" preserveAspectRatio="none" style="width:1501px;height:364px;background:#FFFFFF;" version="1.1" viewBox="0 0 1501 364" width="1501px" zoomAndPan="magnify"><defs/><g><g id="elem_Pokemon"><rect fill="#F1F1F1" height="47.2188" style="stroke:#181818;stroke-width:0.5;" width="173" x="59.5" y="310"/><text fill="#000000" font-family="sans-serif" font-size="14" lengthAdjust="spacing" textLength="59" x="116.5" y="326.5332">Pokemon</text><line style="stroke:#181818;stroke-width:0.5;" x1="60.5" x2="231.5" y1="331.6094" y2="331.6094"/><text fill="#000000" font-family="sans-serif" font-size="14" lengthAdjust="spacing" textLength="161" x="65.5" y="350.1426">From ru.ifmo.se.pokemon</text></g><g id="elem_Cobalion"><rect fill="#F1F1F1" height="37.6094" style="stroke:#181818;stroke-width:0.5;" width="70" x="7" y="212"/><text fill="#000000" font-family="sans-serif" font-size="14" lengthAdjust="spacing" textLength="56" x="14" y="228.5332">Cobalion</text><line style="stroke:#181818;stroke-width:0.5;" x1="8" x2="76" y1="233.6094" y2="233.6094"/></g><g id="elem_Electrike"><rect fill="#F1F1F1" height="37.6094" style="stroke:#181818;stroke-width:0.5;" width="68" x="112" y="212"/><text fill="#000000" font-family="sans-serif" font-size="14" lengthAdjust="spacing" textLength="54" x="119" y="228.5332">Electrike</text><line style="stroke:#181818;stroke-width:0.5;" x1="113" x2="179" y1="233.6094" y2="233.6094"/></g><g id="elem_Manectric"><rect fill="#F1F1F1" height="37.6094" style="stroke:#181818;stroke-width:0.5;" width="75" x="106.5" y="109.5"/><text fill="#000000" font-family="sans-serif" font-size="14" lengthAdjust="spacing" textLength="61" x="113.5" y="126.0332">Manectric</text><line style="stroke:#181818;stroke-width:0.5;" x1="107.5" x2="180.5" y1="131.1094" y2="131.1094"/></g><g id="elem_Togepi"><rect fill="#F1F1F1" height="37.6094" style="stroke:#181818;stroke-width:0.5;" width="58" x="217" y="212"/><text fill="#000000" font-family="sans-serif" font-size="14" lengthAdjust="spacing" textLength="44" x="224" y="228.5332">Togepi</text><line style="stroke:#181818;stroke-width:0.5;" x1="218" x2="274" y1="233.6094" y2="233.6094"/></g><g id="elem_Togetic"><rect fill="#F1F1F1" height="37.6094" style="stroke:#181818;stroke-width:0.5;" width="61" x="216.5" y="109.5"/><text fill="#000000" font-family="sans-serif" font-size="14" lengthAdjust="spacing" textLength="47" x="223.5" y="126.0332">Togetic</text><line style="stroke:#181818;stroke-width:0.5;" x1="217.5" x2="276.5" y1="131.1094" y2="131.1094"/></g><g id="elem_Togekiss"><rect fill="#F1F1F1" height="37.6094" style="stroke:#181818;stroke-width:0.5;" width="71" x="211.5" y="7"/><text fill="#000000" font-family="sans-serif" font-size="14" lengthAdjust="spacing" textLength="57" x="218.5" y="23.5332">Togekiss</text><line style="stroke:#181818;stroke-width:0.5;" x1="212.5" x2="281.5" y1="28.6094" y2="28.6094"/></g><g id="elem_PhysicalMove"><rect fill="#F1F1F1" height="47.2188" style="stroke:#181818;stroke-width:0.5;" width="173" x="368.5" y="105"/><text fill="#000000" font-family="sans-serif" font-size="14" lengthAdjust="spacing" textLength="86" x="412" y="121.5332">PhysicalMove</text><line style="stroke:#181818;stroke-width:0.5;" x1="369.5" x2="540.5" y1="126.6094" y2="126.6094"/><text fill="#000000" font-family="sans-serif" font-size="14" lengthAdjust="spacing" textLength="161" x="374.5" y="145.1426">From ru.ifmo.se.pokemon</text></g><g id="elem_Facade"><rect fill="#F1F1F1" height="37.6094" style="stroke:#181818;stroke-width:0.5;" width="62" x="318" y="7"/><text fill="#000000" font-family="sans-serif" font-size="14" lengthAdjust="spacing" textLength="48" x="325" y="23.5332">Facade</text><line style="stroke:#181818;stroke-width:0.5;" x1="319" x2="379" y1="28.6094" y2="28.6094"/></g><g id="elem_PoisonJab"><rect fill="#F1F1F1" height="37.6094" style="stroke:#181818;stroke-width:0.5;" width="79" x="415.5" y="7"/><text fill="#000000" font-family="sans-serif" font-size="14" lengthAdjust="spacing" textLength="65" x="422.5" y="23.5332">PoisonJab</text><line style="stroke:#181818;stroke-width:0.5;" x1="416.5" x2="493.5" y1="28.6094" y2="28.6094"/></g><g id="elem_XScissors"><rect fill="#F1F1F1" height="37.6094" style="stroke:#181818;stroke-width:0.5;" width="75" x="529.5" y="7"/><text fill="#000000" font-family="sans-serif" font-size="14" lengthAdjust="spacing" textLength="61" x="536.5" y="23.5332">XScissors</text><line style="stroke:#181818;stroke-width:0.5;" x1="530.5" x2="603.5" y1="28.6094" y2="28.6094"/></g><g id="elem_SpecialMove"><rect fill="#F1F1F1" height="47.2188" style="stroke:#181818;stroke-width:0.5;" width="173" x="845.5" y="105"/><text fill="#000000" font-family="sans-serif" font-size="14" lengthAdjust="spacing" textLength="80" x="892" y="121.5332">SpecialMove</text><line style="stroke:#181818;stroke-width:0.5;" x1="846.5" x2="1017.5" y1="126.6094" y2="126.6094"/><text fill="#000000" font-family="sans-serif" font-size="14" lengthAdjust="spacing" textLength="161" x="851.5" y="145.1426">From ru.ifmo.se.pokemon</text></g><g id="elem_DazzlingGleam"><rect fill="#F1F1F1" height="37.6094" style="stroke:#181818;stroke-width:0.5;" width="107" x="639.5" y="7"/><text fill="#000000" font-family="sans-serif" font-size="14" lengthAdjust="spacing" textLength="93" x="646.5" y="23.5332">DazzlingGleam</text><line style="stroke:#181818;stroke-width:0.5;" x1="640.5" x2="745.5" y1="28.6094" y2="28.6094"/></g><g id="elem_FireBlast"><rect fill="#F1F1F1" height="37.6094" style="stroke:#181818;stroke-width:0.5;" width="70" x="782" y="7"/><text fill="#000000" font-family="sans-serif" font-size="14" lengthAdjust="spacing" textLength="56" x="789" y="23.5332">FireBlast</text><line style="stroke:#181818;stroke-width:0.5;" x1="783" x2="851" y1="28.6094" y2="28.6094"/></g><g id="elem_MagicalLeaf"><rect fill="#F1F1F1" height="37.6094" style="stroke:#181818;stroke-width:0.5;" width="90" x="887" y="7"/><text fill="#000000" font-family="sans-serif" font-size="14" lengthAdjust="spacing" textLength="76" x="894" y="23.5332">MagicalLeaf</text><line style="stroke:#181818;stroke-width:0.5;" x1="888" x2="976" y1="28.6094" y2="28.6094"/></g><g id="elem_Overheat"><rect fill="#F1F1F1" height="37.6094" style="stroke:#181818;stroke-width:0.5;" width="73" x="1012.5" y="7"/><text fill="#000000" font-family="sans-serif" font-size="14" lengthAdjust="spacing" textLength="59" x="1019.5" y="23.5332">Overheat</text><line style="stroke:#181818;stroke-width:0.5;" x1="1013.5" x2="1084.5" y1="28.6094" y2="28.6094"/></g><g id="elem_ShadowBall"><rect fill="#F1F1F1" height="37.6094" style="stroke:#181818;stroke-width:0.5;" width="87" x="1120.5" y="7"/><text fill="#000000" font-family="sans-serif" font-size="14" lengthAdjust="spacing" textLength="73" x="1127.5" y="23.5332">ShadowBall</text><line style="stroke:#181818;stroke-width:0.5;" x1="1121.5" x2="1206.5" y1="28.6094" y2="28.6094"/></g><g id="elem_StatusMove"><rect fill="#F1F1F1" height="47.2188" style="stroke:#181818;stroke-width:0.5;" width="173" x="1299.5" y="105"/><text fill="#000000" font-family="sans-serif" font-size="14" lengthAdjust="spacing" textLength="74" x="1349" y="121.5332">StatusMove</text><line style="stroke:#181818;stroke-width:0.5;" x1="1300.5" x2="1471.5" y1="126.6094" y2="126.6094"/><text fill="#000000" font-family="sans-serif" font-size="14" lengthAdjust="spacing" textLength="161" x="1305.5" y="145.1426">From ru.ifmo.se.pokemon</text></g><g id="elem_CalmMind"><rect fill="#F1F1F1" height="37.6094" style="stroke:#181818;stroke-width:0.5;" width="76" x="1243" y="7"/><text fill="#000000" font-family="sans-serif" font-size="14" lengthAdjust="spacing" textLength="62" x="1250" y="23.5332">CalmMind</text><line style="stroke:#181818;stroke-width:0.5;" x1="1244" x2="1318" y1="28.6094" y2="28.6094"/></g><g id="elem_Confide"><rect fill="#F1F1F1" height="37.6094" style="stroke:#181818;stroke-width:0.5;" width="63" x="1354.5" y="7"/><text fill="#000000" font-family="sans-serif" font-size="14" lengthAdjust="spacing" textLength="49" x="1361.5" y="23.5332">Confide</text><line style="stroke:#181818;stroke-width:0.5;" x1="1355.5" x2="1416.5" y1="28.6094" y2="28.6094"/></g><g id="elem_Rest"><rect fill="#F1F1F1" height="37.6094" style="stroke:#181818;stroke-width:0.5;" width="43" x="1452.5" y="7"/><text fill="#000000" font-family="sans-serif" font-size="14" lengthAdjust="spacing" textLength="29" x="1459.5" y="23.5332">Rest</text><line style="stroke:#181818;stroke-width:0.5;" x1="1453.5" x2="1494.5" y1="28.6094" y2="28.6094"/></g><!--link Cobalion to Pokemon--><g id="link_Cobalion_Pokemon"><path codeLine="11" d="M61.08,250.43 C78.43,267.21 91.1545,279.5034 109.7345,297.4534 " fill="none" id="Cobalion-to-Pokemon" style="stroke:#181818;stroke-width:1.0;"/><polygon fill="none" points="122.68,309.96,113.9033,293.1383,105.5656,301.7686,122.68,309.96" style="stroke:#181818;stroke-width:1.0;"/></g><!--link Electrike to Pokemon--><g id="link_Electrike_Pokemon"><path codeLine="12" d="M146,250.43 C146,267.21 146,274.01 146,291.96 " fill="none" id="Electrike-to-Pokemon" style="stroke:#181818;stroke-width:1.0;"/><polygon fill="none" points="146,309.96,152,291.96,140,291.96,146,309.96" style="stroke:#181818;stroke-width:1.0;"/></g><!--link Manectric to Electrike--><g id="link_Manectric_Electrike"><path codeLine="13" d="M144.37,147.93 C144.73,166.07 144.9219,175.5936 145.2819,193.6836 " fill="none" id="Manectric-to-Electrike" style="stroke:#181818;stroke-width:1.0;"/><polygon fill="none" points="145.64,211.68,151.2807,193.5642,139.283,193.8029,145.64,211.68" style="stroke:#181818;stroke-width:1.0;"/></g><!--link Togepi to Pokemon--><g id="link_Togepi_Pokemon"><path codeLine="14" d="M227.66,250.43 C210.97,267.21 198.9723,279.2466 181.1223,297.1966 " fill="none" id="Togepi-to-Pokemon" style="stroke:#181818;stroke-width:1.0;"/><polygon fill="none" points="168.43,309.96,185.3768,301.4273,176.8678,292.9658,168.43,309.96" style="stroke:#181818;stroke-width:1.0;"/></g><!--link Togetic to Togepi--><g id="link_Togetic_Togepi"><path codeLine="15" d="M246.82,147.93 C246.64,166.07 246.5391,175.5909 246.3591,193.6809 " fill="none" id="Togetic-to-Togepi" style="stroke:#181818;stroke-width:1.0;"/><polygon fill="none" points="246.18,211.68,252.3588,193.7406,240.3594,193.6212,246.18,211.68" style="stroke:#181818;stroke-width:1.0;"/></g><!--link Togekiss to Togetic--><g id="link_Togekiss_Togetic"><path codeLine="16" d="M247,45.43 C247,63.57 247,73.09 247,91.18 " fill="none" id="Togekiss-to-Togetic" style="stroke:#181818;stroke-width:1.0;"/><polygon fill="none" points="247,109.18,253,91.18,241,91.18,247,109.18" style="stroke:#181818;stroke-width:1.0;"/></g><!--link Facade to PhysicalMove--><g id="link_Facade_PhysicalMove"><path codeLine="25" d="M368.44,45.43 C386.13,62.21 399.2385,74.6247 418.1685,92.5747 " fill="none" id="Facade-to-PhysicalMove" style="stroke:#181818;stroke-width:1.0;"/><polygon fill="none" points="431.23,104.96,422.2969,88.2208,414.04,96.9285,431.23,104.96" style="stroke:#181818;stroke-width:1.0;"/></g><!--link PoisonJab to PhysicalMove--><g id="link_PoisonJab_PhysicalMove"><path codeLine="26" d="M455,45.43 C455,62.21 455,69.01 455,86.96 " fill="none" id="PoisonJab-to-PhysicalMove" style="stroke:#181818;stroke-width:1.0;"/><polygon fill="none" points="455,104.96,461,86.96,449,86.96,455,104.96" style="stroke:#181818;stroke-width:1.0;"/></g><!--link XScissors to PhysicalMove--><g id="link_XScissors_PhysicalMove"><path codeLine="27" d="M546.72,45.2 C528.06,61.94 513.7132,74.8041 493.6332,92.8341 " fill="none" id="XScissors-to-PhysicalMove" style="stroke:#181818;stroke-width:1.0;"/><polygon fill="none" points="480.24,104.86,497.6418,97.2985,489.6246,88.3697,480.24,104.86" style="stroke:#181818;stroke-width:1.0;"/></g><!--link DazzlingGleam to SpecialMove--><g id="link_DazzlingGleam_SpecialMove"><path codeLine="38" d="M736,45.08 C775.92,61.87 818.8882,79.9305 861.8682,98.0105 " fill="none" id="DazzlingGleam-to-SpecialMove" style="stroke:#181818;stroke-width:1.0;"/><polygon fill="none" points="878.46,104.99,864.1947,92.4799,859.5417,103.5411,878.46,104.99" style="stroke:#181818;stroke-width:1.0;"/></g><!--link FireBlast to SpecialMove--><g id="link_FireBlast_SpecialMove"><path codeLine="39" d="M837.83,45.2 C856.98,61.94 871.9195,74.9816 892.5395,93.0116 " fill="none" id="FireBlast-to-SpecialMove" style="stroke:#181818;stroke-width:1.0;"/><polygon fill="none" points="906.09,104.86,896.489,88.4948,888.5901,97.5284,906.09,104.86" style="stroke:#181818;stroke-width:1.0;"/></g><!--link MagicalLeaf to SpecialMove--><g id="link_MagicalLeaf_SpecialMove"><path codeLine="40" d="M932,45.43 C932,62.21 932,69.01 932,86.96 " fill="none" id="MagicalLeaf-to-SpecialMove" style="stroke:#181818;stroke-width:1.0;"/><polygon fill="none" points="932,104.96,938,86.96,926,86.96,932,104.96" style="stroke:#181818;stroke-width:1.0;"/></g><!--link Overheat to SpecialMove--><g id="link_Overheat_SpecialMove"><path codeLine="41" d="M1027.81,45.2 C1008.32,61.94 992.9915,75.0981 972.0115,93.1281 " fill="none" id="Overheat-to-SpecialMove" style="stroke:#181818;stroke-width:1.0;"/><polygon fill="none" points="958.36,104.86,975.9221,97.6786,968.1008,88.5776,958.36,104.86" style="stroke:#181818;stroke-width:1.0;"/></g><!--link ShadowBall to SpecialMove--><g id="link_ShadowBall_SpecialMove"><path codeLine="42" d="M1122.26,45.08 C1083.51,61.87 1042.2164,79.7541 1000.4864,97.8341 " fill="none" id="ShadowBall-to-SpecialMove" style="stroke:#181818;stroke-width:1.0;"/><polygon fill="none" points="983.97,104.99,1002.8717,103.3395,998.1011,92.3286,983.97,104.99" style="stroke:#181818;stroke-width:1.0;"/></g><!--link CalmMind to StatusMove--><g id="link_CalmMind_StatusMove"><path codeLine="51" d="M1300.26,45.43 C1317.78,62.21 1330.6977,74.5625 1349.4477,92.5125 " fill="none" id="CalmMind-to-StatusMove" style="stroke:#181818;stroke-width:1.0;"/><polygon fill="none" points="1362.45,104.96,1353.5969,88.1784,1345.2985,96.8466,1362.45,104.96" style="stroke:#181818;stroke-width:1.0;"/></g><!--link Confide to StatusMove--><g id="link_Confide_StatusMove"><path codeLine="52" d="M1386,45.43 C1386,62.21 1386,69.01 1386,86.96 " fill="none" id="Confide-to-StatusMove" style="stroke:#181818;stroke-width:1.0;"/><polygon fill="none" points="1386,104.96,1392,86.96,1380,86.96,1386,104.96" style="stroke:#181818;stroke-width:1.0;"/></g><!--link Rest to StatusMove--><g id="link_Rest_StatusMove"><path codeLine="53" d="M1457.86,45.43 C1443.17,62.21 1433.3047,73.465 1417.5947,91.415 " fill="none" id="Rest-to-StatusMove" style="stroke:#181818;stroke-width:1.0;"/><polygon fill="none" points="1405.74,104.96,1422.1097,95.3666,1413.0797,87.4635,1405.74,104.96" style="stroke:#181818;stroke-width:1.0;"/></g><!--SRC=[ZLFBKeGm4BpdA_Y1vGCyU5XrhRBSaX8FNeSmG2Hag8HTooq_NjYyGFR01JBTFTET1AZuGZua6RNOaMBkdTmb1qrTea-fg3fA3QQzKp2o7GzKW1GZuEedEJwrQD43Hr1NX7lWWshinRmQbcGhZ67C3qvskz_x42oCNyB1v0h73DPhgNME5dHXl6q4fqm-LDRy6C517kcCR5viE9y3S2Z3OMGa3AaNA3pmcVFHblIuOQjqMHUElka65_flSDuZxv4BXytM6y8_mkKYXQgV9K8NTYGqxYMO8TvmFNc-8bGUUZkZRX2296-WfEyzICdOOgYDFKyOng-fcT6Qz9Ph9fglkH1mWE5ah3mijtp-8BkZK6Ny7LGbuds_utXCp8kSVRHowXK-jVq7_m00]--></g></svg>